<svg xmlns="http://www.w3.org/2000/svg" viewBox="0 0 292.73 29.58"><defs><style>.a{fill:#9d1d96;}</style></defs><path class="a" d="M0,.51H1.83l12.76,15L27.34.51h1.84V29.07H22l0-11.62-7.41,8.72L7.16,17.45V29.07H0Z"/><path class="a" d="M56.27,6.88H41.56v4.63H54.63v6H41.56v5.22H56.27v6.36H34.42V.51H56.27Z"/><path class="a" d="M72.23,12.69H88.72a23.18,23.18,0,0,1-.07,4.36,13.71,13.71,0,0,1-2.29,6.42,13.43,13.43,0,0,1-5.13,4.47,15.45,15.45,0,0,1-7.17,1.64,14.82,14.82,0,0,1-5.81-1.17,15.18,15.18,0,0,1-4.78-3.15,14.92,14.92,0,0,1-3.2-4.72,14.34,14.34,0,0,1,0-11.44,14.92,14.92,0,0,1,3.2-4.72,15.38,15.38,0,0,1,4.78-3.16A14.75,14.75,0,0,1,86.78,7l-5.43,3.62a8.59,8.59,0,0,0-7.29-4.06,7.41,7.41,0,0,0-5.55,2.32,8.12,8.12,0,0,0-2.25,5.91,8.17,8.17,0,0,0,2.24,6,7.48,7.48,0,0,0,5.56,2.28,7.87,7.87,0,0,0,3.14-.64,6.79,6.79,0,0,0,2.48-1.73,4.15,4.15,0,0,0,1.12-2.36H72.23Z"/><path class="a" d="M95,29.07H87L101.86.51h1.76l14.82,28.56h-7.91l-1.92-3.83H96.83Zm7.75-16.31-3.16,6.71h6.32Z"/><path class="a" d="M138.13.51h7.18V29.07h-7.18V18.27H126.85v10.8h-7.12V.51h7.12V12h11.28Z"/><path class="a" d="M164,29.58a15.3,15.3,0,0,1-6-1.17,14.35,14.35,0,0,1-4.77-3.16,14.65,14.65,0,0,1-3.11-4.71A15,15,0,0,1,149,14.78,14.74,14.74,0,0,1,151,7.38,14.39,14.39,0,0,1,156.34,2,15,15,0,0,1,164,0a15.18,15.18,0,0,1,7.71,2,14.42,14.42,0,0,1,5.39,5.38,14.65,14.65,0,0,1,1.93,7.4,14.88,14.88,0,0,1-4.26,10.47A14.29,14.29,0,0,1,170,28.41,15.41,15.41,0,0,1,164,29.58Zm0-23.07a7.34,7.34,0,0,0-5.53,2.37,8.17,8.17,0,0,0-2.26,5.9,8.3,8.3,0,0,0,2.24,6,7.76,7.76,0,0,0,11.11,0,8.27,8.27,0,0,0,2.25-6,8.19,8.19,0,0,0-2.25-5.94A7.46,7.46,0,0,0,164,6.51Z"/><path class="a" d="M190,20v9.05h-7.12V.51h12.43c3.61,0,6.36.93,8.24,2.77a9.82,9.82,0,0,1,2.83,7.37A9.06,9.06,0,0,1,205,15.73a8.45,8.45,0,0,1-4,3.2l7.56,10.14H199.9l-6.31-9Zm0-13.14v7.48h5.58a3.73,3.73,0,0,0,2.6-1,3.48,3.48,0,0,0,1.12-2.69,3.54,3.54,0,0,0-1.11-2.76,3.72,3.72,0,0,0-2.61-1Z"/><path class="a" d="M232.2,6.88H217.49v4.63h13.07v6H217.49v5.22H232.2v6.36H210.35V.51H232.2Z"/><path class="a" d="M255.91,18.76l6.48,2.63a12.22,12.22,0,0,1-4.85,6.06,15.23,15.23,0,0,1-8.37,2.13,14.77,14.77,0,0,1-5.8-1.17,15.07,15.07,0,0,1-4.78-3.15,14.76,14.76,0,0,1-3.2-4.72,14.32,14.32,0,0,1,0-11.43,14.82,14.82,0,0,1,3.2-4.71,15.07,15.07,0,0,1,4.78-3.15,14.77,14.77,0,0,1,5.8-1.17,14.57,14.57,0,0,1,8,2.18,14.81,14.81,0,0,1,5.34,5.93l-6.61,2.63q-2.41-4.23-6.74-4.23a7.4,7.4,0,0,0-5.51,2.3,8.09,8.09,0,0,0-2.24,5.93,8.15,8.15,0,0,0,2.23,6,7.36,7.36,0,0,0,5.52,2.29,7.12,7.12,0,0,0,4.1-1.18A7.83,7.83,0,0,0,255.91,18.76Z"/><path class="a" d="M269.26,29.07h-7.92L276.16.51h1.75l14.82,28.56h-7.9l-1.93-3.83H271.13ZM277,12.76l-3.17,6.71h6.33Z"/></svg>