<?xml version="1.0" standalone="no"?>
<!DOCTYPE svg PUBLIC "-//W3C//DTD SVG 1.1//EN" "http://www.w3.org/Graphics/SVG/1.1/DTD/svg11.dtd" >
<svg xmlns="http://www.w3.org/2000/svg">
<metadata>Generated by IcoMoon</metadata>
<defs>
<font id="icomoon" horiz-adv-x="1024">
<font-face units-per-em="1024" ascent="960" descent="-64" />
<missing-glyph horiz-adv-x="1024" />
<glyph unicode="&#x20;" horiz-adv-x="512" d="" />
<glyph unicode="&#xe900;" glyph-name="surface1-62" horiz-adv-x="3183" d="M905.234 942.065l-252.21-676.484-27.036 137.475c-54.018 144.254-186.822 276.737-335.987 337.615l209.802-789.218h272.681l405.778 990.399zM1121.388-49.348l161.201 992.24h257.655l-161.228-992.24zM2313.688 918.339c-67.568 26.381-145.793 41.67-227.589 41.67-1.168 0-2.336-0.003-3.503-0.009l0.18 0.001c-254.746 0-434.042-134.646-435.616-327.526-1.521-142.572 128.107-222.132 225.761-269.558 100.377-48.627 134.085-79.72 133.711-123.116-0.721-66.455-80.067-96.694-154.209-96.694-103.179 0-157.972 14.999-242.869 52.017l-33.148 15.827-35.923-222.078c60.13-27.65 171.476-51.59 287.119-52.871 270.732 0 446.666 133.018 448.721 338.949 0.854 113.108-67.763 198.806-216.447 269.558-90.022 46.065-145.268 76.49-144.681 123.116 0 41.208 46.679 85.405 147.59 85.405 3.069 0.074 6.683 0.117 10.307 0.117 66.049 0 128.806-14.092 185.428-39.434l-2.881 1.152 23.166-11.289zM2656.747 302.465c21.351 57.061 102.646 277.271 102.646 277.271-1.495-2.669 21.218 57.435 34.162 94.639l17.455-85.538s49.428-236.864 59.676-286.452zM2974.505 941.852h-199.099c-61.785 0-108.037-17.535-135.073-82.202l-382.612-909.211h270.679s44.17 122.529 54.152 149.138l330.035-0.48c7.633-34.696 31.386-148.657 31.386-148.657h239.079l-208.414 991.413zM419.016 942.706h-415.573l-3.443-20.524c285.865-71.606 519.9-226.402 626.068-519.073l-90.369 455.9c-15.48 62.852-60.637 81.508-116.684 83.83z" />
<glyph unicode="&#xe901;" glyph-name="surface1-60" horiz-adv-x="3726" d="M3610.279 680.282l-8.649-26.612c-10.086-33.904-22.78-67.142-34.17-100.646-24.589-71.134-49.285-142.267-76.057-219.123-4.577 11.949-7.265 17.883-9.154 23.764l-109.402 322.457h-117.731c5.775-18.628 10.272-32.36 15.275-45.666 47.901-127.87 91.598-257.63 145.381-383.052 30.577-70.974 6.573-124.411-29.885-178.699-25.281-37.922-63.869-53.224-109.694-48.274-12.614 1.57-25.228 3.193-41.382 5.322-3.859-30.817-7.238-58.812-10.645-86.329 127.178-24.776 204.699 11.496 262.367 119.913 5.57 9.634 11.323 21.278 16.371 33.291l0.794 2.129c73.209 190.701 145.993 381.562 222.316 581.178zM780.767 859.753v0.266c-42.286-170.609-84.44-343.853-128.11-520.077-49.791 177.315-97.373 350.772-144.955 520.157h-122.415l-7.159-24.776c-26.612-100.407-54.9-204.459-82.204-304.573-17.165-63.123-33.824-126.566-51.255-192.191-41.967 166.644-83.482 333.687-123.639 496.845l-5.535 24.51h-115.496c56.79-219.761 112.302-466.241 168.507-683.367l134.337 0.16c40.663 145.647 83.588 330.893 122.601 476.726 5.003 18.628 8.463 37.629 12.854 57.508 39.625-144.077 77.973-284.535 116.88-425.019l30.657-109.455h132.261l98.89 406.417c23.472 90.081 47.050 184.234 71.134 276.764zM3563.815 860.019h13.146v88.91h30.471v11.071h-73.981v-11.071h30.364zM3630.584 902.838c0.852 15.089 1.783 31.695 1.783 44.123h0.373c2.661-11.842 6.626-24.589 11.39-38.853l16.233-47.582h9.74l17.697 48.434c5.109 13.812 8.995 26.426 12.614 37.922h0.346c0-12.268 0.958-29.273 1.623-43.085l2.342-43.963h12.774l-6.201 99.901h-16.499l-17.697-48.354c-4.577-12.587-7.984-23.578-10.645-33.664h-0.346c-2.661 10.352-5.881 21.29-10.086 33.664l-16.978 48.354h-16.313l-6.999-99.901h12.428zM3232.922 192.566c0 128.988 1.81 254.942-1.224 380.817-0.518 43.379-27.074 80.429-64.743 96.288l-0.696 0.26c-101.844 43.431-201.745 24.51-303.376-9.314 7.691-29.912 13.891-54.847 18.469-72.464 56.63 7.984 109.295 20.198 161.934 21.689 57.429 1.623 84.865-31.429 88.165-89.097 1.304-22.46-4.418-32.546-30.045-33.824-65.705-3.3-131.33-10.645-189.69-45.24-67.328-40.184-92.53-111.983-64.561-183.33 24.43-62.059 87.287-90.481 163.238-77.334 53.729 9.154 92.051 39.918 127.95 86.090v-74.513c32.52-0.027 63.23-0.027 94.579-0.027zM2999.323 260.426c-20.997 0.346-46.81 12.375-56.204 44.043-9.767 33.345-3.965 68.659 29.672 80.98 44.814 16.393 93.142 22.727 140.458 31.429 4.923 0.958 15.967-9.075 17.218-15.382 11.896-61.181-56.391-140.617-131.144-141.070zM1493.195 603.001v79.277h-95.803v-489.792h105.836c0 75.551-2.661 149.186 1.038 222.156 2.102 39.918 8.542 82.497 25.468 117.598 9.527 19.666 32.36 42.579 53.224 51.175 0 0 39.439 15.967 56.816 17.511v92.955c-68.712 0.293-111.371-36.565-146.578-90.88zM2221.217 688.053c-23.418 1.543-41.355 2.342-59.424 4.045-124.118 11.15-228.41-60.595-261.835-180.668-8.983-30.292-14.153-65.096-14.153-101.107 0-34.587 4.768-68.060 13.684-99.797l-0.622 2.592c28.555-106.102 114.724-159.672 219.681-126.912 41.355 12.614 76.057 45.693 110.706 67.594 1.889-71.852 1.889-71.852 92.982-60.516v672.882h-101.125c0.106-60.090 0.106-117.359 0.106-178.114zM2222.601 501.317c1.783-0.266-2.661-95.404-16.313-139.952-8.995-29.273-30.843-58.866-55.167-78.532-46.544-38.348-112.515-20.917-134.071 35.021-28.847 75.312-28.954 152.486 7.771 225.589 28.555 57.242 124.916 86.249 183.622 57.588 7.079-3.433 12.694-16.127 13.466-24.856 1.916-24.802 0.692-49.951 0.692-74.859zM1716.176 192.353h100.3v673.894h-100.3zM1171.43 687.441c-184.58 36.432-327.327-92.636-311.147-280.569 13.306-153.152 84.36-226.201 227.665-230.060 75.285 1.81 145.461 26.931 192.404 95.297 70.442 102.296 71.506 211.937 20.811 322.004-24.51 53.463-72.491 82.098-129.733 93.328zM1097.875 268.995c-80.368 0-145.647 74.513-145.647 166.271s65.279 166.191 145.647 166.191 145.727-74.513 145.727-166.191-65.359-166.271-145.727-166.271zM2664.199 855.788c-83.322 11.15-169.305 7.265-254.969 7.265v-670.78h106.714v234.025c62.432 12.002 121.058 15.701 174.308 34.968 96.681 35.394 143.252 122.415 134.337 230.406-7.265 85.451-62.272 150.996-160.39 164.116zM2690.252 578.039c-35.234-45.985-108.497-65.918-173.802-46.145v244.218c69.697 3.699 137.105 12.348 181.653-53.224 27.703-40.716 22.62-105.197-7.851-144.849z" />
<glyph unicode="&#xe902;" glyph-name="surface1-61" horiz-adv-x="3794" d="M2563.764 960h-292.476c-17.237 0-34.581-17.237-43.040-34.581l-120.422-756.981c0-17.237 8.565-25.803 25.803-25.803h154.897c17.237 0 25.803 8.565 25.803 25.803l34.581 215.068c0 17.237 17.237 34.581 43.040 34.581h94.646q296.759 0 335.49 283.911c17.237 77.408 0 146.305-34.342 189.265-51.818 42.827-129.333 68.737-223.979 68.737zM2598.345 676.089c-17.237-103.211-94.619-103.211-172.134-103.211h-51.606l34.581 197.857c0 8.565 8.565 17.237 25.803 17.237h17.237c51.606 0 103.185 0 128.988-34.368 17.237-8.778 17.237-34.581 17.237-77.515zM455.939 960h-292.609c-17.211 0-34.315-17.237-42.881-34.581l-120.449-756.981c0-17.237 8.565-25.803 25.803-25.803h137.659c17.237 0 34.581 17.237 43.040 34.581l34.581 206.502c0 17.237 17.237 34.581 43.040 34.581h94.646q296.759 0 335.517 283.911c17.237 77.408 0 146.305-34.581 189.265-51.712 42.615-120.555 68.524-223.766 68.524zM490.307 676.089c-17.237-103.211-94.619-103.211-172.028-103.211h-43.040l34.368 197.857c0 8.565 8.672 17.237 25.803 17.237h17.237c51.606 0 103.185 0 129.094-34.368 8.565-8.778 17.237-34.581 8.565-77.515zM1342.040 684.655h-137.659c-8.672 0-25.803-8.565-25.803-17.237l-8.565-43.040-8.565 17.237c-34.475 43.040-94.752 60.357-163.462 60.357-154.923 0-292.476-120.449-318.279-283.911-17.237-86.080 8.565-163.489 51.606-215.068s103.185-68.843 180.7-68.843c128.988 0 197.831 77.408 197.831 77.408l-8.565-43.12c0-17.237 8.672-25.803 25.803-25.803h129.014c17.237 0 34.368 17.237 42.934 34.581l77.382 481.848c-8.459 8.459-25.696 25.696-34.368 25.696zM1144.209 409.362c-17.237-77.408-77.408-137.686-163.462-137.686-43.040 0-77.408 17.237-94.646 34.368q-25.856 38.704-25.803 103.318c8.565 77.408 77.408 137.659 154.923 137.659 43.014 0 68.816-17.237 94.619-34.342 25.803-25.803 34.368-68.843 34.368-103.318zM3441.406 684.655h-137.58c-8.565 0-25.803-8.565-25.803-17.237l-8.778-43.040-8.565 17.237c-34.342 43.040-94.619 60.357-163.462 60.357-154.897 0-292.45-120.449-318.359-283.911-17.237-86.080 8.672-163.489 51.685-215.068s103.211-68.843 180.62-68.843c129.094 0 197.831 77.408 197.831 77.408l-8.565-43.040c0-17.237 8.565-25.803 25.803-25.803h129.014c17.237 0 34.581 17.237 43.014 34.581l77.408 481.848c-8.459 8.459-17.131 25.696-34.262 25.696zM3243.469 409.362c-17.237-77.408-77.408-137.686-163.462-137.686-43.040 0-77.408 17.237-94.646 34.368q-25.856 38.704-25.803 103.318c8.565 77.408 77.408 137.659 154.897 137.659 43.040 0 68.843-17.237 94.646-34.342 34.368-25.803 43.040-68.843 34.368-103.318zM2090.588 684.655h-146.305c-17.237 0-25.803-8.565-34.581-17.237l-189.159-292.609-85.921 275.372c-8.539 17.237-17.237 25.803-43.014 25.803h-137.686c-17.237 0-25.803-17.237-25.803-34.581l154.923-455.939-146.305-206.529c-8.565-17.237 0-43.040 17.237-43.040h137.686c17.237 0 25.803 8.565 34.581 17.237l473.123 679.679c25.696 25.909 8.459 51.712-8.778 51.712zM3604.789 934.091l-120.342-774.218c0-17.237 8.565-25.803 25.803-25.803h120.449c17.237 0 34.368 17.237 43.040 34.581l120.422 757.087c0 17.237-8.565 25.803-25.803 25.803h-137.659c-8.672 8.565-17.237 0-25.909-17.344z" />
<glyph unicode="&#xe903;" horiz-adv-x="3156" d="M1368.199-45.843h-257.235l160.605 989.022h257.609l-160.979-989.022z" />
<glyph unicode="&#xe904;" horiz-adv-x="3156" d="M894.048 943.179l-245.46-680.548-29.371 146.854-86.644 444.594c-9.643 51.524-54.27 89.998-107.883 89.998-4.938 0-9.8-0.326-14.565-0.959l0.559 0.061h-406.092l-4.593-16.821c102.17-25.951 191.942-64.803 273.531-115.569l-4.067 2.358 223.592-859.176h268.156l409.856 989.209z" />
<glyph unicode="&#xe905;" horiz-adv-x="3156" d="M2919.699-45.843h236.675l-206.45 989.022h-206.771c-2.824 0.24-6.111 0.377-9.43 0.377-49.315 0-91.572-30.22-109.262-73.152l-0.287-0.785-384.17-915.515h268.609l53.829 146.667h327.057zM2636.404 303.936l135.346 370.313 76.070-370.313z" />
<glyph unicode="&#xe906;" horiz-adv-x="3156" d="M2260.191 705.275l36.553 212.671c-68.743 24.972-148.103 40.231-230.777 42.039l-0.825 0.014c-126.108 0-431.27-55.911-431.27-327.431 0-255.553 356.455-258.997 356.455-393.035s-319.474-110.114-424.996-25.633l-38.235-221.91c82.145-35.401 177.775-55.988 278.214-55.988 4.293 0 8.577 0.038 12.853 0.113l-0.643-0.009c175.718 0 440.936 91.21 440.936 338.806 0 257.235-359.392 281.239-359.392 393.035s250.96 98.285 361.127 37.328z" />
<glyph unicode="&#xe907;" horiz-adv-x="3156" d="M619.137 409.351l-86.564 444.727c-9.643 51.524-54.27 89.998-107.883 89.998-4.938 0-9.8-0.326-14.565-0.959l0.559 0.061h-406.092l-4.593-16.821c146.948-38.102 274.971-104.313 383.902-193.064l-1.814 1.432c104.811-84.631 186.11-194.333 235.249-320.14l1.801-5.236z" />
<glyph unicode="&#xe908;" glyph-name="surface1-59" horiz-adv-x="2504" d="M847 621.093h-91.886v-101.325h91.886c36.397 0 61.595 12.879 61.595 49.303 0 38.584-26.878 52.023-61.595 52.023zM843.614 779.614h-89.006v-84.58h89.060c19.625 0 47.063 10.666 47.063 42.023-0.133 31.918-23.012 42.557-47.116 42.557zM1264.328 746.683h-1.12l-49.969-154.655h100.259zM527.692 272.054h-62.742v-68.341h66.075c23.998 0 36.424 12.879 36.424 35.837 0.507 22.452-17.359 32.504-39.757 32.504zM816.176 251.362h-1.12l-34.184-106.418h68.928zM2284.968 272.054h-62.742v-68.341h66.661c23.998 0 36.397 12.879 36.397 35.837 0 22.452-17.919 32.504-40.317 32.504zM2493.912 73.803c-0.56 5.6-1.68 14.559-2.24 26.318 0.022 0.359 0.034 0.778 0.034 1.201 0 1.76-0.217 3.47-0.625 5.103l0.031-0.145v1.68c-1.877 23.041-6.842 44.364-14.505 64.35l0.533-1.582c11.276 23.105 17.883 50.267 17.919 78.968v0.012c0 41.463-12.879 77.887-36.424 107.005 9.497 7.892 17.366 17.361 23.29 28.056l0.255 0.502c6.547 12.221 10.393 26.735 10.393 42.147 0 19.223-5.983 37.048-16.188 51.716l0.196-0.297-142.309 207.264 112.605 119.991c15.577 16.253 25.167 38.351 25.167 62.688 0 50.070-40.59 90.66-90.66 90.66-0.026 0-0.053 0-0.079 0h-142.838c-27.419-0.2-51.978-12.278-68.815-31.338l-0.086-0.099-3.92-4.48c-16.572 22.194-42.749 36.424-72.252 36.477h-114.88c-14.258-0.056-27.733-3.356-39.742-9.198l0.545 0.239c-11.463 5.61-24.939 8.911-39.181 8.959h-108.141c-32.484-0.137-60.96-17.172-77.105-42.766l-0.222-0.378c-16.014 26.042-44.353 43.145-76.688 43.145-0.206 0-0.412-0.001-0.618-0.002h-118.172c-50.070 0-90.66-40.59-90.66-90.66v0-26.345l-21.865 57.702c-13.263 34.556-46.136 58.656-84.65 58.742h-116.535c-38.548-0.012-71.446-24.187-84.373-58.202l-0.207-0.62-31.998-85.7c-12.879 47.623-42.663 85.7-86.847 110.925-39.117 22.398-89.54 33.597-148.788 33.597h-212.997c-0.263 0.003-0.575 0.005-0.887 0.005-12.459 0-24.292-2.682-34.952-7.5l0.535 0.216c-10.406 4.516-22.517 7.184-35.241 7.279h-479.065c-50.070 0-90.66-40.59-90.66-90.66v0-95.886c0.074-13.821 3.162-26.903 8.638-38.647l-0.239 0.57c-5.303-10.997-8.401-23.913-8.401-37.552 0-0.194 0.001-0.388 0.002-0.582v0.030-95.779c0.054-13.875 3.143-27.015 8.638-38.808l-0.239 0.571c-5.302-10.987-8.4-23.892-8.4-37.52 0-0.149 0-0.298 0.001-0.446v0.023-95.806c-0.002-0.191-0.002-0.416-0.002-0.641 0-16.773 4.796-32.426 13.092-45.662l-0.211 0.36c-7.954-13.12-12.722-28.945-12.879-45.872v-68.385c0-50.070 40.59-90.66 90.66-90.66v0-145.082c0-50.070 40.59-90.66 90.66-90.66v0h79.167c0.143-0.001 0.312-0.001 0.482-0.001 24.208 0 46.171 9.609 62.284 25.222l-0.023-0.023c16.081-15.59 38.038-25.199 62.239-25.199 0.177 0 0.354 0.001 0.53 0.002h78.953c0.032 0 0.070 0 0.108 0 21.414 0 41.103 7.383 56.662 19.742l-0.187-0.144c15.119-12.211 34.573-19.602 55.753-19.602 0.292 0 0.583 0.001 0.874 0.004h165.275c0.005 0 0.010 0 0.016 0 29.094 0 54.981 13.733 71.532 35.071l0.154 0.206c16.725-21.526 42.607-35.252 71.697-35.277h82.371c0.555-0.015 1.208-0.023 1.863-0.023 3.291 0 6.533 0.212 9.712 0.623l-0.376-0.040c2.665-0.372 5.745-0.584 8.874-0.584 0.63 0 1.258 0.009 1.884 0.026l-0.092-0.002h74.501c0.146-0.001 0.319-0.001 0.493-0.001 19.886 0 38.251 6.516 53.075 17.529l-0.239-0.169c14.57-10.843 32.92-17.36 52.792-17.36 0.142 0 0.284 0 0.426 0.001h81.118c0.014 0 0.030 0 0.046 0 20.193 0 38.83 6.658 53.837 17.9l-0.234-0.168c32.504-15.679 71.141-23.998 114.844-23.998s83.46 8.399 116.524 23.518c14.585-10.682 32.835-17.163 52.589-17.358h79.054c48.738 0.044 88.437 38.688 90.175 87.008l0.005 0.159c1.628-48.58 41.384-87.347 90.203-87.38h246.464c7.994 0.075 15.714 1.091 23.103 2.944l-0.678-0.144c6.703-1.708 14.414-2.725 22.35-2.799h79.028c21.477 0.013 41.215 7.446 56.793 19.873l-0.184-0.142c15.113-12.211 34.56-19.603 55.734-19.603 0.298 0 0.596 0.001 0.894 0.004h78.376c37.145 0.143 69.052 22.42 83.229 54.32l0.231 0.582c5.306 10.724 8.41 23.351 8.41 36.702 0 14.669-3.747 28.463-10.337 40.477l0.22-0.438zM90.66 786.334v82.34h479.029v-95.779h-479.029zM90.66 613.814v82.207h479.029v-95.806h-479.029zM90.66 509.609v13.999h479.029v-95.779h-479.029zM350.586 267.627h-90.1v-235.848h-79.567v235.848h-90.26v67.755h259.926zM578.035 31.779c-2.48 4.537-4.263 9.826-5.039 15.437l-0.027 0.242c-1.566 8.63-2.765 19.024-3.332 29.585l-0.028 0.652v2.24c-2.24 30.824-7.279 62.182-44.237 62.182h-59.862v-110.338h-78.874v303.603h154.655c0.499 0.015 1.087 0.023 1.676 0.023 2.964 0 5.879-0.212 8.729-0.621l-0.326 0.038c2.24 0 4.48-0.56 6.719-0.56h3.36c2.8-0.56 5.6-0.56 7.839-1.12h1.68c42.023-7.839 76.741-33.037 76.741-82.9 0-22.398-7.279-44.263-22.398-59.942-1.68-1.68-3.36-2.666-5.040-4.48-0.56-0.56-1.12-1.12-1.68-1.12-1.153-1.020-2.436-1.946-3.806-2.739l-0.114-0.061c-0.526-0.671-1.331-1.103-2.237-1.12h-0.003c-1.121-0.914-2.418-1.671-3.824-2.208l-0.096-0.032c-0.56-0.56-1.12-0.56-1.68-1.12-1.918-1.075-4.144-2.027-6.477-2.736l-0.243-0.063v-0.56l5.040-1.68c0.56 0 1.12-0.56 1.68-0.56l3.36-1.68c0.56 0 1.12-0.56 1.68-0.56 1.12-0.56 2.24-1.68 3.36-2.24l0.56-0.56c19.598-13.999 26.318-42.023 27.998-65.542 1.12-12.879 2.24-57.702 12.906-68.341zM901.236 31.779h-13.999l-18.479 54.342h-105.805l-15.679-45.33-3.333-9.013h-81.247l113.698 303.63h80.687l113.698-303.63zM952.219 445.080c-6.197-2.832-13.646-5.509-21.338-7.594l-1.060-0.245h-0.56c-7.839-2.24-15.679-3.92-23.545-5.6h-1.12c-3.92-0.56-7.839-1.12-12.319-1.68h-1.12c-3.92-0.56-7.839-0.56-11.759-1.12h-1.12c-3.027-0.375-6.532-0.589-10.086-0.589-0.785 0-1.568 0.010-2.348 0.031l0.115-0.002h-226.782v441.512h237.528c0.192 0.014 0.417 0.022 0.643 0.022 1.176 0 2.302-0.213 3.342-0.603l-0.066 0.022c0.164 0.014 0.355 0.021 0.548 0.021 1.017 0 1.983-0.214 2.857-0.599l-0.045 0.018c0.192 0.014 0.417 0.022 0.643 0.022 1.176 0 2.302-0.213 3.342-0.603l-0.066 0.022c0.164 0.014 0.355 0.021 0.548 0.021 1.017 0 1.983-0.214 2.857-0.599l-0.045 0.018c1.12 0 2.8-0.56 3.92-0.56s2.24-0.56 3.36-0.56 2.24-0.56 3.92-0.56c1.12 0 2.266-0.56 3.386-0.56s2.24-0.56 3.92-0.56c1.12 0 2.24-0.56 3.36-0.56s2.24-0.587 3.92-0.587c1.096-0.154 2.044-0.35 2.97-0.599l-0.17 0.039c1.12-0.56 2.24-0.56 3.36-1.12 1.055-0.161 1.956-0.357 2.837-0.6l-0.171 0.040c1.12-0.56 2.24-0.56 3.36-1.12s1.68-0.56 2.666-1.12 2.24-0.56 3.36-1.12 1.68-0.56 2.666-1.093 2.24-0.587 3.36-1.12 1.68-0.587 2.666-1.12l3.36-1.68c1.12-0.56 1.68-0.56 2.666-1.12l3.36-1.68c1.12-0.56 1.68-1.12 2.8-1.12 1.069-0.466 1.991-1.029 2.824-1.698l-0.024 0.018c0.56-0.56 1.68-1.12 2.24-1.68 1.12-0.56 1.68-1.12 2.666-1.68 0.56-0.587 1.68-1.12 2.24-1.68 1.092-0.602 2.018-1.359 2.789-2.253l0.011-0.013c0.56-0.56 1.68-1.12 2.24-1.68 1.12-0.56 1.68-1.68 2.8-2.24 0.56-0.56 1.68-1.12 2.266-1.68l6.719-6.719c0.56-0.56 1.12-1.68 1.68-2.24 0.603-1.039 1.349-1.921 2.224-2.654l0.015-0.013c0.56-0.56 1.12-1.68 1.68-2.24 0.56-1.12 1.12-1.68 1.68-2.666 0.56-0.56 1.12-1.68 1.68-2.24 0.469-1.018 1.030-1.896 1.694-2.684l-0.014 0.018c0.56-1.12 1.12-1.68 1.12-2.8l1.68-3.36c0.56-1.12 0.56-1.68 1.12-2.666 0.592-0.962 0.992-2.103 1.117-3.326l0.003-0.034c0.56-1.12 0.56-1.707 1.12-2.666 0.377-1.032 0.762-2.353 1.073-3.702l0.047-0.245c0.56-1.12 0.56-2.24 1.12-2.8 0.56-1.12 0.56-2.8 1.12-3.92 0.161-1.055 0.357-1.956 0.6-2.837l-0.040 0.171c0-1.68 0.56-2.666 0.56-4.48 0.161-1.055 0.357-1.956 0.6-2.837l-0.040 0.171c0-1.68 0.56-3.36 0.56-5.040v-11.199c0-39.784-23.518-71.701-58.262-89.060l10.106-3.36c1.093-0.56 1.68-0.56 2.8-1.12 2.24-1.12 4.48-2.24 7.279-3.36 1.12-0.56 1.68-1.12 2.666-1.12l8.399-5.040h0.56l9.333-7.733 0.56-0.587c2.401-2.124 4.595-4.318 6.65-6.639l0.070-0.080c0-0.56 0.56-0.56 0.56-1.12 7.213-7.65 13.233-16.529 17.696-26.27l0.25-0.608c6.371-13.792 10.086-29.931 10.086-46.937 0-0.438-0.002-0.876-0.007-1.312l0.001 0.067c-0.613-65.995-28.611-102.979-71.754-122.017zM1253.529 31.779h-81.087l-105.298 189.319h-1.12v-189.319h-74.501v303.603h81.22l105.298-187.079h1.12v187.079h74.501zM1186.574 506.702l-27.998-78.98h-118.337l165.267 441.619h116.498l106.445-284.564 58.262-156.281h-119.324l-27.438 78.98h-153.375v-0.773zM1473.832 31.219v0c-3.36-0.56-6.719-1.68-10.079-2.24h-0.56c-6.186-1.12-12.906-2.24-19.625-2.666h-1.013c-2.8 0-6.16-0.56-8.959-0.56h-22.398c-2.8 0-6.16 0.56-8.959 0.56h-1.68c-2.8 0.56-6.16 0.56-8.959 1.12h-0.56c-2.666 0.56-6.16 1.12-8.959 1.68-0.076-0.010-0.165-0.016-0.254-0.016-0.554 0-1.057 0.22-1.426 0.576l0.001-0.001c-3.41 0.547-6.427 1.326-9.326 2.353l0.367-0.113h-0.56c-3.248 0.773-6.058 1.733-8.742 2.925l0.316-0.125h-0.56l-8.399 3.36c-0.56 0-0.56 0.56-1.12 0.56-2.992 1.056-5.582 2.38-7.959 3.996l0.119-0.076c-31.998 16.265-53.782 45.943-53.782 91.886h79.007c1.68-35.864 23.998-47.063 57.702-47.063 23.998 0 48.716 8.399 48.716 30.824 0 26.878-43.117 31.998-87.38 44.237l-10.239 3.226c-0.56 0-1.12 0.56-1.68 0.56-12.081 3.673-22.478 8.056-32.305 13.36l0.921-0.454c-25.758 13.332-44.797 34.664-44.797 71.141 0 38.637 22.958 63.995 52.663 77.861 0.56 0 0.56 0.56 1.12 0.56 2.8 1.12 5.040 2.24 7.839 3.36 0.56 0 0.56 0.56 1.12 0.56 2.666 1.12 5.6 1.68 8.399 2.666h1.12c15.25 4.62 32.777 7.28 50.925 7.28 0.208 0 0.415 0 0.623-0.001h-0.032c0.062 0 0.135 0 0.209 0 14.649 0 28.868-1.838 42.441-5.296l-1.186 0.256c43.703-11.199 79.54-40.344 79.994-92.979h-78.821c1.12 27.438-24.638 36.397-48.743 36.397-16.799 0-38.077-6.16-38.077-25.758 0-23.545 43.677-27.465 87.993-39.784 3.611-0.902 6.599-1.861 9.504-2.985l-0.545 0.185h0.56c40.344-12.879 78.98-33.597 78.98-85.14-2.24-57.009-37.597-85.593-82.954-96.232zM1815.538 272.054h-144.522v-62.128h124.897v-61.062h-124.897v-117.084h-79.007v303.603h223.529zM1782.474 427.215l-153.481 275.099h-1.12v-275.045h-107.992v440.846h118.204l153.481-271.685h1.12v271.685h108.125v-441.406h-118.337v0.56zM2097.863 31.779h-245.927v303.603h242.648v-63.328h-163.081v-53.329h148.335v-61.062h-148.335v-57.702h167zM2140.526 612.694l-47.063-49.303v-135.989h-114.951v441.272h114.844v-169.16l145.082 169.16h142.842l-162.974-173.64 183.719-267.766h-142.842zM2335.471 31.779c-6.746 10.079-7.999 39.784-8.986 48.743-2.24 30.798-7.279 62.182-44.237 62.182h-60.022v-110.365h-78.98v303.043h155.241c53.782 0 106.445-23.998 106.445-85.7 0-33.037-15.679-63.862-47.623-76.181v-0.56c32.477-7.839 41.463-43.703 44.263-72.821 1.12-12.879 2.24-57.702 12.879-68.341z" />
<glyph unicode="&#xe909;" horiz-adv-x="1711" d="M795.417 763.637h271.996v27.811h-248.353l-23.644-27.811z" />
<glyph unicode="&#xe90a;" horiz-adv-x="1711" d="M1197.761-64l26.476 0.695 26.048 1.897 25.728 3.366 25.38 4.542 24.686 5.61 24.312 6.813 23.804 8.202 23.27 9.083 22.762 10.339 22.254 11.247 21.319 12.557 20.999 13.144 19.957 14.347 19.236 15.228 18.728 16.11 17.873 17.178 16.991 17.633 16.056 18.728 15.255 19.262 14.373 20.090 13.278 20.839 12.423 21.533 11.194 22.094 10.339 22.735 9.297 23.457 8.042 23.804 6.973 24.285 5.61 24.712 4.568 25.407 3.126 25.514 1.95 26.075 0.695 26.422-0.695 26.262-1.95 25.915-3.126 25.541-4.568 25.060-5.61 24.632-6.973 24.151-8.042 23.964-9.297 23.136-10.339 22.548-11.194 22.228-12.423 21.213-13.278 20.812-14.373 20.144-15.255 19.075-16.056 18.728-16.991 17.633-17.873 17.018-18.728 16.056-19.236 15.255-19.957 14.373-20.999 13.305-21.319 12.209-22.254 11.221-22.762 10.312-23.27 9.137-23.804 8.229-24.312 6.786-24.686 5.771-25.38 4.381-25.728 3.34-26.048 1.924-26.476 0.695-26.208-0.695-26.102-1.924-25.541-3.34-25.22-4.381-24.659-5.771-24.338-6.786-23.617-8.229-23.27-9.137-22.762-10.312-21.88-11.221-21.346-12.209-20.812-13.305-19.957-14.373-19.423-15.255-18.381-16.056-17.873-17.018-16.991-17.633-15.896-18.728-15.255-19.075-14.16-20.144-13.305-20.812-12.236-21.213-11.408-22.228-10.312-22.548-9.083-23.136-7.881-23.964-7-24.151-5.584-24.632-4.568-25.060-3.34-25.541-1.897-25.915-0.695-26.262 0.695-26.422 1.897-26.075 3.34-25.514 4.568-25.407 5.584-24.712 7-24.285 7.881-23.804 9.083-23.457 10.312-22.735 11.408-22.094 12.236-21.533 13.305-20.839 14.16-20.090 15.255-19.262 15.896-18.728 16.991-17.633 17.873-17.178 18.381-16.11 19.423-15.228 19.957-14.347 20.812-13.144 21.346-12.557 21.88-11.247 22.762-10.339 23.27-9.083 23.617-8.202 24.338-6.813 24.659-5.61 25.22-4.542 25.541-3.366 26.102-1.897 26.208-0.695z" />
<glyph unicode="&#xe90b;" horiz-adv-x="1711" d="M512.948-64l26.262 0.695 26.048 1.897 25.567 3.366 25.193 4.542 24.712 5.61 24.338 6.813 23.617 8.202 23.43 9.083 22.602 10.339 21.88 11.247 21.48 12.557 20.678 13.144 19.957 14.347 19.396 15.228 18.541 16.11 17.739 17.178 16.965 17.633 16.083 18.728 15.228 19.262 13.973 20.090 13.305 20.839 12.263 21.533 11.541 22.094 10.179 22.735 9.083 23.457 7.908 23.804 6.973 24.285 5.771 24.712 4.381 25.407 3.34 25.514 1.924 26.075 0.695 26.422-0.695 26.262-1.924 25.915-3.34 25.541-4.381 25.060-5.771 24.632-6.973 24.151-7.908 23.964-9.083 23.136-10.179 22.548-11.541 22.228-12.263 21.213-13.305 20.812-13.973 20.144-15.228 19.075-16.083 18.728-16.965 17.633-17.739 17.018-18.541 16.056-19.396 15.255-19.957 14.373-20.678 13.305-21.48 12.209-21.88 11.221-22.602 10.312-23.43 9.137-23.617 8.229-24.338 6.786-24.712 5.771-25.193 4.381-25.567 3.34-26.048 1.924-26.262 0.695-26.422-0.695-26.075-1.924-25.567-3.34-25.354-4.381-24.846-5.771-24.365-6.786-23.804-8.229-23.243-9.137-22.789-10.312-22.041-11.221-21.533-12.209-20.785-13.305-20.144-14.373-19.289-15.255-18.728-16.056-17.659-17.018-17.125-17.633-16.11-18.728-15.201-19.075-14.373-20.144-13.278-20.812-12.476-21.213-11.167-22.228-10.312-22.548-9.137-23.136-8.229-23.964-6.839-24.151-5.771-24.632-4.381-25.060-3.286-25.541-1.95-25.915-0.668-26.262 0.668-26.422 1.95-26.075 3.286-25.514 4.381-25.407 5.771-24.712 6.839-24.285 8.229-23.804 9.137-23.457 10.312-22.735 11.167-22.094 12.476-21.533 13.278-20.839 14.373-20.090 15.201-19.262 16.11-18.728 17.125-17.633 17.659-17.178 18.728-16.11 19.289-15.228 20.144-14.347 20.785-13.144 21.533-12.557 22.041-11.247 22.789-10.339 23.243-9.083 23.804-8.202 24.365-6.813 24.846-5.61 25.354-4.542 25.567-3.366 26.075-1.897 26.422-0.695z" />
<glyph unicode="&#xe90c;" horiz-adv-x="1711" d="M754.622 701.843h312.792v27.811h-296.308l-16.484-27.811z" />
<glyph unicode="&#xe90d;" horiz-adv-x="1711" d="M724.379 640.075h343.034v27.838h-330.959l-12.076-27.838z" />
<glyph unicode="&#xe90e;" horiz-adv-x="1711" d="M703.327 578.281h364.087v27.865h-355.297l-8.79-27.865z" />
<glyph unicode="&#xe90f;" horiz-adv-x="1711" d="M715.429 279.542h352.839v27.811h-361.415l8.576-27.811z" />
<glyph unicode="&#xe910;" horiz-adv-x="1711" d="M741.531 217.748h326.737v27.811h-339.695l12.957-27.811z" />
<glyph unicode="&#xe911;" horiz-adv-x="1711" d="M778.079 156.007h290.19v27.811h-307.502l17.312-27.811z" />
<glyph unicode="&#xe912;" horiz-adv-x="1711" d="M828.706 94.186h239.563v28.025h-263.901l24.338-28.025z" />
<glyph unicode="&#xe913;" horiz-adv-x="1711" d="M691.118 516.674h376.296v27.811h-370.872l-5.423-27.811z" />
<glyph unicode="&#xe914;" horiz-adv-x="1711" d="M920.582 341.149h143.492v27.838h-138.416l-5.076-27.838z" />
<glyph unicode="&#xe915;" horiz-adv-x="1711" d="M931.91 402.917h132.164v27.865h-127.088l-5.076-27.865z" />
<glyph unicode="&#xe916;" horiz-adv-x="1711" d="M681.687 430.781h37.242v-27.865h-35.506l-1.737 27.865z" />
<glyph unicode="&#xe917;" horiz-adv-x="1711" d="M612.012 464.524l-2.458 0.187-6.839 1.042-2.111 0.347-2.244 0.374-2.111 0.347-4.889 0.695-2.805 0.16-3.152 0.16-3.179 0.214h-3.66l-4.007-0.214-9.457-0.668-3.5-0.534-3.313-0.534-2.965-1.042-2.458-1.042-2.458-1.202-2.271-1.416-1.763-1.763-1.603-1.576-0.988-1.924-0.908-1.737-0.347-2.137v-2.057l0.534-2.298 0.721-2.271 1.389-2.271 1.737-2.111 3.5-3.313 4.194-2.645 4.729-2.271 5.236-1.897 5.423-1.763 5.824-1.763 5.771-2.084 5.397-2.324 5.236-2.912 4.729-3.714 4.408-4.168 3.687-5.423 2.752-6.519 1.763-7.855 0.534-9.27-0.534-10.847-1.202-8.229-2.137-7.026-2.778-6.439-3.473-5.824-3.901-5.076-4.542-4.168-4.862-3.847-5.263-3.313-5.584-2.672-5.824-2.057-5.771-1.763-6.091-1.416-5.771-1.015-5.824-0.534-5.584-0.347-5.423-0.187h-7.347l-6.973 0.187h-5.984l-5.771 0.16-5.076 0.187-4.729 0.347-4.221 0.374-3.82 0.481-3.66 0.347-3.366 0.721-3.313 0.508-2.752 0.882-3.019 0.721-2.805 1.042-2.805 0.855-2.965 1.069 7.881 38.151 1.55-0.347 1.763-0.347 2.458-0.721 2.965-0.855 3.152-0.534 3.5-0.695 3.687-0.882 4.221-0.695 4.381-0.695 4.355-0.721 4.729-0.534 4.916-0.481 4.916-0.214 5.023-0.16h4.916l5.049 0.16 5.076 1.042 3.874 1.416 3.179 1.95 2.431 2.244 1.737 2.485 1.389 2.778 0.882 2.778 0.721 2.672 0.347 4.862-1.603 4.381-2.965 3.5-4.355 2.965-5.076 2.458-6.145 2.618-6.652 2.458-6.839 2.805-6.813 2.992-6.652 3.687-5.958 4.515-5.557 5.29-4.381 6.599-3.019 7.748-1.55 9.431 0.187 11.007 0.855 6.679 1.229 6.465 1.763 5.771 1.924 5.584 2.778 5.076 3.152 4.568 3.66 4.408 4.221 3.66 5.076 3.313 5.423 2.805 6.332 2.618 6.786 1.924 7.881 1.603 8.416 1.202 9.297 0.508 10.312 0.347h6.305l5.931-0.347 5.263-0.16 9.297-0.347 7.32-0.721 6.118-0.668 2.458-0.534 2.111-0.347 2.057-0.347 1.763-0.347 1.603-0.187 1.55-0.347 1.416-0.187-8.923-39.032z" />
<glyph unicode="&#xe918;" horiz-adv-x="1711" d="M652.967 546.248h47.955l-7.187-41.811h28.88l-6.278-39.032-30.296 0.882-16.644-96.418-0.16-3.5 0.908-3.019 1.71-2.057 2.298-1.95 2.965-1.229 3.473-1.015 3.847-0.721 4.088-0.347 3.82 0.187 3.5 0.347 3.152 0.534 2.618 0.668 2.271 0.695 1.603 0.534 1.015 0.347 0.347 0.187-5.931-32.22-1.256-0.855-1.229-0.721-1.176-0.508-1.256-0.695-1.229-0.534-1.363-0.508-1.576-0.508-1.603-0.561-1.71-0.534-1.763-0.347-1.977-0.374-2.084-0.347-2.271-0.347-2.618-0.347-2.778-0.294-2.832-0.374h-13.118l-7.026 0.508-5.904 0.695-5.61 1.069-4.542 1.256-4.061 1.55-3.313 1.55-2.965 2.137-2.271 2.244-1.763 2.458-1.229 2.965-0.721 2.965-0.481 3.179-0.16 3.66v3.847l0.481 3.847 0.534 4.381 32.914 188.482z" />
<glyph unicode="&#xe919;" horiz-adv-x="1711" d="M1172.568 493.938l-2.084 1.202-2.271 1.069-2.485 1.229-2.591 1.229-2.645 1.042-2.778 1.069-6.145 2.084-3.313 0.882-3.313 0.695-3.527 0.695-3.66 0.561-4.007 0.347-3.874 0.294h-12.744l-4.568-0.294-4.729-0.534-4.702-0.882-4.916-1.416-4.729-1.897-4.916-2.458-4.889-2.965-4.542-3.847-4.542-4.568-4.408-5.584-4.034-6.332-3.847-7.507-3.66-8.763-3.313-9.618-2.672-11.060-0.988-6.278-0.721-5.958-0.347-6.091 0.16-5.824 0.534-5.931 1.015-5.397 1.603-5.29 1.924-5.236 2.645-4.542 3.099-4.568 3.74-4.007 4.007-3.5 4.729-3.152 5.263-2.618 5.904-2.298 8.763-2.084 2.645-0.534 3.126-0.347 3.527-0.347 3.66-0.347h8.416l4.355 0.347 8.95 1.416 4.168 1.176 4.381 1.416 4.355 1.924 3.874 2.298 3.714 2.778 3.473 2.992-7.694-46.032-1.042-0.855-1.069-1.069-1.416-1.256-1.55-0.988-1.95-1.416-2.404-1.256-2.832-1.042-2.992-1.042-4.007-1.229-4.542-0.882-5.076-0.721-6.118-0.695-6.652-0.294-7.908-0.187-8.736 0.187-9.644 0.481-8.015 0.855-7.881 1.817-7.908 2.404-8.015 3.527-7.534 4.168-7.374 5.29-6.786 5.904-6.519 6.839-5.584 7.881-4.916 8.576-4.168 9.618-2.965 10.713-2.111 11.488-0.721 12.316 0.321 13.438 1.977 14.373 1.389 6.973 1.389 7.026 1.763 6.626 1.737 6.492 1.924 5.958 2.298 6.118 2.244 5.584 2.458 5.423 2.645 5.263 2.431 5.076 2.992 4.916 3.126 4.381 3.179 4.355 3.313 4.221 3.5 3.66 3.66 3.66 3.874 3.527 4.034 3.313 4.194 2.805 4.221 2.778 4.675 2.645 4.755 2.271 4.729 2.111 5.076 1.924 5.423 1.576 5.21 1.363 5.61 1.256 5.797 1.069 5.958 0.828 6.118 0.721 6.305 0.347 6.465 0.187 5.61-0.187 5.236-0.347 5.263-0.534 5.236-0.668 4.755-0.695 4.702-1.069 4.542-0.908 4.007-1.015 4.061-1.042 3.5-0.882 3.34-1.069 2.591-1.069 2.485-0.855 2.057-0.695 1.603-0.695 1.069-0.347-8.79-47.955z" />
<glyph unicode="&#xe91a;" horiz-adv-x="1711" d="M1597.861 319.456h-47.929l3.5 19.102v1.71l-2.832-3.313-2.805-3.126-2.939-2.832-3.179-2.431-3.152-2.324-2.965-1.71-3.179-1.55-3.313-1.603-3.313-1.256-3.152-0.855-3.313-0.855-3.473-0.534-3.34-0.534-3.34-0.347-3.5-0.187h-3.473l-8.95 0.695-8.202 1.95-7.748 2.965-6.786 3.82-6.332 5.076-5.61 5.824-4.729 6.465-4.168 7.187-3.313 7.828-2.859 8.068-1.897 8.603-1.416 8.736-0.508 8.736 0.16 9.11 0.908 8.763 1.603 8.736 2.591 10.339 2.965 9.644 3.687 8.736 4.381 8.229 4.355 7.855 5.263 6.813 5.423 6.332 5.61 5.557 6.118 5.076 6.305 4.408 6.652 3.687 6.492 2.965 6.973 2.458 6.839 1.55 6.973 1.069 7.026 0.347 5.076-0.16 4.729-0.534 4.515-0.882 4.221-1.256 3.847-1.389 3.5-1.55 3.5-1.924 3.152-1.95 2.618-1.924 2.645-2.244 2.244-2.324 2.137-2.244 1.737-2.271 1.576-2.298 1.389-1.924 0.908-2.084 12.209 67.912h46.94l-39.059-225.938z" />
<glyph unicode="&#xe91b;" horiz-adv-x="1711" d="M1519.636 361.293l4.729 0.347 4.542 1.015 4.221 1.256 4.007 1.763 3.5 2.084 3.5 2.618 3.313 2.965 2.805 3.152 2.618 3.34 2.458 3.847 2.271 4.007 1.924 4.034 1.763 4.355 1.416 4.568 1.229 4.568 0.828 4.729 0.721 4.702 0.534 5.076v4.729l-0.187 4.916-0.508 4.355-0.561 4.381-1.176 4.007-1.416 4.034-1.763 3.527-2.057 3.313-2.324 2.778-2.591 2.298-2.992 2.084-2.992 1.416-3.313 0.855-3.66 0.401-4.568-0.401-4.355-0.668-4.034-1.416-3.874-1.737-3.5-2.271-3.473-2.645-3.019-2.992-2.752-3.313-2.645-3.66-2.431-4.007-2.298-4.221-1.924-4.542-1.763-4.568-1.176-4.729-1.416-5.076-1.069-4.862-0.855-7.748 0.347-8.229 1.229-8.389 2.244-8.229 3.366-7 4.542-5.744 5.61-3.714 6.973-1.363z" />
<glyph unicode="&#xe91c;" horiz-adv-x="1711" d="M459.035 357.766l-7-38.311h-43.36l1.176 7 0.882 6.465 0.534 4.916 0.882 2.431-2.458-2.618-2.778-2.805-3.34-2.618-3.687-2.458-4.034-2.458-4.355-2.084-4.568-1.924-4.568-1.763-5.076-1.576-4.862-1.202-5.076-1.069-5.263-0.695-4.889-0.347-5.103-0.187-4.862 0.534-4.568 0.695-6.145 1.576-5.423 1.737-4.916 2.298-4.355 2.431-3.66 2.832-3.527 3.152-2.752 3.313-2.485 3.34-1.95 3.66-1.71 3.847-1.416 3.66-1.042 3.847-0.695 4.034-0.508 4.034-0.347 3.847v3.687l0.508 6.839 1.042 6.252 1.763 6.171 2.271 5.771 2.645 5.557 3.126 4.889 3.66 4.916 4.221 4.381 4.221 3.874 4.916 3.66 4.862 3.313 5.21 2.805 5.477 2.298 5.771 1.924 5.958 1.55 5.931 1.069h0.321l0.908 0.187 1.202 0.16 1.977 0.187 2.084 0.347 2.458 0.16 2.431 0.374 2.939 0.347 3.019 0.321 2.965 0.347 3.152 0.16 2.618 0.401 2.805 0.16 2.618 0.187 2.458 0.16h5.771l4.221-0.16 3.82-0.187h3.66l3.179-0.16 2.431-0.214 1.763-0.187h0.561l0.321 1.256 1.042 3.152 0.695 3.527 0.347 3.313-0.695 3.82-1.389 3.5-2.111 2.992-2.778 2.591-3.366 2.324-3.473 1.55-4.194 1.042-4.568 0.374-4.729 0.187-5.236 0.16h-5.423l-5.397-0.16-5.797-0.374-5.423-0.534-5.61-0.508-5.263-0.721-5.236-0.668-5.076-0.855-4.408-0.908-4.168-0.908-3.847-1.015-3.126-1.042-2.324-1.202-1.897-1.095 12.236 41.65 3.874 1.603 3.66 1.416 4.194 1.202 4.221 0.855 4.194 0.908 8.896 1.416 4.568 0.347 4.916 0.294 5.076 0.187 5.076 0.16h16.617l5.958-0.16 6.118-0.187 4.889-0.294 5.076-0.908 5.423-1.202 5.45-1.603 5.423-2.111 5.236-2.431 5.076-2.992 4.916-3.126 4.221-3.874 3.82-4.194 3.5-4.542 2.618-5.263 1.737-5.557 0.908-5.824v-6.439l-0.908-7.026-17.499-91.182z" />
<glyph unicode="&#xe91d;" horiz-adv-x="1711" d="M417.412 402.917l-0.187 0.721-0.721 0.828-1.042 0.561-1.71 0.347-1.763 0.347-2.298 0.16h-5.236l-2.832-0.16-2.778-0.347-2.832-0.347-2.752-0.374-2.618-0.347-2.458-0.347-1.95-0.668-1.924-0.374-1.202-0.347-1.389-0.695-1.95-0.534-1.924-0.882-2.271-1.069-2.298-1.176-2.244-1.229-2.324-1.416-2.404-1.737-2.324-1.763-2.057-1.924-1.95-2.084-1.55-2.298-1.229-2.431-1.042-2.832-0.561-2.778-0.16-5.797 0.882-4.729 1.763-3.286 2.244-2.618 2.485-1.763 2.939-1.069 2.805-0.534 2.832-0.16 5.076 0.16 4.702 0.534 4.568 0.721 3.82 1.042 3.5 1.229 3.313 1.389 3.019 1.763 2.458 1.763 2.271 1.737 2.084 2.111 1.737 1.897 1.416 2.137 1.042 2.057 1.229 1.95 0.882 1.924 0.347 1.897 1.416 5.103 1.202 5.584 1.042 5.637 0.908 4.515z" />
<glyph unicode="&#xe91e;" horiz-adv-x="1711" d="M95.724 319.456h-47.074l39.219 226.793h81.698l7.694-134.542 56.531 134.542h85.411l-40.047-226.793h-47.1l29.735 169.407h-1.924l-70.156-169.407h-53.058l-0.347 7-1.202 18.915-1.576 26.743-1.763 30.804-1.737 30.804-1.576 27.117-1.229 19.797-0.374 8.229h-2.431l-28.693-169.407z" />
<glyph unicode="&#xe91f;" horiz-adv-x="1711" d="M1316.3 357.766l-7.24-38.311h-43.36l0.347 7 0.16 6.305v4.542l0.347 2.084-2.271-2.431-2.618-2.645-2.992-2.431-3.473-2.485-3.5-2.244-4.221-1.924-4.381-2.084-4.381-1.763-4.542-1.416-4.889-1.389-4.729-0.882-4.889-0.695-5.076-0.347-4.729-0.187-4.702 0.534-4.729 0.695-6.145 1.576-5.61 1.737-4.889 2.298-4.408 2.431-3.82 2.832-3.34 3.152-2.618 3.313-2.458 3.34-2.111 3.66-1.55 3.847-1.416 3.66-0.855 3.847-0.721 4.034-0.534 4.034-0.321 3.847v3.687l0.321 6.839 1.069 6.252 1.603 6.171 2.244 5.771 2.618 5.557 3.152 4.889 3.66 4.916 4.034 4.381 4.542 3.874 4.568 3.66 5.076 3.313 5.236 2.805 5.423 2.298 5.824 1.924 5.584 1.55 5.958 1.069h0.347l0.855 0.187 1.229 0.16 1.576 0.187 2.271 0.347 2.458 0.16 2.618 0.374 2.805 0.347 3.019 0.321 2.912 0.347 2.992 0.16 2.992 0.401 2.778 0.16 2.298 0.187 2.431 0.16h6.145l4.007-0.16 4.034-0.187h3.847l3.34-0.16 2.591-0.214 1.603-0.187h0.695l0.347 1.256 0.508 3.152 0.508 3.527 0.401 3.313-0.721 3.82-1.389 3.5-2.111 2.992-2.752 2.591-3.019 2.324-3.66 1.55-3.874 1.042-4.007 0.374-4.916 0.187-5.236 0.16h-5.263l-5.584-0.16-5.637-0.374-5.557-0.534-5.45-0.508-5.423-0.721-5.236-0.668-4.916-0.855-4.542-0.908-4.194-0.908-3.66-1.015-3.179-1.042-2.458-1.202-1.924-1.095 12.076 41.65 3.847 1.603 4.034 1.416 4.007 1.202 4.034 0.855 4.355 0.908 4.275 0.695 4.515 0.721 4.729 0.347 4.729 0.294 5.049 0.187 5.076 0.16h16.11l5.984-0.16 5.904-0.187 4.729-0.294 5.263-0.908 5.236-1.202 5.61-1.603 5.45-2.111 5.263-2.431 5.21-2.992 4.702-3.126 4.435-3.874 4.007-4.194 3.313-4.542 2.618-5.263 1.95-5.557 1.229-5.824v-6.439l-0.908-7.026-17.98-91.182z" />
<glyph unicode="&#xe920;" horiz-adv-x="1711" d="M1309.060 318.227l1.069 1.042 7.026 38.311-2.111 0.347-6.973-38.284 0.988 1.015v-2.431l0.908 0.187 0.16 0.855-1.069-1.042z" />
<glyph unicode="&#xe921;" horiz-adv-x="1711" d="M1264.632 319.456l1.069-1.229h43.36v2.431h-43.36l1.042-1.202h-2.111l-0.16-1.229h1.229l-1.069 1.229z" />
<glyph unicode="&#xe922;" horiz-adv-x="1711" d="M1267.437 338.852l-1.55 1.256-0.695-2.805-0.187-4.542v-6.305l-0.374-7h2.111l0.347 7 0.347 6.305-0.187 4.542v1.55l-1.55 1.256 1.737-1.256z" />
<glyph unicode="&#xe923;" horiz-adv-x="1711" d="M1200.246 316.65v0l4.916-0.721 4.702-0.534 4.729 0.187 5.076 0.347 4.889 0.721 4.889 0.855 4.916 1.416 4.702 1.389 4.381 1.763 4.568 1.924 4.034 2.084 3.66 2.485 3.66 2.431 2.992 2.485 2.832 2.752 2.244 2.618-1.737 1.256-2.271-2.458-2.298-2.458-3.126-2.431-3.34-2.458-3.687-2.084-4.007-2.137-4.168-2.084-4.435-1.576-4.381-1.416-4.889-1.363-4.862-0.882-4.568-0.695-5.076-0.374-4.729-0.187-4.702 0.561-4.568 0.695-0.347-2.111z" />
<glyph unicode="&#xe924;" horiz-adv-x="1711" d="M1158.409 368.987v0l0.187-3.687 0.347-3.847 0.508-4.221 0.695-4.034 0.882-3.66 1.389-4.007 1.55-4.034 2.324-3.66 2.431-3.527 2.832-3.313 3.313-3.34 4.007-2.618 4.568-2.805 4.889-2.271 5.771-1.737 6.145-1.576 0.347 2.111-6.145 1.55-5.423 1.763-4.729 2.111-4.355 2.458-3.66 2.752-3.152 3.019-2.645 3.313-2.431 3.313-1.924 3.527-1.603 3.66-1.389 3.473-0.882 3.847-0.695 4.034-0.534 3.874-0.374 3.847 0.214 3.687h-2.458z" />
<glyph unicode="&#xe925;" horiz-adv-x="1711" d="M1220.55 435.297v0l-6.118-1.042-5.771-1.576-5.797-1.897-5.45-2.324-5.423-2.752-5.21-3.5-4.568-3.687-4.542-4.061-4.221-4.355-3.66-4.889-3.313-5.076-2.645-5.771-2.271-5.771-1.603-6.332-1.015-6.439-0.534-6.839h2.458l0.16 6.839 1.042 6.091 1.603 5.984 2.271 5.771 2.591 5.423 3.019 4.862 3.66 4.729 3.82 4.408 4.568 3.687 4.568 3.66 4.862 3.152 5.477 2.778 5.076 2.271 5.771 1.95 5.423 1.576 5.771 1.015v2.111z" />
<glyph unicode="&#xe926;" horiz-adv-x="1711" d="M1256.056 439.010v0h-1.924l-2.431-0.401-2.298-0.16-2.778-0.187-2.992-0.321-2.992-0.187-2.912-0.347-5.824-0.721-2.618-0.347-2.458-0.134-2.271-0.347-1.576-0.187-1.389-0.187-0.695-0.187h-0.347v-2.111h0.347l1.015 0.187 1.069 0.16 1.576 0.187 2.271 0.374 2.458 0.16 2.618 0.347 2.805 0.347 3.019 0.347 2.912 0.374 2.992 0.187 2.992 0.347 2.778 0.134 2.298 0.187h4.355v2.485z" />
<glyph unicode="&#xe927;" horiz-adv-x="1711" d="M1279.352 437.033l1.042 0.908h-0.695l-1.603 0.16-2.591 0.16-3.34 0.347h-7.881l-4.007 0.401h-4.221v-2.485h8.229l4.034-0.321h7.187l2.591-0.187 1.603-0.16h0.695l0.855-0.187 0.187 1.015-2.084 0.347z" />
<glyph unicode="&#xe928;" horiz-adv-x="1711" d="M1281.089 448.094h-0.187l-0.16-3.313-0.534-3.366-0.508-3.152-0.347-1.229 2.084-0.347 0.321 1.256 0.561 3.126 0.534 3.714 0.508 3.313h-2.271z" />
<glyph unicode="&#xe929;" horiz-adv-x="1711" d="M1260.624 465.219v-0.16l3.847-0.187 3.66-1.042 3.527-1.576 2.965-2.111 2.271-2.404 2.111-2.805 1.389-3.179 0.695-3.66h2.111l-0.695 4.007-1.416 3.874-2.431 3.126-2.645 2.805-3.34 2.431-3.82 1.576-4.007 0.908-4.221 0.695v-2.298z" />
<glyph unicode="&#xe92a;" horiz-adv-x="1711" d="M1186.434 456.83l1.737-0.855 1.763 0.668 2.244 1.256 2.992 1.042 3.66 1.042 4.194 0.855 4.568 0.908 4.889 0.855 5.076 0.721 5.423 0.695 5.45 0.508 5.557 0.534 5.637 0.347h16.083l4.916-0.187v2.111l-4.916 0.187-5.236 0.321h-5.263l-5.584-0.321-5.637-0.347-11.007-1.069-10.847-1.389-4.889-0.882-4.568-0.855-4.168-0.882-3.714-1.095-3.286-1.015-2.645-1.229-2.084-1.229 1.737-1.042-2.084 0.347z" />
<glyph unicode="&#xe92b;" horiz-adv-x="1711" d="M1199.364 499.362l-0.855-0.882-12.076-41.65 2.084-0.347 12.076 41.65-0.721-0.882-0.508 2.111-0.695-0.16-0.16-0.721 0.855 0.882z" />
<glyph unicode="&#xe92c;" horiz-adv-x="1711" d="M1276.173 507.403v0l-5.904 0.187-5.984 0.16h-16.11l-5.076-0.347h-5.049l-4.729-0.534-4.729-0.187-4.702-0.641-4.221-0.721-4.408-0.882-4.194-0.882-4.007-1.229-4.034-1.363-3.66-1.603 0.508-2.111 3.874 1.603 4.007 1.363 3.66 1.256 8.576 1.737 4.248 0.721 4.355 0.695 9.457 0.695 5.049 0.187h21.186l5.984-0.187h5.904v2.084z" />
<glyph unicode="&#xe92d;" horiz-adv-x="1711" d="M1335.349 448.788v0l0.855 7.187v6.439l-1.176 6.171-1.95 5.557-2.805 5.423-3.5 4.729-4.061 4.408-4.355 3.82-4.916 3.366-5.236 2.965-5.557 2.458-5.263 2.057-5.797 1.603-5.263 1.202-5.423 0.695-4.729 0.534v-2.084l4.729-0.347 5.076-0.882 5.263-1.229 5.423-1.55 5.423-2.111 5.076-2.458 5.263-2.805 4.542-3.152 4.408-3.82 3.82-4.088 3.313-4.355 2.458-5.049 1.897-5.423 1.256-5.637v-6.439l-0.855-6.813 2.084-0.374z" />
<glyph unicode="&#xe92e;" horiz-adv-x="1711" d="M1317.155 357.579v0l18.194 91.209-2.084 0.374-18.22-91.235 2.111-0.347z" />
<glyph unicode="&#xe92f;" horiz-adv-x="1711" d="M1274.436 402.917l-0.347 1.042-0.695 0.695-1.229 0.561-1.737 0.508-4.222 0.347h-2.618l-2.458-0.187-2.778-0.321-5.637-0.695-2.591-0.401-2.485-0.508-2.244-0.321-2.298-0.508-2.966-0.374-1.416-0.534-1.55-0.508-1.95-0.721-2.244-1.042-2.111-1.042-2.431-1.229-2.298-1.603-2.244-1.576-2.137-1.897-1.95-1.763-1.897-2.244-1.576-2.458-1.256-2.645-0.988-2.832-0.561-2.939-0.16-5.797 0.882-4.729 1.389-3.286 2.111-2.618 2.591-1.763 2.992-1.069 2.805-0.534 2.965-0.16 5.263 0.16 4.702 0.534 4.568 0.882 4.007 1.256 3.714 1.336 3.313 1.416 3.126 1.95 2.832 1.897 2.404 1.977 1.977 2.244 1.897 2.111 1.603 2.298 1.202 1.897 0.908 2.111 0.641 2.084 0.561 1.924 0.695 4.916 0.882 4.916 0.695 4.889 0.347 4.355z" />
<glyph unicode="&#xe930;" horiz-adv-x="1711" d="M1630.081 343.073l0.508 4.034 1.256 4.542 2.404 4.221 3.019 3.66 3.66 2.805 4.007 2.271 4.542 1.229 4.916 0.534 4.729-0.534 4.542-1.229 4.221-2.271 3.473-2.805 3.019-3.66 2.404-4.221 1.416-4.542 0.347-4.034h-5.236l-0.187 3.152-1.069 3.82-1.737 3.34-2.271 2.992-2.618 2.458-3.366 1.763-3.82 1.202-3.847 0.347-4.007-0.347-3.874-1.202-3.313-1.763-2.618-2.458-2.271-2.992-1.763-3.34-1.042-3.82-0.347-3.152h-5.076z" />
<glyph unicode="&#xe931;" horiz-adv-x="1711" d="M1645.656 343.073v10.312h9.431l2.137-0.187 1.897-0.347 1.389-0.481 1.256-0.721 0.855-0.855 0.695-1.256 0.347-1.042 0.16-1.202-0.16-1.603-0.347-1.229-0.534-1.042-0.321-0.347h-7.374l0.721 0.187 1.229 0.16 1.015 0.347 0.908 0.347 0.695 0.508 0.347 0.561 0.347 0.855v1.256l-0.187 0.828-0.347 0.721-0.508 0.347-0.561 0.347h-0.855l-0.855 0.16h-7.026v-6.626h-4.355z" />
<glyph unicode="&#xe932;" horiz-adv-x="1711" d="M1630.081 343.073v-1.042l0.508-4.889 1.256-4.729 2.404-4.194 3.019-3.527 3.66-2.805 4.007-2.244 4.542-1.416 4.916-0.534 4.729 0.534 4.542 1.416 4.221 2.244 3.473 2.805 3.019 3.527 2.404 4.194 1.416 4.729 0.534 4.889-0.187 1.042h-5.236l0.16-1.042-0.347-4.194-1.069-3.714-1.737-3.313-2.271-2.965-2.618-2.458-3.366-1.737-3.82-1.229-3.847-0.347-4.007 0.347-3.874 1.229-3.313 1.737-2.618 2.458-2.271 2.965-1.763 3.313-1.042 3.714-0.347 4.194v1.042h-5.076z" />
<glyph unicode="&#xe933;" horiz-adv-x="1711" d="M1645.656 343.073v-10.499h4.355v8.576h4.381l5.076-8.576h3.5l-5.263 8.576h1.256l1.202 0.347 1.069 0.374 0.828 0.695 0.401 0.508h-7.374l-0.695-0.16h-4.381v0.16h-4.355z" />
<glyph unicode="&#xe934;" horiz-adv-x="1711" d="M1329.204 319.456h48.703l17.312 98.182 0.695 3.847 1.015 3.874 1.069 3.66 1.389 3.82 1.763 3.847 2.111 3.687 2.271 3.34 2.805 3.313 2.939 2.992 3.527 2.805 4.034 2.591 4.355 1.924 5.076 1.763 5.477 1.389 6.065 1.069 6.679 0.347h4.381l7.668 44.429-4.729-0.294-4.702-0.534-4.194-0.882-4.194-1.256-3.874-1.416-3.66-1.737-3.34-1.924-3.34-2.084-3.126-2.431-2.992-2.298-2.618-2.778-2.752-2.805-2.672-3.019-2.618-3.126-2.458-3.126-2.404-3.5 5.076 31.311h-48.516l-32.22-184.982z" />
<glyph unicode="&#xe935;" horiz-adv-x="1711" d="M871.718 319.456h49.719l16.457 98.182 0.695 3.847 0.882 3.66 0.882 3.5 1.202 3.527 1.416 3.5 1.763 3.34 2.084 3.099 2.271 2.832 2.805 2.618 3.126 2.645 3.874 2.057 4.061 1.95 4.862 1.55 5.423 1.229 5.771 0.908 6.839 0.508h0.508l0.695-0.16 0.882-0.187h0.721l0.855-0.16 0.721-0.16 0.534-0.214h0.16l0.187 0.721 0.481 2.084 0.721 3.179 0.855 3.82 1.256 4.381 1.229 4.916 1.576 4.862 1.576 4.755 1.389 3.313 1.55 3.313 1.763 3.179 1.763 2.965 1.55 2.591 1.256 2.137 0.882 1.229 0.347 0.534h-0.16l-0.721 0.187-0.882 0.16-1.229 0.187h-1.229l-1.389 0.134-1.229 0.16h-1.069l-5.397-0.294-4.889-0.534-4.408-0.882-4.194-1.069-4.007-1.389-3.714-1.737-3.099-1.763-3.179-2.111-2.965-2.271-2.805-2.431-2.458-2.645-5.263-5.958-2.431-3.313-2.645-3.313-2.458-3.5 6.171 31.311h-49.558l-32.38-184.982z" />
<glyph unicode="&#xe936;" horiz-adv-x="1711" d="M1630.588 137.786v0.668l1.256 4.408 2.404 4.007 3.019 3.5 3.66 2.805 4.007 2.111 4.542 1.069 4.916 0.508 4.729-0.508 4.542-1.069 4.221-2.111 3.473-2.805 3.019-3.5 2.404-4.007 1.416-4.408v-0.668h-5.076l-1.069 3.5-1.737 3.313-2.271 3.019-2.618 2.404-3.366 1.95-3.82 1.202-3.847 0.347-4.007-0.347-3.874-1.202-3.313-1.95-2.618-2.404-2.271-3.019-1.763-3.313-1.042-3.5h-4.916z" />
<glyph unicode="&#xe937;" horiz-adv-x="1711" d="M1645.656 137.786v5.904h11.568l1.897-0.347 1.389-0.16 1.256-0.668 0.855-1.069 0.695-1.015 0.347-1.095 0.16-1.55h-3.473v0.828l-0.187 0.908-0.347 0.695-0.508 0.214-0.561 0.508-0.855 0.187-0.855 0.16h-7.026v-3.5h-4.355z" />
<glyph unicode="&#xe938;" horiz-adv-x="1711" d="M1630.081 133.913l0.508 3.874h4.916v-0.16l-0.347-3.714h-5.076z" />
<glyph unicode="&#xe939;" horiz-adv-x="1711" d="M1645.656 133.913v3.874h4.355v-3.527h4.381l1.416 0.347 1.229 0.187 1.015 0.347 0.908 0.374 0.695 0.508 0.347 0.534 0.347 0.882v0.347h3.473l-0.16-1.229-0.347-1.042-0.534-0.908-0.721-0.695h-16.404z" />
<glyph unicode="&#xe93a;" horiz-adv-x="1711" d="M1673.468 133.913l-0.347 3.714v0.16h5.076l0.534-3.874h-5.263z" />
<glyph unicode="&#xe93b;" horiz-adv-x="1711" d="M1630.081 133.913v-0.508l0.508-4.862 1.256-4.755 2.404-4.194 3.019-3.714 3.66-2.752 4.007-2.137 4.542-1.389 4.916-0.508 4.729 0.508 4.542 1.389 4.221 2.137 3.473 2.752 3.019 3.714 2.404 4.194 1.416 4.755 0.534 4.862v0.508h-5.263v-0.508l-0.347-4.221-1.069-3.66-1.737-3.313-2.271-2.965-2.618-2.458-3.366-1.737-3.82-1.229-3.847-0.347-4.007 0.347-3.874 1.229-3.313 1.737-2.618 2.458-2.271 2.965-1.763 3.313-1.042 3.66-0.347 4.221v0.508h-5.076z" />
<glyph unicode="&#xe93c;" horiz-adv-x="1711" d="M1645.656 133.913v-9.938h4.355v8.576h4.381l5.076-8.576h3.5l-5.263 8.576h1.256l1.202 0.347 1.069 0.347 0.828 0.668h-16.404z" />
<glyph unicode="&#xe93d;" horiz-adv-x="1711" d="M877.142 449.509l-1.416 10.152-2.404 9.27-3.5 7.881-4.221 6.973-5.343 5.771-5.61 4.889-6.305 4.194-6.786 2.965-6.866 2.672-6.973 1.763-7.133 1.095h-27.758l-12.396-2.111-11.221-3.152-9.992-4.194-8.736-5.343-7.507-5.958-6.839-6.492-5.343-6.973-4.996-7.16-3.82-7.48-3.152-7.507-2.672-7.32-1.95-7.32-1.416-6.679v-11.782l-0.882-14.186v-12.744l1.763-11.568 2.965-10.152 4.168-9.27 5.076-7.881 5.771-7.16 6.679-5.771 7.32-5.076 7.748-4.355 8.202-3.313 8.416-2.672 8.549-2.111 8.763-1.229h57.012l2.805 0.882h2.672l2.672 1.095 2.805 1.069 2.672 1.416 2.805 1.416 6.973 42.345-5.076-2.965-4.916-2.672-4.889-2.111-4.916-1.924-4.729-1.603-4.729-1.069-4.729-0.908h-46.058l-3.34 1.256-3.473 1.576-3.152 1.95-2.404 7.16-2.672 2.404-2.672 2.672-2.431 2.992-2.111 2.965-1.763 3.152-1.416 3.313-1.229 3.313v11.702h112.020v10.499l2.672 14.56 1.256 13.118zM830.255 433.48h-62.996v5.958l1.069 3.473 1.256 3.5 1.576 2.965 1.603 2.965 1.763 2.805 2.111 2.672 2.271 2.431 2.271 1.924 2.672 1.95 2.672 1.576 2.805 1.416 2.965 1.069h18.167l2.805-1.069 2.431-1.416 2.672-1.576 2.271-1.763 2.111-1.95 1.763-2.404 2.431-3.5 1.229-2.965 1.069-3.313v-11.167z" />
<glyph unicode="&#xe93e;" glyph-name="surface1-56" horiz-adv-x="1231" d="M602.475 363.408h-306.801c-30.336-16.489-50.583-48.116-50.583-84.473s20.247-67.984 50.080-84.222l0.503-0.251h306.801c30.546 16.337 50.975 48.019 50.975 84.473s-20.429 68.136-50.463 84.222l-0.512 0.25zM0 42.579c-0.009-0.521-0.015-1.136-0.015-1.753 0-57.085 45.667-103.504 102.461-104.718l0.113-0.002h1025.65c56.9 1.169 102.579 47.571 102.579 104.642 0 0.7-0.007 1.398-0.021 2.095l0.002-0.104v810.789c0.011 0.568 0.017 1.238 0.017 1.909 0 57.054-45.687 103.438-102.472 104.562l-0.105 0.002h-1025.624c-56.917-1.184-102.604-47.604-102.604-104.694 0-0.681 0.007-1.361 0.019-2.039l-0.002 0.102zM178.954 835.48h873.075c31.285-0.532 56.443-26.019 56.443-57.381 0-0.415-0.004-0.828-0.013-1.241l0.001 0.062-2.209-158.165h-985.963l2.156 158.165c-0.009 0.374-0.014 0.816-0.014 1.258 0 31.337 25.153 56.8 56.371 57.301l0.047 0.001zM120.394 447.947h985.723l2.209-325.167c0.011-0.415 0.017-0.903 0.017-1.393 0-31.375-25.154-56.874-56.395-57.433l-0.052-0.001h-872.942c-31.328 0.515-56.527 26.032-56.527 57.435 0 0.489 0.006 0.977 0.018 1.463l-0.001-0.072z" />
<glyph unicode="&#xe93f;" glyph-name="surface1-57" horiz-adv-x="1139" d="M0 119.323c0.061-101.213 82.086-183.247 183.289-183.323h194.578v205.045h-377.866zM0 415.549h377.733v-209.097h-377.733zM0 776.651v-21.883h377.733v205.232h-194.437c-101.214-0.091-183.235-82.131-183.296-183.343v-0.006zM954.461 960h-511.48v-1024h260.671v818.768h435.385v21.883c-0.059 101.275-82.172 183.353-183.456 183.353-0.394 0-0.787-0.001-1.18-0.004h0.060zM0 689.787h377.733v-209.097h-377.733zM768.873 689.787h370.164v-209.097h-370.164zM768.873 415.549h370.164v-209.097h-370.164zM768.633-64h185.828c0.055 0 0.121 0 0.187 0 101.273 0 183.38 82.060 183.456 183.315v21.73h-369.471z" />
<glyph unicode="&#xe940;" glyph-name="surface1-58" horiz-adv-x="1714" d="M1660.865 166.176h1.923c0.301 0.064 0.647 0.1 1.002 0.1s0.701-0.037 1.034-0.106l-0.033 0.006c0.501-0.317 0.829-0.868 0.829-1.495 0-0.019 0-0.038-0.001-0.057v0.003c0.002-0.030 0.003-0.066 0.003-0.102 0-0.645-0.327-1.214-0.824-1.55l-0.007-0.004c-0.301-0.064-0.647-0.1-1.002-0.1s-0.701 0.037-1.034 0.106l0.033-0.006h-1.923v3.205zM1660.865 159.952h2.484l2.297-5.796h3.847l-2.671 6.438c1.553 0.569 2.646 2.023 2.671 3.737v0.003c0 0.024 0.001 0.052 0.001 0.080 0 1.473-0.709 2.78-1.805 3.598l-0.012 0.008c-0.875 0.53-1.932 0.843-3.062 0.843-0.248 0-0.493-0.015-0.733-0.044l0.029 0.003h-6.331v-14.665h3.392v5.796zM1663.162 148.867c6.966 0.015 12.608 5.666 12.608 12.635 0 6.978-5.657 12.635-12.635 12.635s-12.635-5.657-12.635-12.635c0-0.038 0-0.075 0-0.113v0.006c0.045-6.929 5.673-12.528 12.608-12.528 0.019 0 0.038 0 0.057 0h-0.003zM1646.547 161.422c0 0.008 0 0.017 0 0.027 0 9.176 7.439 16.615 16.615 16.615s16.615-7.439 16.615-16.615c0-9.176-7.439-16.615-16.615-16.615v0c-0.008 0-0.018 0-0.027 0-9.124 0-16.527 7.366-16.588 16.475v0.006zM1660.865 335.476h1.736c0.333 0.076 0.716 0.12 1.109 0.12s0.775-0.044 1.143-0.127l-0.035 0.007c0.488-0.351 0.808-0.911 0.828-1.546v-0.003c-0.009-0.697-0.328-1.318-0.824-1.733l-0.004-0.003c-0.305-0.038-0.657-0.060-1.015-0.060s-0.71 0.022-1.057 0.064l0.042-0.004h-1.923v3.286zM1660.865 329.252h2.484l2.297-5.663h3.847l-2.671 6.304c1.573 0.593 2.671 2.085 2.671 3.834 0 0.004 0 0.009 0 0.013v-0.001c0 0.020 0.001 0.044 0.001 0.068 0 1.444-0.712 2.722-1.804 3.502l-0.013 0.009c-0.903 0.491-1.977 0.78-3.118 0.78-0.228 0-0.454-0.012-0.676-0.034l0.028 0.002h-6.331v-14.478h3.392v5.663zM1650.5 330.802c0 0.016 0 0.035 0 0.053 0 6.948 5.633 12.581 12.581 12.581s12.581-5.633 12.581-12.581c0-6.948-5.633-12.581-12.581-12.581-0.009 0-0.019 0-0.028 0h0.001c-6.918 0.015-12.524 5.612-12.555 12.525v0.003zM1663.055 314.24c0.368-0.029 0.796-0.046 1.229-0.046 9.161 0 16.588 7.427 16.588 16.588s-7.427 16.588-16.588 16.588c-9.161 0-16.588-7.427-16.588-16.588 0-0.003 0-0.006 0-0.008v0c0.018-8.72 6.751-15.863 15.302-16.531l0.057-0.004zM917.954 523.768c-6.625-62.105-18.351-124.985-27.513-186.983l-2.404-13.57h52.943c18.912 122.875 23.506 146.595 53.050 143.683 3.993 21.852 10.975 41.364 20.609 59.237l-0.522-1.059c-22.091 4.568-34.512-8.014-50.753-31.627 1.765 9.021 2.892 19.511 3.122 30.221l0.003 0.204zM1380.069 523.768c-6.598-62.105-18.324-124.985-27.513-186.983l-2.377-13.57h52.863c18.965 122.875 23.56 146.595 53.21 143.683 3.927 21.844 10.915 41.364 20.599 59.209l-0.512-1.031c-22.117 4.568-34.725-8.014-50.753-31.627 1.787 9.007 2.942 19.491 3.201 30.197l0.004 0.228zM1516.3 409.067c-0.053 39.373 16.962 67.448 41.003 67.448 18.378 0 27.54-13.837 27.54-39.213 0-39.854-17.256-67.715-41.938-67.715-18.351 0-27.059 13.356-27.059 39.587zM1661.746 569.846h-52.275l-11.727-71.267c-10.794 16.637-29.276 27.487-50.293 27.487-0.068 0-0.135 0-0.203 0h0.010c-46.612 0-86.066-56.255-86.066-122.875 0-50.111 25.403-83.288 64.109-83.288 0.298-0.005 0.65-0.008 1.003-0.008 19.098 0 36.194 8.576 47.645 22.088l0.075 0.091-2.457-18.324h50.085l40.308 246.738zM482.71 460.488c0-25.456 12.314-42.873 40.308-56.095 21.37-10.070 24.682-13.009 24.682-22.064 0-12.555-9.189-18.324-30.371-18.324-16.979 0.069-33.252 2.998-48.392 8.33l1.032-0.317s-6.972-44.262-7.239-46.345c16.128-3.789 34.647-5.961 53.673-5.961 0.485 0 0.971 0.001 1.455 0.004h-0.075c55.774 0 81.578 21.37 81.578 67.047 0 27.487-10.685 43.807-37.397 55.908-22.117 10.177-24.682 12.448-24.682 21.797 0 10.898 9.189 16.401 25.964 16.401 13.597-0.209 26.744-1.27 39.631-3.134l-1.647 0.195 7.533 46.452c-13.766 2.196-29.886 3.622-46.277 3.948l-0.362 0.006c-59.167 0-79.628-30.879-79.361-67.902zM834.185 446.945c0 4.114 5.583 35.821-24.495 35.821-16.695 0-28.635-12.848-33.604-35.821zM872.517 377.841c-15.939-7.937-34.716-12.583-54.579-12.583-0.195 0-0.39 0-0.584 0.001h0.030c-30.639 0-49.257 12.1-45.864 41.136h104.684c3.825 14.742 6.156 31.728 6.435 49.211l0.002 0.179c0 44.422-27.54 72.656-71.027 72.656-52.943 0-91.755-50.485-91.755-119.108 0-58.766 30.745-89.431 89.565-89.512 0.276-0.002 0.601-0.002 0.927-0.002 18.928 0 37.172 2.931 54.301 8.364l-1.271-0.348 9.162 49.925zM702.042 370.709c-3.751-1.173-8.063-1.849-12.533-1.849-0.59 0-1.177 0.012-1.761 0.035l0.084-0.003c-12.581 0-18.351 4.488-18.351 14.718 0 6.438 9.162 53.905 14.932 91.622h27.086l7.052 48.349h-26.979l6.144 30.318h-52.462s-19.927-118.173-22.946-136.872c-3.059-14.852-5.633-33.128-7.152-51.702l-0.113-1.722c0-28.502 14.772-44.048 41.858-44.048 13.606 0.116 26.621 2.484 38.743 6.748l-0.838-0.257 7.052 44.422zM1339.414 429.796c2.384 11.725 3.968 25.415 4.398 39.396l0.009 0.378c0 38.385-24.041 58.766-69.451 58.766-22.749-0.366-44.467-4.248-64.805-11.124l1.498 0.44s-6.785-41.777-7.239-45.063c16.673 5.783 35.892 9.168 55.887 9.269h0.047c24.682 0 33.871-4.968 33.871-18.351-0.122-4.67-0.855-9.121-2.123-13.341l0.093 0.359c-6.389 0.892-13.858 1.452-21.438 1.548l-0.118 0.001c-58.766 0-92.851-28.502-92.851-77.464 0-32.508 19.633-54.973 48.242-54.973 1.076-0.062 2.334-0.098 3.601-0.098 20.687 0 39.167 9.448 51.361 24.264l0.092 0.115-0.988-20.809h43.861c1.362 15.119 11.192 77.464 15.68 106.554zM1285.269 412.674c-3.536 0.505-7.638 0.805-11.806 0.828h-0.027c-29.997 0-45.036-10.257-45.036-30.505-0.087-0.67-0.136-1.444-0.136-2.23 0-10.12 8.204-18.324 18.324-18.324 0.245 0 0.489 0.005 0.732 0.014l-0.035-0.001c21.53 0.053 36.702 20.568 37.984 50.272zM1132.851 576.177c-70.092 0-119.269-61.571-119.269-149.8 0-65.685 35.5-106.554 92.396-106.554 16.706 0.194 32.713 2.896 47.755 7.744l-1.143-0.318 9.162 56.255c-12.932-7.336-28.272-11.965-44.622-12.733l-0.227-0.009c-30.745 0-49.283 22.625-49.283 60.102 0 54.225 27.54 92.343 67.074 92.343 17.464-0.55 33.675-5.438 47.737-13.615l-0.483 0.26 8.628 53.611c-17.062 6.973-36.821 11.56-57.487 12.771l-0.504 0.024zM457.868 429.582c2.251 11.67 3.776 25.357 4.236 39.312l0.011 0.435c0 38.412-24.041 58.766-69.451 58.766-22.748-0.363-44.466-4.245-64.804-11.124l1.497 0.439-7.266-45.090c16.734 5.791 36.020 9.143 56.086 9.162h0.009c24.655 0 33.844-4.942 33.844-18.324-0.069-4.663-0.797-9.129-2.093-13.347l0.089 0.338c-6.412 0.906-13.891 1.466-21.484 1.548l-0.099 0.001c-58.766 0-92.77-28.475-92.77-77.331 0-32.508 19.633-54.946 48.268-54.946 1.076-0.062 2.334-0.098 3.601-0.098 20.687 0 39.167 9.448 51.361 24.264l0.092 0.115-1.015-20.809h43.781c1.389 15.119 11.299 77.464 15.787 106.554zM403.643 412.406c-3.535 0.504-7.637 0.804-11.805 0.828h-0.028c-29.917 0-45.17-10.284-45.17-30.532-0.083-0.655-0.13-1.412-0.13-2.181 0-10.135 8.216-18.351 18.351-18.351 0.281 0 0.56 0.006 0.837 0.019l-0.039-0.001c21.663 0.053 36.702 20.568 37.984 50.218zM305.157 570.007h-82.566l-51.394-152.685-2.11 152.685h-75.969l-41.403-246.738h49.47l32.856 188.559 4.407-188.559h36.061l67.634 189.654-30.371-189.654h52.943l40.923 246.738zM1713.808 447.96c-0.527-282.851-229.943-511.943-512.867-511.943-116.496 0-223.92 38.841-310.029 104.28l1.265-0.922c71.346 66.106 125.202 150.106 154.491 244.893l1.052 3.955h-47.814c-29.21-87.37-78.467-161.443-142.505-219.508l-0.43-0.384c-64.441 58.479-113.705 132.54-141.931 216.278l-1.057 3.615h-47.734c30.319-98.736 84.148-182.735 155.104-248.519l0.359-0.329c-84.869-64.729-192.407-103.709-309.050-103.709-282.954 0-512.334 229.38-512.334 512.334s229.38 512.334 512.334 512.334c116.643 0 224.181-38.98 310.3-104.623l-1.25 0.914c-75.903-70.293-132.032-160.913-159.77-263.214l-0.902-3.905h47.253c27.832 94.884 79.519 175.532 148.193 237.778l0.431 0.385c69.108-62.674 120.827-143.325 147.837-234.588l0.921-3.629h47.173c-28.624 106.228-84.756 196.87-160.309 266.84l-0.363 0.333c84.858 64.553 192.312 103.418 308.843 103.418 282.983 0 512.436-229.187 512.868-512.069v-0.041z" />
<glyph unicode="&#xe941;" glyph-name="surface1-52" horiz-adv-x="1035" d="M769.959-64c-27.144 0.6-52.418 8.080-74.307 20.755l0.746-0.398-178.874 97.288-178.874-97.047c-49.62-26.883-99.294-27.124-136.289-0.776-37.449 26.75-54.409 76.958-44.725 134.39l34.293 206.935-145.518 146.374c-40.205 40.338-55.559 90.574-41.061 134.497s54.703 73.561 110.395 81.88l200.247 29.772 89.665 187.782c25.011 52.483 65.831 82.549 111.733 82.549s86.669-30.067 111.786-82.496l89.638-187.675 200.301-29.799c55.559-8.319 95.737-38.172 110.262-81.854s-0.802-94.212-40.954-134.497l-145.678-146.4 34.641-207.309c9.523-57.485-7.249-107.72-44.779-134.443-17.124-12.217-38.476-19.533-61.538-19.533-0.39 0-0.779 0.002-1.169 0.006l0.059-0.001zM517.524 131.111c0.020 0 0.044 0 0.067 0 6.341 0 12.3-1.636 17.478-4.508l-0.185 0.094 196.181-106.677c24.208-13.161 45.929-15.14 59.518-5.35 14.525 10.245 20.142 33.999 15.247 63.477l-37.449 225.74c-0.308 1.773-0.484 3.815-0.484 5.898 0 9.952 4.016 18.965 10.517 25.508l-0.002-0.002 158.785 159.454c20.463 20.624 29.425 43.308 23.566 60.668-5.591 16.799-24.583 28.783-52.162 32.955l-219.346 32.608c-12.141 1.862-22.16 9.519-27.27 20.008l-0.095 0.215-98.010 204.982c-12.412 25.84-29.746 41.275-46.357 41.275s-33.972-15.434-46.33-41.301l-97.93-205.169c-5.217-10.704-15.244-18.36-27.189-20.197l-0.203-0.026-219.373-32.581c-27.606-4.119-46.678-16.050-52.215-33.009s3.076-39.857 23.647-60.615l158.625-159.427c6.501-6.549 10.519-15.571 10.519-25.532 0-2.093-0.177-4.144-0.518-6.14l0.030 0.214-37.449-225.258c-4.949-29.425 0.749-53.258 15.194-63.503 13.589-9.683 35.336-7.677 59.625 5.35l196.262 106.517c4.977 2.729 10.904 4.334 17.206 4.334 0.035 0 0.071 0 0.106 0h-0.006z" />
<glyph unicode="&#xe942;" glyph-name="surface1-53" horiz-adv-x="1036" d="M1001.12 758.354l-314.176-310.327 314.15-310.327c21.42-21.362 34.672-50.905 34.672-83.542s-13.252-62.18-34.67-83.54l-0.003-0.003c-21.83-21.398-51.759-34.604-84.772-34.604s-62.942 13.206-84.792 34.624l0.020-0.019-313.401 310.327-314.123-310.327c-21.701-21.387-51.514-34.594-84.411-34.594s-62.71 13.207-84.426 34.608l0.014-0.014c-21.729 21.219-35.205 50.807-35.205 83.542s13.476 62.324 35.182 83.52l0.023 0.022 313.401 310.327-313.401 310.327c-21.728 21.214-35.203 50.798-35.203 83.529s13.475 62.315 35.18 83.507l0.023 0.023c21.701 21.387 51.514 34.594 84.411 34.594s62.71-13.207 84.426-34.608l-0.014 0.014 314.123-310.22 313.428 310.22c21.835 21.386 51.763 34.583 84.772 34.583s62.937-13.197 84.793-34.603l-0.021 0.020c21.418-21.358 34.67-50.896 34.67-83.529s-13.252-62.171-34.667-83.526l-0.003-0.003z" />
<glyph unicode="&#xe943;" glyph-name="surface1-54" horiz-adv-x="1018" d="M0 960h410.845v-410.819h-410.845zM607.036 960h410.845v-410.819h-410.845zM0 346.819h410.845v-410.819h-410.845zM607.036 346.819h410.845v-410.819h-410.845z" />
<glyph unicode="&#xe944;" glyph-name="surface1-55" horiz-adv-x="1075" d="M909.897 960h-909.897v-257.464h1074.715v257.464zM743.135 576.639h-743.135v-257.464h1074.715v257.464zM743.135 192.479h-743.135v-256.479h1074.715v256.479z" />
<glyph unicode="&#xe945;" glyph-name="surface1-47" horiz-adv-x="860" d="M834.439 521.013c-15.919 15.931-37.917 25.785-62.216 25.785s-46.297-9.854-62.216-25.785v0l-373.27-372.762-186.568 186.381c-15.916 15.926-37.909 25.777-62.203 25.777-48.568 0-87.94-39.372-87.94-87.94 0-24.274 9.835-46.251 25.737-62.163v0l248.811-248.544c15.919-15.931 37.917-25.785 62.216-25.785s46.297 9.854 62.216 25.785v0l435.433 434.711c16.041 15.888 25.973 37.919 25.973 62.27s-9.932 46.382-25.966 62.263l-0.007 0.007zM834.439 934.21c-15.919 15.931-37.917 25.785-62.216 25.785s-46.297-9.854-62.216-25.785v0l-373.27-372.762-186.568 186.381c-15.846 15.539-37.575 25.13-61.543 25.13-48.56 0-87.926-39.366-87.926-87.926 0-23.935 9.564-45.637 25.079-61.492l-0.015 0.016 248.811-248.544c15.91-15.95 37.911-25.818 62.216-25.818s46.306 9.868 62.214 25.817l0.002 0.002 435.433 434.791c15.994 15.885 25.894 37.887 25.894 62.203s-9.9 46.318-25.889 62.198l-0.005 0.005z" />
<glyph unicode="&#xe946;" glyph-name="surface1-48" horiz-adv-x="1194" d="M170.315 641.142h-75.743c-0.072 0-0.156 0-0.241 0-52.098 0-94.331-42.233-94.331-94.331 0-0.028 0-0.057 0-0.085v0.004-516.908c0.212-51.863 42.304-93.824 94.196-93.824 0.132 0 0.264 0 0.396 0.001h75.723c0.080 0 0.174 0 0.268 0 51.892 0 93.984 41.961 94.196 93.803v516.928c0 0.024 0 0.052 0 0.081 0 52.098-42.233 94.331-94.331 94.331-0.085 0-0.169 0-0.254 0h0.013zM1165.376 614.075l-20.674 9.789c-20.975 10.099-45.501 16.374-71.394 17.269l-0.31 0.008h-351.3c-0.872-0.109-1.882-0.172-2.906-0.172-13.604 0-24.632 11.028-24.632 24.632 0 3.875 0.895 7.54 2.489 10.802l-0.064-0.146 84.97 236.001c1.566 3.636 2.477 7.87 2.477 12.316 0 15.785-11.481 28.888-26.549 31.414l-0.187 0.026c-11.867 2.528-25.5 3.976-39.472 3.976-53.854 0-102.684-21.509-138.368-56.406l0.037 0.036c-13.515-17.891-27.283-38.369-39.946-59.582l-1.75-3.163c-49.652-68.057-106.949-126.509-171.607-175.796l-2.050-1.499c-17.251-14.877-28.597-36.189-30.287-60.167l-0.016-0.277v-629.72c0-0.001 0-0.001 0-0.002 0-20.679 16.764-37.444 37.444-37.444 0.141 0 0.282 0.001 0.423 0.002h619.215c24.611 1.346 46.532 11.871 62.6 28.178l0.011 0.012 32.415 37.444c14.772 18.259 25.491 40.407 30.43 64.656l0.166 0.977 76.706 492.73c0.223 1.856 0.35 4.005 0.35 6.184 0 20.508-11.265 38.384-27.944 47.78l-0.275 0.142z" />
<glyph unicode="&#xe947;" glyph-name="surface1-49" horiz-adv-x="1194" d="M169.926 254.849h-75.478c-0.095 0-0.208-0.001-0.321-0.001-51.985 0-94.127 42.142-94.127 94.127 0 0.094 0 0.188 0 0.283v-0.015 516.923c0.091 51.842 42.138 93.834 93.993 93.834 0.16 0 0.32 0 0.48-0.001h75.453c0.152 0.001 0.331 0.001 0.51 0.001 51.946 0 94.098-41.937 94.446-93.801v-516.956c-0.091-52.153-42.39-94.396-94.555-94.396-0.16 0-0.32 0-0.48 0.001h0.025zM1165.244 281.9l-20.736-9.793c-20.882-10.106-45.312-16.378-71.111-17.249l-0.3-0.008h-351.385c-0.909 0.12-1.96 0.189-3.027 0.189-13.447 0-24.348-10.901-24.348-24.348 0-3.991 0.96-7.758 2.662-11.082l-0.064 0.137 84.682-236.013c1.575-3.644 2.491-7.888 2.491-12.345 0-15.724-11.398-28.785-26.382-31.373l-0.189-0.027c-11.897-2.538-25.567-3.991-39.575-3.991-53.882 0-102.743 21.5-138.47 56.39l0.039-0.038c-13.547 17.944-27.246 38.435-39.79 59.688l-1.682 3.081c-49.646 68.123-107.037 126.585-171.847 175.781l-2.066 1.503c-17.016 14.999-28.202 36.266-29.923 60.155l-0.017 0.286v629.699c0 20.688 16.771 37.458 37.458 37.458v0h619.023c24.683-1.288 46.681-11.828 62.784-28.188l0.012-0.012 32.829-37.458c14.481-18.373 25.122-40.465 30.312-64.583l0.189-1.049 76.629-492.763c0.203-1.77 0.318-3.822 0.318-5.9 0-20.652-11.408-38.639-28.265-48.004l-0.28-0.143z" />
<glyph unicode="&#xe948;" glyph-name="surface1-50" horiz-adv-x="1004" d="M903.844 960h-803.179c-55.422-0.558-100.134-45.615-100.134-101.115 0-0.341 0.002-0.681 0.005-1.021v0.052l-0.535-921.916 201.196 204.757h702.648c55.725 0.814 100.587 46.178 100.587 102.020 0 0.211-0.001 0.421-0.002 0.632v-0.032 614.539c0.001 0.168 0.002 0.367 0.002 0.567 0 55.74-44.921 100.988-100.536 101.517h-0.050zM351.311 499.029h-100.076v102.62h100.076zM552.534 499.029h-100.612v102.62h100.612zM753.195 499.029h-99.942v102.62h100.076z" />
<glyph unicode="&#xe949;" glyph-name="surface1-51" horiz-adv-x="1037" d="M433.558 893.575c42.58 88.558 127.712 88.558 170.265 0l105.713-220.686 236.316-35.327c95.222-14.318 121.37-97.738 52.402-166.893l-170.988-172.032 40.358-242.177c16.245-97.791-52.643-149.497-137.775-103.412l-211.426 114.679-211.426-114.706c-84.865-46.059-153.699 5.647-137.588 103.438l40.358 242.177-170.988 172.032c-68.941 69.102-42.633 152.548 52.616 166.893l236.316 35.327z" />
<glyph unicode="&#xe94a;" glyph-name="surface1-42" horiz-adv-x="1261" d="M1260.946 838.952c-43.256-19.681-93.433-33.993-146.050-40.397l-2.485-0.246c53.451 32.39 93.644 82.083 113.184 141.177l0.525 1.834c-47.316-28.517-102.374-50.297-161.012-62.224l-3.347-0.569c-47.333 50.291-114.336 81.61-188.653 81.61-142.962 0-258.855-115.894-258.855-258.855 0-20.805 2.455-41.037 7.090-60.422l-0.356 1.762c-215.472 11.129-405.002 113.512-532.095 268.939l-1.040 1.312c-22.027-37.276-35.041-82.144-35.041-130.051 0-89.375 45.295-168.171 114.182-214.684l0.917-0.584c-43.243 1.466-83.415 13.328-118.495 33.147l1.29-0.67v-3.229c0.091-124.694 88.336-228.752 205.778-253.225l1.68-0.293c-20.436-5.749-43.907-9.061-68.149-9.073h-0.007c-0.179 0-0.392-0.001-0.604-0.001-16.97 0-33.544 1.7-49.559 4.94l1.594-0.269c34.020-103.573 128.896-177.443 241.335-179.62l0.255-0.004c-87.266-68.846-198.827-110.429-320.1-110.429-0.432 0-0.863 0.001-1.295 0.002h0.067c-21.766 0.023-43.205 1.312-64.277 3.797l2.579-0.247c111.836-72.974 248.743-116.379 395.788-116.379 0.251 0 0.503 0 0.754 0h-0.039c475.947 0 735.95 394.207 735.95 735.79l-0.961 33.544c51.092 36.781 94.069 81.084 128.288 131.784l1.166 1.833z" />
<glyph unicode="&#xe94b;" glyph-name="surface1-43" horiz-adv-x="1133" d="M276.036 860.414c82.336 62.218 186.422 99.655 299.251 99.655 180.488 0 338.602-95.799 426.267-239.322l1.244-2.191 116.602 67.422c1.258 0.631 2.741 1 4.311 1 5.406 0 9.788-4.382 9.788-9.788 0-0.324-0.016-0.644-0.047-0.96l0.003 0.040-39.552-339.831c-0.613-4.315-4.282-7.597-8.718-7.597-1.133 0-2.215 0.214-3.21 0.604l0.060-0.021-313.107 136.018c-3.493 1.454-5.904 4.84-5.904 8.79 0 3.302 1.685 6.21 4.242 7.911l0.035 0.022 116.068 67.422c-64.613 104.653-178.671 173.349-308.775 173.349-152.391 0-282.768-94.249-336.023-227.636l-0.86-2.44c-10.394-26.002-35.371-44.038-64.56-44.038-10.036 0-19.574 2.132-28.186 5.968l0.441-0.175c-24.29 10.85-40.912 34.795-40.912 62.622 0 9.511 1.942 18.568 5.45 26.796l-0.169-0.447c35.478 88.383 92.601 161.767 164.962 215.898l1.299 0.93zM895.77 303.221c-28.452-71.676-76.897-130.35-138.435-170.699l-1.37-0.843c-43.077-28.159-94.232-47.826-149.255-55.34l-1.911-0.214c-14.329-2.025-30.88-3.182-47.701-3.182-129.807 0-243.529 68.866-306.624 172.056l-0.895 1.574 116.629 67.422c2.575 1.731 4.247 4.634 4.247 7.927 0 3.943-2.396 7.325-5.812 8.772l-0.062 0.023-313.668 135.884c-0.954 0.418-2.066 0.661-3.235 0.661-1.487 0-2.882-0.394-4.086-1.083l0.040 0.021c-2.193-1.263-3.724-3.464-4.050-6.041l-0.004-0.040-39.392-339.751c-0.114-0.55-0.179-1.182-0.179-1.829 0-5.214 4.227-9.441 9.441-9.441 1.543 0 3 0.37 4.286 1.027l-0.053-0.025 116.602 67.982c89.139-145.617 247.337-241.31 427.885-241.31 210 0 389.763 129.459 463.834 312.924l1.197 3.356c3.323 7.733 5.255 16.734 5.255 26.186 0 27.727-16.626 51.572-40.452 62.108l-0.434 0.171c-8.112 3.632-17.582 5.747-27.545 5.747-29.11 0-54.003-18.055-64.091-43.578l-0.163-0.467z" />
<glyph unicode="&#xe94c;" glyph-name="surface1-44" horiz-adv-x="570" d="M549.396 396.994l-429.895-440.484c-12.65-12.681-30.143-20.527-49.469-20.527s-36.818 7.846-49.467 20.526l-0.001 0.001c-12.737 13.063-20.594 30.936-20.594 50.645s7.856 37.582 20.608 50.66l-0.015-0.015 380.266 390.401-380.24 389.305c-12.737 13.063-20.594 30.936-20.594 50.645s7.856 37.582 20.608 50.66l-0.015-0.015c12.461 13.085 30.015 21.222 49.469 21.222s37.007-8.137 49.442-21.194l0.026-0.028 429.869-440.484c12.676-12.758 20.51-30.339 20.51-49.75 0-0.117 0-0.234-0.001-0.351v0.018c-0.115-19.862-7.901-37.883-20.543-51.27l0.034 0.036z" />
<glyph unicode="&#xe94d;" glyph-name="surface1-45" horiz-adv-x="570" d="M20.501 396.987l429.914-440.486c12.656-12.706 30.167-20.568 49.514-20.568s36.858 7.862 49.512 20.566l0.002 0.002c12.738 13.065 20.595 30.94 20.595 50.651s-7.857 37.587-20.609 50.667l0.015-0.015-380.4 390.41 380.266 389.286c12.738 13.065 20.595 30.94 20.595 50.651s-7.857 37.587-20.609 50.667l0.015-0.015c-12.466 13.111-30.037 21.266-49.514 21.266s-37.048-8.155-49.487-21.237l-0.027-0.029-429.78-440.486c-12.671-12.755-20.502-30.331-20.502-49.736 0-0.129 0-0.258 0.001-0.387v0.020c-0.001-0.115-0.001-0.252-0.001-0.389 0-19.754 7.816-37.682 20.524-50.86l-0.021 0.022z" />
<glyph unicode="&#xe94e;" glyph-name="surface1-46" horiz-adv-x="478" d="M103.298 761.691v-140.992h-103.298v-172.378h103.298v-512.214h212.157v512.187h142.383s13.367 82.66 19.81 173.046h-161.39v117.868c0 17.617 23.151 41.33 46.008 41.33h115.596v179.462h-157.059c-222.744 0-217.504-172.565-217.504-198.309z" />
<glyph unicode="&#xe94f;" glyph-name="d-d-copy-4" d="M512 960c-282.757 0-512-229.243-512-512s229.243-512 512-512c282.757 0 512 229.243 512 512s-229.243 512-512 512zM512 831.887c0.040 0 0.087 0 0.133 0 212.088 0 384.020-171.932 384.020-384.020s-171.932-384.020-384.020-384.020c-212.088 0-384.020 171.932-384.020 384.020 0 0.047 0 0.094 0 0.141v-0.007c0.061 211.99 171.896 383.825 383.88 383.887h0.006zM639.98 511.897c35.378 0 64.057-28.679 64.057-64.057s-28.679-64.057-64.057-64.057v0h-255.987c-35.378 0-64.057 28.679-64.057 64.057s28.679 64.057 64.057 64.057v0z" />
<glyph unicode="&#xe950;" glyph-name="surface1-39" horiz-adv-x="1845" d="M830.647 923.176l-793.69-772.476c-22.801-22.713-36.91-54.138-36.91-88.858s14.109-66.145 36.906-88.854l0.004-0.004c23.575-22.87 55.771-36.968 91.259-36.968s67.685 14.098 91.292 37l-0.033-0.032 703.471 683.298 701.417-683.298c23.582-22.865 55.781-36.96 91.273-36.96s67.691 14.095 91.306 36.993l-0.034-0.033c23.541 22.365 38.185 53.901 38.185 88.858s-14.644 66.493-38.133 88.808l-0.053 0.050-793.717 772.476c-23.007 22.763-54.662 36.826-89.6 36.826-0.227 0-0.454-0.001-0.68-0.002h0.035c-0.222 0.001-0.484 0.002-0.746 0.002-35.557 0-67.835-14.035-91.598-36.868l0.044 0.042z" />
<glyph unicode="&#xe951;" glyph-name="surface1-40" d="M640.007 512.003h-64.003v64.003c0 35.348-28.655 64.003-64.003 64.003s-64.003-28.655-64.003-64.003v0-64.003h-64.003c-35.348 0-64.003-28.655-64.003-64.003s28.655-64.003 64.003-64.003h64.003v-64.003c0-35.348 28.655-64.003 64.003-64.003s64.003 28.655 64.003 64.003v64.003h64.003c35.348 0 64.003 28.655 64.003 64.003s-28.655 64.003-64.003 64.003v0zM512 960c-282.759 0-512-229.241-512-512s229.241-512 512-512 512 229.214 512 512-229.214 512-512 512zM512 64.007c-0.008 0-0.017 0-0.027 0-212.088 0-384.020 171.932-384.020 384.020s171.932 384.020 384.020 384.020c212.088 0 384.020-171.932 384.020-384.020 0-0.009 0-0.019 0-0.028v0.002c-0.015-212.068-171.926-383.978-383.992-383.993h-0.002zM640.007 383.997h-64.003v-64.003c0-35.348-28.655-64.003-64.003-64.003s-64.003 28.655-64.003 64.003v64.003h-64.003c-35.348 0-64.003 28.655-64.003 64.003s28.655 64.003 64.003 64.003h64.003v64.003c0 35.348 28.655 64.003 64.003 64.003s64.003-28.655 64.003-64.003v0-64.003h64.003c35.348 0 64.003-28.655 64.003-64.003s-28.655-64.003-64.003-64.003v0z" />
<glyph unicode="&#xe952;" glyph-name="surface1-41" horiz-adv-x="1178" d="M588.684-64c2.668 0 2.668 2.215 0.374 6.324-2.615-4.242-2.615-6.324-0.374-6.324zM122.097 396.13c78.498-72.041 438.785-403.965 466.934-453.807 25.161 44.025 307.296 308.737 451.192 442.707 26.047 17.992 48.437 38.788 67.517 62.371l0.469 0.598 15.769 14.542-3.762 1.227c35.943 50.12 57.482 112.688 57.5 180.286v0.004c-1.535 174.823-143.612 315.951-318.651 315.951-0.905 0-1.809-0.004-2.712-0.011l0.139 0.001c-111.931 0-209.987-129.274-267.833-214.389-57.473 85.115-155.876 214.389-267.46 214.389-0.757 0.006-1.651 0.010-2.546 0.010-175.039 0-317.116-141.129-318.65-315.806l-0.001-0.146c0.117-100.618 47.619-190.117 121.386-247.398l0.711-0.531z" />
<glyph unicode="&#xe953;" glyph-name="Varlk-51" horiz-adv-x="1204" d="M521.365 140.8c-0.024 0-0.052 0-0.080 0-56.561 0-102.413-45.852-102.413-102.413s45.852-102.413 102.413-102.413c56.561 0 102.413 45.852 102.413 102.413v0c-0.015 56.527-45.812 102.352-102.327 102.413h-0.006zM999.285 140.8c-0.016 0-0.035 0-0.053 0-56.561 0-102.413-45.852-102.413-102.413s45.852-102.413 102.413-102.413c56.561 0 102.413 45.852 102.413 102.413v0c-0.015 56.536-45.828 102.368-102.355 102.413h-0.005zM1187.626 799.5c-12.578 14.733-31.159 24.021-51.91 24.047h-654.029c-20.894 82.561-84.806 136.453-165.176 136.453h-68.267c-37.703 0-68.267-30.564-68.267-68.267s30.564-68.267 68.267-68.267v0h68.267c24.902 0 32.49-27.36 34.735-43.712 1.122-8.016 2.298-16.192 3.554-24.688-1.283 0-2.672 0-3.874 0h-206.403c-0.402 0.009-0.876 0.013-1.35 0.013-37.703 0-68.267-30.564-68.267-68.267s30.564-68.267 68.267-68.267c0.475 0 0.949 0.005 1.421 0.014l-0.071-0.001h206.457c0.050 0 0.109 0 0.167 0 8.576 0 16.784 1.578 24.349 4.459l-0.47-0.157c2.859-18.356 5.798-36.952 8.764-55.495h-136.026c-37.703 0-68.267-30.564-68.267-68.267s30.564-68.267 68.267-68.267h157.908c2.966-18.035 5.771-35.189 8.416-51.193h-345.822c-37.703 0-68.267-30.564-68.267-68.267s30.564-68.267 68.267-68.267h372.888c12.059-20.422 33.957-33.906 59.004-33.906 0.044 0 0.087 0 0.131 0h-0.007c328.936 0 571.142 50.445 581.295 52.583 27.574 6.024 48.663 28.084 53.171 55.715l0.053 0.394 68.267 426.566c0.554 3.26 0.87 7.015 0.87 10.844 0 16.914-6.173 32.387-16.39 44.288l0.076-0.091zM1007.648 381.457c-133.23-23.077-288.518-37.771-446.687-40.677l-2.911-0.042c-12.825 77.485-36.177 224.786-54.854 346.196h552.439z" />
<glyph unicode="&#xe954;" glyph-name="surface1-34" d="M704.005 960h-384.010c-176.716-0.031-319.965-143.279-319.995-319.992v-384.013c0.031-176.716 143.279-319.965 319.992-319.995h384.013c176.716 0.031 319.965 143.279 319.995 319.992v384.013c-0.031 176.716-143.279 319.965-319.992 319.995h-0.003zM927.991 255.995c-0.197-123.625-100.361-223.789-223.967-223.986h-384.029c-123.567 0.273-223.655 100.408-223.852 223.967v384.029c0.273 123.52 100.332 223.579 223.826 223.852h384.036c123.625-0.197 223.789-100.361 223.986-223.967v-0.019zM511.987 703.993c-141.389 0-256.007-114.618-256.007-256.007s114.618-256.007 256.007-256.007c141.389 0 256.007 114.618 256.007 256.007 0 0.009 0 0.019 0 0.028v-0.002c-0.015 141.377-114.628 255.98-256.007 255.98v0zM511.987 287.989c-88.379 0-160.024 71.645-160.024 160.024s71.645 160.024 160.024 160.024c88.379 0 160.024-71.645 160.024-160.024v0c-0.121-88.33-71.694-159.903-160.012-160.024h-0.012zM821.299 723.195c0-18.835-15.269-34.104-34.104-34.104s-34.104 15.269-34.104 34.104c0 18.835 15.269 34.104 34.104 34.104v0c18.835 0 34.104-15.269 34.104-34.104v0z" />
<glyph unicode="&#xe955;" glyph-name="surface1-35" d="M1005.412-45.412c-11.568-11.494-27.509-18.599-45.11-18.599s-33.543 7.104-45.114 18.602l-201.079 201.079c-73.642-55.573-166.705-89.009-267.578-89.009-246.706 0-446.702 199.995-446.702 446.702s199.995 446.702 446.702 446.702c246.706 0 446.702-199.995 446.702-446.702 0-100.826-33.405-193.85-89.75-268.609l0.82 1.137 201.109-200.976c11.584-11.547 18.751-27.518 18.751-45.164s-7.167-33.617-18.75-45.162l-0.002-0.002zM673.466 737.743c-57.756 57.816-137.578 93.581-225.753 93.581-176.229 0-319.092-142.862-319.092-319.092s142.862-319.092 319.092-319.092c88.175 0 167.996 35.764 225.75 93.578l0.003 0.003c57.672 57.732 93.339 137.456 93.339 225.511s-35.667 167.779-93.342 225.514l0.003-0.003z" />
<glyph unicode="&#xe956;" glyph-name="surface1-36" horiz-adv-x="1023" d="M341.333 140.8c-0.008 0-0.017 0-0.027 0-56.554 0-102.4-45.846-102.4-102.4s45.846-102.4 102.4-102.4c56.554 0 102.4 45.846 102.4 102.4v0c0 56.545-45.831 102.385-102.372 102.4h-0.002zM819.2 140.8c-56.554 0-102.4-45.846-102.4-102.4s45.846-102.4 102.4-102.4c56.554 0 102.4 45.846 102.4 102.4v0c0 56.554-45.846 102.4-102.4 102.4v0zM1007.695 799.624c-12.6 14.66-31.162 23.889-51.88 23.896h-654.068c-16.322 77.771-83.887 135.488-165.106 136.479l-0.108 0.001h-68.267c-37.703 0-68.267-30.564-68.267-68.267s30.564-68.267 68.267-68.267v0h68.267c24.912 0 32.423-27.317 34.133-43.702 24.912-176.788 81.23-512.053 81.578-513.684 5.599-32.559 33.621-57.020 67.356-57.020 0.32 0 0.64 0.002 0.958 0.007l-0.048-0.001c3.694-0.016 8.065-0.025 12.437-0.025 200.786 0 397.101 19.144 587.219 55.705l-19.39-3.104c27.412 6.103 48.351 28.076 52.844 55.577l0.053 0.394 68.267 426.653c0.703 3.678 1.106 7.909 1.106 12.234 0 16.412-5.794 31.471-15.448 43.243l0.095-0.12zM827.807 379.787c-133.262-23.086-288.535-37.75-446.695-40.588l-2.838-0.040c-12.964 77.141-36.191 224.526-54.955 346.118h552.201z" />
<glyph unicode="&#xe957;" glyph-name="surface1-37" horiz-adv-x="1365" d="M1315.28 668.56l-682.622-682.596c-30.889-30.856-73.545-49.939-120.657-49.939s-89.768 19.083-120.659 49.94l-341.297 341.297c-32.622 31.151-52.904 74.984-52.904 123.554 0 94.291 76.438 170.729 170.729 170.729 48.524 0 92.319-20.243 123.403-52.745l0.061-0.064 220.667-220.667 561.965 561.992c30.657 29.581 72.442 47.806 118.484 47.806 94.291 0 170.729-76.438 170.729-170.729 0-46.088-18.262-87.911-47.945-118.627l0.047 0.049z" />
<glyph unicode="&#xe958;" glyph-name="surface1-38" horiz-adv-x="1845" d="M830.785-27.165l-793.844 772.594c-22.818 22.709-36.939 54.14-36.939 88.868s14.121 66.159 36.934 88.863l0.005 0.005c23.617 22.798 55.813 36.844 91.288 36.844s67.671-14.047 91.327-36.881l-0.039 0.037 703.579-683.5 701.532 683.5c23.613 22.796 55.804 36.842 91.275 36.842s67.662-14.046 91.314-36.879l-0.039 0.037c23.585-22.348 38.26-53.894 38.26-88.868s-14.676-66.52-38.205-88.816l-0.055-0.052-793.897-772.594c-23.008-22.722-54.642-36.756-89.553-36.756-0.222 0-0.444 0.001-0.666 0.002h0.034c-0.245-0.002-0.535-0.003-0.825-0.003-35.523 0-67.775 14.008-91.533 36.801l0.046-0.044z" />
<glyph unicode="&#xe959;" glyph-name="surface1-30" d="M512 255.987c158.723 0 288.007 157.921 288.007 352.020s-129.283 351.993-288.007 351.993c-84.195-1.627-158.51-42.524-205.593-105.080l-0.485-0.673c-51.131-65.859-81.969-149.694-81.969-240.732 0-1.993 0.015-3.983 0.044-5.969l-0.004 0.3c0-193.939 129.283-351.86 288.007-351.86zM512 895.987c123.508 0 223.993-129.177 223.993-287.98s-100.485-288.007-223.993-288.007-223.993 129.283-223.993 288.007 100.485 287.98 223.993 287.98zM735.993 320c-16.718-1.22-29.819-15.083-29.819-32.007s13.101-30.786 29.715-32.001l0.105-0.006c123.624-0.182 223.788-100.365 223.94-223.979v-0.015c0-17.721-14.366-32.087-32.087-32.087v0h-831.853c-17.721 0-32.087 14.366-32.087 32.087v0c0.122 123.659 100.334 223.871 223.981 223.993h0.012c16.718 1.22 29.819 15.083 29.819 32.007s-13.101 30.786-29.715 32.001l-0.105 0.006c-158.924-0.289-287.672-129.074-287.9-287.985v-0.022c0.091-53.001 43.001-95.948 95.979-96.1h832.027c52.954 0.152 95.842 43.039 95.993 95.979v0.015c-0.167 159.016-128.999 287.886-287.985 288.114h-0.022z" />
<glyph unicode="&#xe95a;" glyph-name="surface1-31" horiz-adv-x="1037" d="M970.212 893.734c-41.6 40.98-98.74 66.285-161.791 66.285s-120.191-25.305-161.82-66.313l0.029 0.028-593.804-585.868c-4.554-4.274-7.604-10.104-8.3-16.637l-0.010-0.117-44.249-321.605c-0.177-1.18-0.277-2.541-0.277-3.927 0-8.245 3.574-15.656 9.257-20.767l0.025-0.023c5.328-5.292 12.635-8.597 20.713-8.711h0.022c0.619-0.038 1.342-0.060 2.071-0.060s1.452 0.022 2.17 0.065l-0.099-0.005 195.646 26.159c15.369 1.156 27.401 13.91 27.401 29.474 0 16.321-13.231 29.553-29.553 29.553-1.932 0-3.821-0.185-5.649-0.539l0.186 0.030-157.649-20.681 31.102 224.29 239.2-236.1c5.328-5.292 12.635-8.597 20.713-8.711h0.022c8.116 0.024 15.45 3.351 20.732 8.707l0.003 0.003 593.884 585.868c41.365 40.68 66.997 97.247 66.997 159.8s-25.632 119.12-66.966 159.77l-0.031 0.030zM657.585 821.963l99.56-98.411-541.165-534.806-99.56 98.357zM355.62 50.844l-97.475 96.193 541.993 534.832 97.475-96.193zM939.083 627.76l-238.505 235.405c29.143 23.788 66.754 38.201 107.731 38.201 46.624 0 88.89-18.658 119.739-48.915l-0.027 0.027c30.829-30.072 49.95-72.023 49.95-118.441 0-40.703-14.703-77.973-39.087-106.786l0.2 0.243z" />
<glyph unicode="&#xe95b;" glyph-name="surface1-32" horiz-adv-x="814" d="M543.929-53.299l259.161 256.020c6.689 6.585 10.834 15.739 10.834 25.86s-4.144 19.275-10.829 25.856l-0.005 0.005c-6.79 6.564-16.042 10.618-26.24 10.648h-111.086v256.073c-0.553 19.945-16.853 35.903-36.88 35.903s-36.328-15.958-36.879-35.852l-0.001-0.051v-292.568c0.091-20.219 16.502-36.574 36.734-36.574 0 0 0 0 0 0h58.828l-169.615-167.699-169.642 167.699h58.561c0.095-0.001 0.207-0.001 0.32-0.001 20.227 0 36.632 16.359 36.707 36.568v402.297h111.080c0.055 0 0.121 0 0.186 0 20.199 0 36.574 16.375 36.574 36.574 0 0 0 0 0 0v0c0.001 0.093 0.001 0.203 0.001 0.313 0 10.001-4.128 19.038-10.774 25.499l-0.008 0.008-258.868 256.073c-6.721 6.611-15.947 10.692-26.126 10.692s-19.406-4.081-26.131-10.697l0.005 0.005-259.188-256.073c-6.572-6.615-10.634-15.73-10.634-25.795 0-20.214 16.387-36.601 36.601-36.601 0.098 0 0.197 0 0.295 0.001h111.065v-256.020c0-20.376 16.518-36.894 36.894-36.894s36.894 16.518 36.894 36.894v0 292.594c-0.106 20.222-16.523 36.574-36.76 36.574 0 0 0 0 0 0h-58.828l169.642 167.699 169.615-167.699h-58.561c-0.064 0-0.139 0.001-0.214 0.001-20.248 0-36.678-16.346-36.813-36.562v-402.224h-111.054c-0.055 0-0.121 0-0.186 0-20.199 0-36.574-16.375-36.574-36.574 0 0 0 0 0 0v0c-0.001-0.116-0.002-0.253-0.002-0.391 0-9.961 4.074-18.97 10.646-25.452l0.004-0.004 258.895-256.020c6.732-6.674 16.001-10.798 26.234-10.798 10.179 0 19.405 4.081 26.131 10.696l-0.005-0.005z" />
<glyph unicode="&#xe95c;" glyph-name="surface1-33" horiz-adv-x="798" d="M797.519 561.454c0 0.060 0 0.131 0 0.202 0 220.199-178.507 398.706-398.706 398.706s-398.706-178.507-398.706-398.706c0-94.51 32.883-181.339 87.833-249.671l-0.602 0.774 295.92-369.194c3.677-4.582 9.276-7.49 15.555-7.49s11.878 2.908 15.525 7.451l0.030 0.039c47.358 59.104 193 240.598 295.654 369.141 54.502 67.345 87.498 154.046 87.498 248.453 0 0.104 0 0.208 0 0.312v-0.016zM622.63 367.707l-223.738-279.060-223.818 279.166c-0.666 0.906-1.332 1.811-2.051 2.664-39.434 48.546-63.314 111.11-63.314 179.251 0 0.367 0.001 0.734 0.002 1.101v-0.057c3.115 157.232 131.309 283.499 288.995 283.499s285.88-126.267 288.99-283.208l0.005-0.291c0.001-0.315 0.002-0.687 0.002-1.060 0-68.154-23.88-130.73-63.73-179.818l0.416 0.529c-0.719-0.906-1.385-1.758-2.104-2.664zM398.893 676.838c69.843-0.061 126.438-56.694 126.438-126.545 0-69.889-56.656-126.545-126.545-126.545s-126.545 56.656-126.545 126.545v0c0.030 69.867 56.653 126.499 126.514 126.545h0.004z" />
<glyph unicode="&#xe95d;" glyph-name="Varlk-41" d="M0 960v-1024h1024v1024zM942.076 17.924h-860.151v860.151h860.151zM307.203 551.556v101.242h409.595v-101.242z" />
<glyph unicode="&#xe95e;" glyph-name="surface1-26" horiz-adv-x="1120" d="M433.28 354.524c20.554 1.357 36.712 18.362 36.712 39.14 0 21.661-17.559 39.22-39.22 39.22s-39.22-17.559-39.22-39.22c0-0.024 0-0.047 0-0.071v0.004c0.774-21.752 18.595-39.092 40.465-39.092 0.444 0 0.887 0.007 1.328 0.021l-0.064-0.002zM740.016 393.567c0.068 0.893 0.106 1.934 0.106 2.984 0 23.16-18.775 41.935-41.935 41.935s-41.935-18.775-41.935-41.935c0-22.219 17.281-40.403 39.136-41.843l0.126-0.007h2.597c0.379-0.013 0.824-0.020 1.271-0.020 21.895 0 39.749 17.304 40.632 38.983l0.003 0.080v-0.177zM1109.788 132.366c-65.632 57.045-66.518 90.067-67.728 135.75v17.293c-0.345 5.781-0.541 12.542-0.541 19.348 0 33.030 4.626 64.979 13.267 95.235l-0.596-2.442c2.243 10.388 4.84 22.133 7.614 35.974v2.243c2.687 20.868 4.221 45.007 4.221 69.504 0 40.443-4.18 79.91-12.133 117.993l0.652-3.732c-0.604 2.489-1.312 4.615-2.172 6.66l0.107-0.286c-81.568 340.763-446.855 333.828-450.455 333.828h-2.597c-0.963 0.169-2.071 0.265-3.202 0.265s-2.239-0.097-3.317-0.282l0.115 0.016c-11.598 0-286.964 3.63-440.952-167.327-80.683-89.713-112.142-209.705-93.697-357.082v-2.243c2.951-13.811 5.371-25.586 7.614-35.974 8.101-27.435 12.762-58.955 12.762-91.564 0-7.239-0.23-14.425-0.682-21.55l0.049 0.973v-17.293c-1.21-45.801-2.243-78.824-67.875-135.75-6.36-5.599-10.351-13.759-10.351-22.85 0-6.090 1.791-11.762 4.875-16.518l-0.072 0.118c24.584-34.699 64.579-57.074 109.801-57.074 0.979 0 1.955 0.010 2.929 0.031l-0.145-0.002c37.689 1.121 72.609 12.024 102.594 30.242l-0.929-0.524c10.54 4.89 17.718 15.382 17.718 27.55 0 16.722-13.556 30.278-30.278 30.278-6.151 0-11.874-1.834-16.651-4.986l0.113 0.070c-59.022-32.846-96.117-21.956-116.037-9.857 39.633 36.405 64.383 88.473 64.383 146.321 0 3.932-0.114 7.838-0.34 11.714l0.025-0.536v17.264c0.407 6.763 0.639 14.67 0.639 22.631 0 37.343-5.102 73.495-14.648 107.795l0.67-2.821c-2.243 10.004-4.663 21.248-7.26 34.557-15.995 128.077 10.506 231.602 78.558 307.474 135.75 150.506 392.495 147.555 395.447 147.555h4.161c1.116-0.127 2.409-0.199 3.718-0.199s2.603 0.072 3.875 0.213l-0.157-0.014c13.162 0 327.867 3.276 393.145-299.418 5.521-27.854 8.68-59.879 8.68-92.641 0-22.189-1.449-44.039-4.258-65.462l0.27 2.521c-2.597-13.132-5.017-24.376-7.289-34.557-8.921-31.18-14.050-66.992-14.050-104.001 0-8.304 0.258-16.548 0.767-24.724l-0.056 1.12v-17.264c-0.187-3.226-0.294-7-0.294-10.798 0-58.237 25.092-110.614 65.054-146.909l0.164-0.147c-19.743-12.778-56.631-22.989-115.506 10.034-4.258 2.381-9.343 3.783-14.755 3.783-16.937 0-30.668-13.73-30.668-30.668 0-11.525 6.357-21.565 15.756-26.805l0.156-0.080c29.056-17.693 63.976-28.597 101.356-29.71l0.31-0.007c0.774-0.016 1.687-0.025 2.602-0.025 45.274 0 85.324 22.368 109.702 56.655l0.28 0.414c3.687 4.948 5.903 11.181 5.903 17.932 0 9.066-3.996 17.199-10.324 22.733l-0.035 0.030zM948.541 361.931c0 6.079 0.856 60.173-28.212 92.163-2.153 45.162-8.339 87.695-18.241 128.78l0.948-4.657c-3.237 11.066-12.216 19.435-23.409 21.745l-0.2 0.034c-1.708 0.947-3.708 1.825-5.791 2.522l-0.258 0.075c-5.194 1.564-126.897 38.718-200.674 114.62-19.92 20.392-37.243 38.010-60.97 33.17s-29.777-23.609-38.63-46.509c-84.342-217.112-296.496-175.443-305.143-172.846-2.138 0.538-4.593 0.847-7.12 0.847-16.755 0-30.337-13.582-30.337-30.337 0-14.796 10.592-27.118 24.607-29.797l0.19-0.030c17.017-3.089 36.603-4.855 56.601-4.855 1.11 0 2.22 0.005 3.327 0.016l-0.169-0.001c84.873 0 238.33 27.327 311.754 210.561l1.741-1.712c74.81-76.728 186.185-117.217 218.735-127.93 8.155-36.686 12.828-78.822 12.828-122.049 0-26.576-1.766-52.74-5.187-78.381l0.328 3.002c-8.229-43.226-19.070-80.975-32.912-117.242l1.571 4.687c-38.128-36.298-98.567-66.193-194.507-66.193-15.56 17.477-38.121 28.431-63.24 28.431-1.215 0-2.424-0.026-3.627-0.076l0.172 0.006c-43.647 0-78.263-25.586-78.263-57.753s34.616-58.255 77.761-58.255c0.911-0.034 1.981-0.054 3.056-0.054 24.405 0 46.453 10.090 62.201 26.326l0.021 0.022h1.092c2.077-0.040 4.526-0.063 6.98-0.063 50.325 0 98.407 9.599 142.517 27.066l-2.621-0.915c-45.211-74.338-113.617-139.852-214.397-139.852h-6.079c-231.72 0-278.495 348.229-278.495 351.8-1.292 15.669-14.328 27.896-30.219 27.896-16.743 0-30.316-13.573-30.316-30.316 0-0.852 0.035-1.695 0.104-2.529l-0.007 0.109c-0.042-0.389-0.066-0.841-0.066-1.298s0.024-0.909 0.071-1.354l-0.005 0.055c2.125-17.293 53.385-404.89 339.169-404.89h6.581c179.249 0 271.737 153.457 316.416 271.501 36.828 41.785 62.051 94.614 70.149 152.92l0.175 1.54z" />
<glyph unicode="&#xe95f;" glyph-name="surface1-27" horiz-adv-x="1223" d="M466.586 76.766v460.91l402.911 170.033v-116.801c12.955 20.467 34.71 34.356 59.815 36.346l0.272 0.017v144.006l-469.8 188.723-459.785-170.006v-527.049l437.801-272.026 233.815 126.654c-7.636 14.827-15.507 33.045-22.257 51.798l-1.065 3.389zM437.801 590.051l-136.214 71.414 365.932 151.477 153.271-61.587zM588.528 845.074l-357.605-147.487-130.109 68.094 357.605 131.581zM58.079 721.472l140.659-73.61v-140.391l59.578-32.293v141.569l149.013-77.653v-458.928l-349.25 216.437zM1221.988 469.662c-0.739 8.339-4.805 15.604-10.845 20.549l-0.053 0.042c-5.033 4.262-11.599 6.853-18.77 6.853-1.312 0-2.604-0.087-3.871-0.255l0.148 0.016c-165.668-19.708-220.347 62.069-222.89 66.139-5.418 8.526-14.812 14.101-25.509 14.101-1.059 0-2.106-0.055-3.137-0.161l0.129 0.011h-1.874c-9.655-0.818-17.938-6.050-22.903-13.647l-0.071-0.116c-2.222-3.401-56.553-85.873-223.265-66.139-1.037 0.128-2.238 0.201-3.455 0.201-15.2 0-27.742-11.379-29.573-26.082l-0.015-0.146c-0.038-0.177-0.060-0.381-0.060-0.589s0.022-0.412 0.063-0.608l-0.003 0.019c-1.366-17.003-28.624-404.973 270.232-531.467 3.42-1.485 7.402-2.359 11.585-2.383h2.392c4.183 0.028 8.155 0.901 11.764 2.458l-0.196-0.075c298.669 126.333 271.357 514.812 270.178 531.279zM939.144-1.771c-204.361 95.54-224.095 349.706-224.443 437.266 122.772-6.614 191.562 37.488 224.443 68.013 32.855-30.927 102.154-74.975 224.095-68.013-0.348-88.069-19.601-342.744-224.095-437.266zM928.246 235.74l-72.030 58.481-37.648-46.244 119.532-96.905 141.355 182.591-47.020 36.39z" />
<glyph unicode="&#xe960;" glyph-name="surface1-28" horiz-adv-x="1265" d="M1186.157 323.867c4.323 2.635 9.551 4.195 15.144 4.195 16.256 0 29.435-13.178 29.435-29.435 0-12.485-7.773-23.154-18.744-27.433l-0.2-0.069-361.536-175.778c-3.291 21.021-9.74 39.927-18.909 57.166l0.472-0.973zM0 753.611c-0.001-0.104-0.001-0.227-0.001-0.351 0-34.552 27.843-62.601 62.317-62.933l134.039-0.99c30.186 0.119 55.366 21.408 61.47 49.784l0.075 0.415 48.166-3.184 248.855-528.323c14.375 11.899 30.994 21.782 49.018 28.873l1.235 0.428-261.405 555.269-85.28 5.352c-1.507 33.157-28.619 59.503-61.946 59.779h-0.027l-134.034 1.82c-34.585-0.363-62.481-28.484-62.481-63.12 0-0.001 0-0.002 0-0.003v0zM58.628 753.611v42.814c0.085 2.285 1.916 4.116 4.193 4.201h0.008l134.007-0.99c2.214-0.246 3.955-1.987 4.199-4.18l0.002-0.021v-42.814c-0.099-2.274-1.925-4.090-4.193-4.174h-0.008l-134.007 0.963c-0.033-0.001-0.073-0.002-0.112-0.002-1.111 0-2.098 0.533-2.718 1.358l-0.006 0.009c-0.642 0.615-1.111 1.406-1.331 2.295l-0.007 0.033v0.508zM445.639 694.849l211.581-446.629h12.924c19.761-0.057 38.758-3.244 56.548-9.091l-1.291 0.367-202.188 427.389 144.095 68.128 82.738-176.768 161.836 74.924-82.363 178.507 148.618 70.295 208.717-440.929-440.983-208.878c21.3-10.024 39.483-23.065 54.903-38.82l0.032-0.033 464.236 219.421-258.917 547.268zM721.547 759.069l55.471 25.795 57.451-123.545-55.471-25.1zM539.963 50.821c-0.61 4.761-0.958 10.268-0.958 15.856 0 72.724 58.955 131.679 131.679 131.679s131.679-58.955 131.679-131.679c0-67.010-50.054-122.33-114.814-130.609l-0.655-0.068h-16.751c-66.584 0.278-121.499 49.881-130.107 114.146l-0.074 0.676zM661.929 139.714c-37.902-2.235-67.793-33.518-67.793-71.783 0-39.71 32.191-71.9 71.9-71.9s71.9 32.191 71.9 71.9c0 38.265-29.891 69.548-67.597 71.774l-0.196 0.009c-1.409 0.166-3.042 0.261-4.696 0.261s-3.287-0.095-4.892-0.279l0.196 0.018z" />
<glyph unicode="&#xe961;" glyph-name="surface1-29" d="M984.996 159.011l-200.501 200.501c-11.117 11.066-26.447 17.907-43.375 17.907s-32.258-6.841-43.377-17.909l0.002 0.002-52.184-52.077c-11.122-11.158-17.999-26.554-17.999-43.556 0-6.054 0.872-11.904 2.497-17.431l-0.11 0.436-19.676-19.622c-13.982-14.035-101.026 7.485-206.249 112.628s-126.744 192.374-112.869 206.436l19.703 19.596c5.095-1.513 10.952-2.399 17.011-2.433h0.018c16.952 0.036 32.287 6.926 43.388 18.044l0.001 0.001 52.157 52.077c11.113 11.125 17.987 26.487 17.987 43.455s-6.873 32.331-17.987 43.456v0l-200.501 200.501c-11.1 11.112-26.442 17.986-43.388 17.986s-32.288-6.874-43.388-17.986l-0.001-0.001-52.264-52.13c-11.132-11.091-18.020-26.436-18.020-43.389 0-6.058 0.879-11.91 2.518-17.436l-0.11 0.433s-16.682-16.922-17.484-17.858c-55.552-61.781-65.952-158.957-29.14-275.034 36.037-113.671 113.698-234.079 218.627-339.061s225.444-182.723 339.141-218.653c37.839-13.126 81.471-21.044 126.848-21.783l0.35-0.004c2.89-0.141 6.277-0.222 9.683-0.222 56.156 0 107.202 21.881 145.076 57.583l-0.105-0.098 10.961 10.934c5.114-1.544 10.991-2.433 17.075-2.433 16.952 0 32.292 6.899 43.366 18.042l0.003 0.003 52.157 52.237c11.146 11.13 18.040 26.514 18.040 43.509 0 16.915-6.83 32.234-17.883 43.351l0.003-0.003zM179.462 877.741l200.635-200.501-52.050-52.237-0.775 0.695-199.833 199.806zM818.045 37.026c0.014-0.027 0.022-0.060 0.022-0.094s-0.008-0.066-0.022-0.095l0.001 0.001c-44.19-44.057-122.279-51.355-219.883-20.451-104.501 33.123-216.087 105.49-314.252 203.522s-170.453 209.805-203.576 314.252c-30.931 97.711-23.632 175.799 20.558 219.856l5.534 5.48 155.562-155.562-14.249-14.249c-59.161-59.348 11.923-192.241 112.789-293.079 75.442-75.469 168.929-134.309 236.003-134.309 1.005-0.047 2.182-0.073 3.366-0.073 20.849 0 39.776 8.23 53.709 21.618l-0.026-0.025 14.249 14.409 155.696-155.83zM889.45 63.412l-200.501 200.501 52.184 52.237 200.501-200.501-52.237-52.237zM777.464 713.597c-55.614 55.948-132.622 90.575-217.717 90.575-0.357 0-0.715-0.001-1.072-0.002h0.055c-16.979 0-30.744-13.764-30.744-30.744s13.764-30.744 30.744-30.744v0c0.024 0 0.052 0 0.080 0 136.77 0 247.651-110.844 247.713-247.6v-0.006c0-0.028 0-0.061 0-0.094 0-16.979 13.764-30.744 30.744-30.744 16.946 0 30.69 13.711 30.744 30.645v0.005c0.001 0.295 0.002 0.644 0.002 0.994 0 85.089-34.616 162.094-90.534 217.699l-0.014 0.014zM887.552 823.659c-83.704 84.218-199.614 136.342-327.698 136.342-0.395 0-0.79 0-1.185-0.001h0.061c-16.979 0-30.744-13.764-30.744-30.744s13.764-30.744 30.744-30.744v0c0.055 0 0.121 0 0.187 0 222.841 0 403.489-180.648 403.489-403.489 0-0.066 0-0.132 0-0.198v0.010c0-16.979 13.764-30.744 30.744-30.744s30.744 13.764 30.744 30.744v0c0.001 0.38 0.002 0.829 0.002 1.279 0 128.011-52.071 243.861-136.188 327.523l-0.020 0.020zM667.161 603.482c-27.349 27.814-65.382 45.049-107.44 45.049-0.349 0-0.697-0.001-1.045-0.004h0.053c-16.979 0-30.744-13.764-30.744-30.744s13.764-30.744 30.744-30.744v0c0.386 0.006 0.842 0.009 1.298 0.009 24.985 0 47.565-10.299 63.726-26.884l0.019-0.019c16.642-16.427 26.949-39.236 26.949-64.452 0-0.217-0.001-0.434-0.002-0.65v0.033c0-16.979 13.764-30.744 30.744-30.744s30.744 13.764 30.744 30.744v0c0.003 0.38 0.005 0.83 0.005 1.279 0 41.927-17.128 79.853-44.769 107.164l-0.015 0.015z" />
<glyph unicode="&#xe962;" glyph-name="surface1-22" horiz-adv-x="1026" d="M875.973 85.971c92.765 92.57 150.154 220.558 150.154 361.95 0 141.458-57.443 269.5-150.276 362.071l-0.012 0.012c-200.36 199.934-525.163 199.934-725.523 0-92.804-92.577-150.221-220.591-150.221-362.016s57.416-269.44 150.211-362.006l0.010-0.010c200.307-199.961 525.216-199.961 725.656 0zM186.332 773.828c180.343 180.076 472.83 180.13 653.253 0 83.594-83.346 135.315-198.62 135.315-325.974s-51.721-242.629-135.305-325.963l-0.011-0.011c-180.422-180.023-472.91-179.97-653.253 0-83.401 83.434-134.984 198.68-134.984 325.974s51.583 242.54 134.985 325.976l-0.002-0.002zM513.078 256.251c7.109 0.081 13.528 2.973 18.209 7.615l-0.002-0.002c4.686 4.633 7.601 11.049 7.64 18.147v140.501h140.84c7.105 0.061 13.521 2.958 18.181 7.613v0c4.715 4.614 7.638 11.043 7.638 18.154 0 14.025-11.369 25.394-25.394 25.394-0.009 0-0.017 0-0.026 0h-140.839v140.494c0 14.098-11.429 25.527-25.527 25.527s-25.527-11.429-25.527-25.527v0-140.521h-140.867c-14.069 0-25.474-11.405-25.474-25.474s11.405-25.474 25.474-25.474h140.867v-140.468c-0.015-0.326-0.024-0.708-0.024-1.092 0-13.678 11.057-24.773 24.72-24.835h0.006z" />
<glyph unicode="&#xe963;" glyph-name="surface1-23" horiz-adv-x="2042" d="M2041.214 397.811c0.147 1.296 0.231 2.798 0.231 4.32 0 6.869-1.707 13.339-4.719 19.010l0.106-0.22c-262.633 503.945-522.353 539.078-590.99 539.078h-935.859c-0.31 0.009-0.674 0.013-1.039 0.013-22.34 0-40.45-18.11-40.45-40.45s18.11-40.45 40.45-40.45c0.366 0 0.73 0.005 1.093 0.014l-0.054-0.001h924.424c0.938-0.115 2.024-0.18 3.126-0.18s2.188 0.066 3.255 0.193l-0.129-0.013c2.084 0 199.419 16.191 430.739-335.277h-308.426c-0.111-0.001-0.243-0.001-0.375-0.001-38.261 0-69.278 31.017-69.278 69.278 0 1.796 0.068 3.576 0.203 5.338l-0.014-0.234v144.061c0.009 0.31 0.013 0.674 0.013 1.039 0 22.34-18.11 40.45-40.45 40.45s-40.45-18.11-40.45-40.45c0-0.366 0.005-0.73 0.014-1.093l-0.001 0.054v-143.98c0-62.385 40.076-155.255 149.751-155.255h358.014c13.359-23.111 26.717-47.611 40.424-73.259v-181.171c0-28.714-23.278-51.992-51.992-51.992v0h-53.435c-19.075 79.915-89.878 138.419-174.345 138.419s-155.27-58.503-174.099-137.2l-0.246-1.219h-477.254c-19.023 79.906-89.798 138.416-174.238 138.416s-155.215-58.51-173.993-137.199l-0.245-1.217h-65.378c-28.72 0-52.004 23.274-52.019 51.991v69.253h67.488c0.31-0.009 0.674-0.013 1.039-0.013 22.34 0 40.45 18.11 40.45 40.45s-18.11 40.45-40.45 40.45c-0.366 0-0.73-0.005-1.093-0.014l0.054 0.001h-306.877c-21.888-0.58-39.411-18.462-39.411-40.437s17.522-39.856 39.357-40.436l0.054-0.001h158.060v-69.332c0.106-73.342 59.526-132.771 132.854-132.893h65.416c18.503-80.675 89.676-139.941 174.692-139.941s156.189 59.266 174.459 138.737l0.233 1.204h476.96c18.503-80.675 89.676-139.941 174.692-139.941s156.189 59.266 174.459 138.737l0.233 1.204h53.435c73.319 0.152 132.714 59.547 132.866 132.852v180.277c-0.213 3.322-0.688 6.41-1.412 9.401l0.076-0.37zM855.199 17.221c-54.29 0.242-98.231 44.21-98.427 98.488v0.019c0.008 14.974 3.509 29.128 9.731 41.695l-0.246-0.55c15.999 33.762 49.799 56.694 88.955 56.694 54.197 0 98.133-43.936 98.133-98.133s-43.936-98.133-98.133-98.133c-0.004 0-0.009 0-0.013 0h0.001zM1681.517 17.221c-39.933 0.074-74.276 23.929-89.628 58.156l-0.25 0.623c-5.3 11.685-8.436 25.326-8.549 39.688v0.041c0.030 54.307 44.062 98.32 98.374 98.32 54.33 0 98.374-44.043 98.374-98.374 0-54.311-44.013-98.343-98.317-98.374h-0.003zM176.522 728.921h607.047c0.31-0.009 0.674-0.013 1.039-0.013 22.34 0 40.45 18.11 40.45 40.45s-18.11 40.45-40.45 40.45c-0.366 0-0.73-0.005-1.093-0.014l0.054 0.001h-607.047c-21.888-0.58-39.411-18.462-39.411-40.437s17.522-39.856 39.357-40.436l0.054-0.001zM824.928 468.399c0 0.008 0 0.017 0 0.027 0 22.325-18.098 40.424-40.424 40.424h-744.054c-22.34 0-40.45-18.11-40.45-40.45s18.11-40.45 40.45-40.45v0h744.054c22.325 0 40.424 18.098 40.424 40.424 0 0.009 0 0.019 0 0.028v-0.001zM315.266 618.711c0-0.001 0-0.001 0-0.002 0-22.209 17.898-40.237 40.056-40.448h583.77c21.888 0.58 39.411 18.462 39.411 40.437s-17.522 39.856-39.357 40.436l-0.054 0.001h-584.845c-21.658-0.61-38.982-18.312-38.982-40.061 0-0.127 0.001-0.255 0.002-0.382v0.019z" />
<glyph unicode="&#xe964;" glyph-name="surface1-24" d="M794.19 960c12.872-4.521 17.154-13.909 17.154-27.101q-0.186-456.934-0.186-913.816v-9.601c2.66 2.42 4.229 3.83 5.745 5.319l169.279 169.199c8.75 8.723 20.478 10.638 28.803 4.042 3.963-3.165 6.303-8.351 9.362-12.606v-9.175c-3.59-5.053-6.569-10.638-10.877-15.080q-101.966-102.286-204.252-204.226c-4.308-4.335-10-7.34-15.053-10.957h-9.202c-5.159 3.777-10.957 6.915-15.452 11.409q-103.243 102.791-206.22 205.874c-6.888 6.888-10.505 14.521-7.261 24.202 2.942 8.458 10.845 14.42 20.141 14.42 5.179 0 9.926-1.851 13.616-4.927l-0.034 0.028c1.755-1.463 3.324-3.165 4.947-4.761l166.965-166.646c1.596-1.543 3.245-3.032 5.957-5.612 0.213 4.149 0.452 6.915 0.452 9.654v906.848c0 2.101 0 4.122 0 6.276-0.798 13.111 4.042 22.659 16.941 27.234zM229.571-63.92c-12.393 5.106-16.276 14.548-16.276 27.739q0.399 456.775 0.213 913.656v9.388c-2.66-2.66-4.415-4.149-5.957-5.665q-84.493-84.387-168.88-168.827c-5.080-5.080-10.638-8.67-18.085-8.271-8.335 0.022-15.484 5.078-18.567 12.288l-0.050 0.132c-1.282 2.616-2.031 5.694-2.031 8.946 0 4.999 1.771 9.585 4.719 13.164l-0.028-0.036c1.742 2.115 3.543 4.017 5.465 5.788l0.040 0.036q101.568 101.594 203.374 203.109c4.775 4.297 9.98 8.395 15.445 12.142l0.512 0.332h10.425c5.918-3.928 11.055-7.881 15.901-12.156l-0.156 0.135q102.897-102.339 205.449-205.13c5.878-5.878 9.654-12.34 8.191-20.877-1.651-10.248-10.432-17.982-21.020-17.982-4.939 0-9.485 1.683-13.096 4.507l0.047-0.035c-2.134 1.705-4.043 3.445-5.834 5.301l-0.017 0.018-167.285 167.338c-1.543 1.543-3.191 3.032-6.037 5.771v-9.335q0-456.988 0.186-913.895c0-13.298-3.75-22.659-16.383-27.606z" />
</font>
</defs>
</svg>
