<svg xmlns="http://www.w3.org/2000/svg" viewBox="0 0 376.43 59.71"><defs><style>.cls-1{fill:#313131;}.cls-2{fill:#3a71b8;}</style></defs><title>Varlık 2</title><g id="katman_2" data-name="katman 2"><g id="Layer_1" data-name="Layer 1"><circle class="cls-1" cx="19.43" cy="29.05" r="5.27"/><circle class="cls-1" cx="40.28" cy="29.05" r="5.27"/><path class="cls-2" d="M59.71,29.86A29.89,29.89,0,0,0,29.86,0V6.25a23.6,23.6,0,0,1,3.12,47v-4.2a3.12,3.12,0,0,0-3.12-3.12v7.53h0V45.93a3.12,3.12,0,0,0-3.13,3.12v7.54a3.13,3.13,0,0,0,3.13,3.12h0A29.88,29.88,0,0,0,59.71,29.86Z"/><path class="cls-1" d="M86.88,36.69c0,3.51-1,6.14-2.94,7.91s-4.79,2.65-8.5,2.65a22.84,22.84,0,0,1-5.26-.62V39c1.88.07,3,.11,3.28.11a5.82,5.82,0,0,0,3.46-.78,3.18,3.18,0,0,0,1-2.66V12.3h8.95Z"/><path class="cls-1" d="M111.94,23.93a12.8,12.8,0,0,1,4.16,9.69,12.81,12.81,0,0,1-4.16,9.7,14.78,14.78,0,0,1-20.07,0,12.87,12.87,0,0,1-4.11-9.7,12.86,12.86,0,0,1,4.11-9.69,14.78,14.78,0,0,1,20.07,0Zm-13.62,5.8a5.46,5.46,0,0,0-1.41,3.89,5.47,5.47,0,0,0,1.41,3.93,5.09,5.09,0,0,0,7.2,0A5.47,5.47,0,0,0,107,33.62a5.48,5.48,0,0,0-1.43-3.87,5,5,0,0,0-7.2,0Z"/><path class="cls-1" d="M139.6,23.93a12.76,12.76,0,0,1,4.16,9.69,12.77,12.77,0,0,1-4.16,9.7,14.78,14.78,0,0,1-20.07,0,12.87,12.87,0,0,1-4.11-9.7,12.86,12.86,0,0,1,4.11-9.69,14.78,14.78,0,0,1,20.07,0ZM126,29.73a5.45,5.45,0,0,0-1.4,3.89,5.47,5.47,0,0,0,1.4,3.93A4.79,4.79,0,0,0,129.62,39a4.71,4.71,0,0,0,3.56-1.5,5.43,5.43,0,0,0,1.43-3.91,5.43,5.43,0,0,0-1.43-3.87,4.67,4.67,0,0,0-3.56-1.53A4.74,4.74,0,0,0,126,29.73Z"/><path class="cls-1" d="M163.57,23.8l-4.21,5.46A8.48,8.48,0,0,0,153.85,27c-1.21,0-1.82.33-1.82,1a.87.87,0,0,0,.21.57,1.63,1.63,0,0,0,.54.42c.23.1.57.24,1,.41l2.6,1a18.2,18.2,0,0,1,5.75,3.33A6.38,6.38,0,0,1,164,38.62a7.54,7.54,0,0,1-3,6.32,12.42,12.42,0,0,1-7.75,2.31q-7.39,0-11.18-5L146.21,37a10.18,10.18,0,0,0,7.17,3.23c1.53,0,2.29-.38,2.29-1.15,0-.45-.5-.88-1.51-1.3l-2.91-1.19a17.08,17.08,0,0,1-5.69-3.43,6.76,6.76,0,0,1-1.85-4.95,7.27,7.27,0,0,1,2.76-6A11.49,11.49,0,0,1,153.8,20,12.89,12.89,0,0,1,163.57,23.8Z"/><path class="cls-1" d="M188.64,36.75H172q1.45,3,5.82,3a13,13,0,0,0,6.82-2l3.22,6.09a16.82,16.82,0,0,1-10.35,3.48A14.7,14.7,0,0,1,167,43.38a12.86,12.86,0,0,1-4.11-9.76,13,13,0,0,1,4-9.69A13.57,13.57,0,0,1,176.78,20a11.89,11.89,0,0,1,9,3.59,12.2,12.2,0,0,1,3.4,8.73A16.7,16.7,0,0,1,188.64,36.75ZM173.48,28a5.38,5.38,0,0,0-1.79,2.89h9a3.67,3.67,0,0,0-1.29-2.83,4.52,4.52,0,0,0-3-1.07A4.62,4.62,0,0,0,173.48,28Z"/><path class="cls-1" d="M212.56,22.89a10.83,10.83,0,0,1,2.7,7.72v16h-8.94V31.91a3.77,3.77,0,0,0-1.07-2.78,3.7,3.7,0,0,0-2.73-1.07,3.6,3.6,0,0,0-2.7,1.07,3.83,3.83,0,0,0-1,2.78V46.63h-8.95v-26H198v2.14A10.22,10.22,0,0,1,205.33,20,9.41,9.41,0,0,1,212.56,22.89Z"/><path class="cls-2" d="M249.09,36.75H232.45q1.45,3,5.82,3a13,13,0,0,0,6.81-2l3.23,6.08A16.77,16.77,0,0,1,238,47.25a14.67,14.67,0,0,1-10.51-3.88,12.85,12.85,0,0,1-4.1-9.75,13,13,0,0,1,4-9.69A13.55,13.55,0,0,1,237.23,20a11.85,11.85,0,0,1,9,3.59,12.21,12.21,0,0,1,3.41,8.73A16.75,16.75,0,0,1,249.09,36.75ZM233.93,28a5.45,5.45,0,0,0-1.8,2.89h9.05a3.67,3.67,0,0,0-1.3-2.83,4.47,4.47,0,0,0-3-1.07A4.62,4.62,0,0,0,233.93,28Z"/><path class="cls-2" d="M259.23,46.62h-9v-39h9Z"/><path class="cls-2" d="M285.59,36.75H269q1.46,3,5.82,3a13,13,0,0,0,6.82-2l3.22,6.08a16.73,16.73,0,0,1-10.35,3.49A14.67,14.67,0,0,1,264,43.37a12.82,12.82,0,0,1-4.11-9.75,13,13,0,0,1,4-9.69A13.57,13.57,0,0,1,273.74,20a11.87,11.87,0,0,1,9,3.59,12.2,12.2,0,0,1,3.4,8.73A16.75,16.75,0,0,1,285.59,36.75ZM270.43,28a5.44,5.44,0,0,0-1.79,2.89h9.05a3.71,3.71,0,0,0-1.3-2.83,4.52,4.52,0,0,0-3-1.07A4.62,4.62,0,0,0,270.43,28Z"/><path class="cls-2" d="M305,46.62,295.73,32.9V46.62h-8.94v-39h8.94V31.13l8.11-10.51h10.35l-8.94,11.6,9.56,14.4Z"/><path class="cls-2" d="M315.39,20.62V14.38h8.94v6.24h7v7.49h-7v7.7a3.15,3.15,0,0,0,1,2.65,5.82,5.82,0,0,0,3.46.78c.31,0,1.41,0,3.28-.1v7.48a22.3,22.3,0,0,1-5.25.63c-3.68,0-6.5-.88-8.48-2.65s-3-4.41-3-7.91V28.11h-5.71"/><path class="cls-2" d="M350,20.62v7.91h-2.13A6.47,6.47,0,0,0,343.26,30c-1,1-1.56,2.57-1.56,4.76V46.62h-8.95v-26h8.17v2.76a7.94,7.94,0,0,1,6.55-3.17A7.62,7.62,0,0,1,350,20.62Z"/><path class="cls-2" d="M372.27,23.93a12.76,12.76,0,0,1,4.16,9.69,12.77,12.77,0,0,1-4.16,9.7,14.78,14.78,0,0,1-20.07,0,12.87,12.87,0,0,1-4.11-9.7,12.86,12.86,0,0,1,4.11-9.69,14.78,14.78,0,0,1,20.07,0Zm-13.62,5.79a5.49,5.49,0,0,0-1.4,3.9,5.47,5.47,0,0,0,1.4,3.93A4.77,4.77,0,0,0,362.29,39a4.69,4.69,0,0,0,3.56-1.51,5.43,5.43,0,0,0,1.43-3.9,5.46,5.46,0,0,0-1.43-3.87,4.67,4.67,0,0,0-3.56-1.53A4.75,4.75,0,0,0,358.65,29.72Z"/><path class="cls-1" d="M29.86,13.79A1.88,1.88,0,0,1,28,11.92v-10a1.88,1.88,0,0,1,3.75,0V11.92A1.87,1.87,0,0,1,29.86,13.79Z"/><path class="cls-1" d="M29.86,6.25V0a29.86,29.86,0,0,0-4.51,59.37V53A23.61,23.61,0,0,1,29.86,6.25Z"/></g></g></svg>