<?xml version="1.0" encoding="utf-8"?>
<!-- Generator: Adobe Illustrator 23.0.2, SVG Export Plug-In . SVG Version: 6.00 Build 0)  -->
<svg version="1.1" id="Слой_1" xmlns="http://www.w3.org/2000/svg" xmlns:xlink="http://www.w3.org/1999/xlink" x="0px" y="0px"
	 viewBox="0 0 49.54 29.64" style="enable-background:new 0 0 49.54 29.64;" xml:space="preserve">
<style type="text/css">
	.st0{fill-rule:evenodd;clip-rule:evenodd;fill:#FFFFFF;}
</style>
<path class="st0" d="M48.01,22.98h0.05c0.02,0,0.04,0,0.06,0.01c0.01,0.01,0.02,0.03,0.02,0.04c0,0.02-0.01,0.04-0.02,0.05
	c-0.02,0.01-0.04,0.01-0.06,0.01h-0.06V22.98L48.01,22.98z M48.01,23.16h0.07l0.06,0.17h0.11l-0.08-0.19
	c0.04-0.02,0.07-0.06,0.07-0.11c0-0.04-0.02-0.09-0.05-0.11c-0.03-0.02-0.07-0.02-0.11-0.02h-0.18v0.42h0.1V23.16L48.01,23.16z
	 M48.08,23.48c0.2,0,0.37-0.17,0.37-0.36c0-0.2-0.16-0.37-0.37-0.37c-0.2,0-0.37,0.16-0.37,0.37
	C47.71,23.32,47.88,23.48,48.08,23.48L48.08,23.48z M47.6,23.12c0-0.27,0.21-0.48,0.48-0.48c0.26,0,0.48,0.22,0.48,0.48
	c0,0.26-0.21,0.48-0.48,0.48C47.81,23.6,47.6,23.38,47.6,23.12L47.6,23.12z M48.01,18.07h0.05c0.02,0,0.05,0,0.06,0
	c0.01,0.01,0.02,0.03,0.02,0.04c0,0.02-0.01,0.04-0.02,0.05c-0.02,0.01-0.04,0.01-0.06,0.01h-0.05V18.07L48.01,18.07z M48.01,18.25
	h0.07l0.06,0.16h0.11l-0.08-0.18c0.04-0.02,0.07-0.06,0.07-0.11c0-0.04-0.02-0.08-0.05-0.1C48.17,18,48.13,18,48.09,18h-0.18v0.42
	h0.1V18.25L48.01,18.25z M47.71,18.21c0-0.2,0.16-0.36,0.37-0.36c0.2,0,0.36,0.16,0.36,0.36c0,0.2-0.16,0.36-0.36,0.36
	C47.88,18.57,47.71,18.41,47.71,18.21L47.71,18.21z M48.08,18.69c0.27,0,0.48-0.22,0.48-0.48c0-0.26-0.21-0.48-0.48-0.48
	c-0.27,0-0.48,0.21-0.48,0.48C47.6,18.47,47.81,18.69,48.08,18.69L48.08,18.69z M26.54,12.62c-0.19,1.8-0.53,3.62-0.8,5.42
	l-0.07,0.39h1.53c0.55-3.55,0.68-4.25,1.54-4.16c0.14-0.73,0.39-1.37,0.58-1.69c-0.64-0.13-1,0.23-1.46,0.92
	c0.04-0.29,0.1-0.59,0.09-0.88H26.54L26.54,12.62z M39.9,12.62c-0.19,1.8-0.53,3.62-0.8,5.42l-0.07,0.39h1.53
	c0.55-3.55,0.68-4.25,1.54-4.16c0.14-0.73,0.39-1.37,0.58-1.69c-0.64-0.13-1,0.23-1.47,0.92c0.04-0.29,0.11-0.59,0.09-0.88H39.9
	L39.9,12.62z M43.83,15.94c0-1.14,0.49-1.95,1.19-1.95c0.52,0,0.81,0.4,0.81,1.14c0,1.15-0.5,1.96-1.21,1.96
	C44.09,17.09,43.83,16.7,43.83,15.94L43.83,15.94z M48.04,11.29h-1.51l-0.34,2.06c-0.42-0.55-0.87-0.79-1.46-0.79
	c-1.35,0-2.49,1.63-2.49,3.56c0,1.45,0.73,2.41,1.85,2.41c0.56,0,0.99-0.2,1.41-0.64l-0.07,0.54h1.45L48.04,11.29L48.04,11.29z
	 M13.95,14.46c0,0.74,0.36,1.24,1.16,1.62c0.62,0.29,0.71,0.38,0.71,0.64c0,0.36-0.27,0.53-0.88,0.53c-0.46,0-0.88-0.07-1.37-0.23
	c0,0-0.2,1.28-0.21,1.34c0.35,0.07,0.66,0.14,1.59,0.17c1.61,0,2.36-0.62,2.36-1.94c0-0.8-0.31-1.27-1.08-1.62
	c-0.64-0.29-0.71-0.36-0.71-0.63c0-0.32,0.25-0.48,0.75-0.48c0.3,0,0.71,0.03,1.1,0.09l0.22-1.35c-0.4-0.06-1-0.11-1.35-0.11
	C14.54,12.49,13.94,13.39,13.95,14.46L13.95,14.46z M24.11,14.85c0.01-0.12,0.16-1.04-0.71-1.04c-0.48,0-0.83,0.37-0.97,1.04H24.11
	L24.11,14.85z M25.22,16.85c-0.55,0.26-1.04,0.37-1.58,0.37c-0.88,0-1.42-0.35-1.32-1.19h3.03c0.13-0.59,0.19-1,0.19-1.43
	c0-1.29-0.8-2.1-2.05-2.1c-1.53,0-2.66,1.46-2.66,3.45c0,1.7,0.89,2.59,2.59,2.59c0.53,0,1.04-0.08,1.56-0.24L25.22,16.85
	L25.22,16.85z M20.29,17.06c-0.1,0.04-0.24,0.05-0.41,0.05c-0.36,0-0.52-0.13-0.52-0.43c0-0.18,0.26-1.56,0.43-2.66h0.78l0.21-1.4
	H20l0.18-0.88h-1.52c0,0-0.57,3.42-0.66,3.96c-0.1,0.62-0.22,1.29-0.21,1.55c0,0.82,0.43,1.28,1.21,1.28c0.35,0,0.68-0.06,1.1-0.19
	L20.29,17.06L20.29,17.06z M38.72,15.35c0.08-0.48,0.13-0.85,0.12-1.15c0-1.11-0.69-1.7-2.01-1.7c-0.57,0-1.07,0.08-1.83,0.31
	c0,0-0.2,1.21-0.21,1.31c0.25-0.08,0.87-0.27,1.62-0.26c0.71,0,0.98,0.14,0.98,0.53c0,0.1-0.01,0.19-0.06,0.38
	c-0.23-0.03-0.45-0.05-0.62-0.05c-1.7,0-2.68,0.82-2.68,2.24c0,0.94,0.57,1.59,1.4,1.59c0.7,0,1.22-0.23,1.6-0.7l-0.03,0.6
	c0,0,1.06,0,1.27,0C38.3,17.99,38.58,16.19,38.72,15.35L38.72,15.35z M37.15,15.84c-0.16-0.02-0.23-0.02-0.34-0.02
	c-0.87,0-1.3,0.3-1.3,0.88c0,0.36,0.21,0.59,0.55,0.59C36.67,17.3,37.12,16.7,37.15,15.84L37.15,15.84z M32.74,11.11
	c-2.03,0-3.44,1.78-3.44,4.34c0,1.9,1.02,3.08,2.67,3.08c0.42,0,0.79-0.06,1.35-0.21l0.27-1.63c-0.51,0.25-0.92,0.37-1.3,0.37
	c-0.89,0-1.42-0.65-1.42-1.74c0-1.57,0.8-2.68,1.94-2.68c0.43,0,0.82,0.11,1.37,0.39l0.25-1.55C34.2,11.39,33.41,11.11,32.74,11.11
	L32.74,11.11z M13.23,15.35c0.08-0.48,0.13-0.85,0.12-1.15c0-1.11-0.69-1.7-2.01-1.7c-0.56,0-1.07,0.08-1.83,0.31
	c0,0-0.2,1.21-0.21,1.31c0.25-0.08,0.87-0.27,1.62-0.26c0.71,0,0.98,0.14,0.98,0.53c0,0.1-0.01,0.19-0.06,0.38
	c-0.23-0.03-0.45-0.05-0.62-0.05c-1.7,0-2.68,0.82-2.68,2.24c0,0.94,0.57,1.59,1.4,1.59c0.7,0,1.22-0.23,1.6-0.7l-0.03,0.6
	c0,0,1.06,0,1.27,0C12.82,17.99,13.1,16.19,13.23,15.35L13.23,15.35z M11.66,15.84c-0.16-0.02-0.23-0.02-0.34-0.02
	c-0.87,0-1.31,0.3-1.31,0.88c0,0.36,0.21,0.59,0.55,0.59C11.19,17.3,11.64,16.7,11.66,15.84L11.66,15.84z M8.82,11.29H6.45
	l-1.48,4.42L4.9,11.29h-2.2l-1.19,7.14h1.43l0.92-5.46l0.13,5.46h1.04l1.96-5.49l-0.88,5.49h1.53L8.82,11.29L8.82,11.29z
	 M49.54,14.82c0,8.19-6.64,14.82-14.82,14.82c-3.35,0-6.45-1.12-8.93-2.99c0,0,0,0,0,0c2.08-1.94,3.66-4.41,4.49-7.21H28.9
	c-0.81,2.47-2.25,4.66-4.13,6.36c-1.88-1.71-3.32-3.89-4.13-6.36h-1.38c0.84,2.79,2.41,5.27,4.49,7.21l0,0
	c-2.48,1.88-5.58,2.99-8.93,2.99C6.64,29.64,0,23.01,0,14.82C0,6.64,6.64,0,14.82,0c3.36,0,6.45,1.11,8.93,2.99l0,0
	c-2.21,2.06-3.85,4.72-4.64,7.73h1.36c0.77-2.69,2.28-5.06,4.3-6.89c2.02,1.83,3.53,4.2,4.3,6.89h1.36
	c-0.79-3.01-2.43-5.68-4.64-7.73c0,0,0,0,0,0C28.27,1.11,31.37,0,34.72,0C42.91,0,49.54,6.64,49.54,14.82L49.54,14.82z"/>
</svg>
