<?xml version="1.0" encoding="utf-8"?>
<!-- Generator: Adobe Illustrator 23.0.2, SVG Export Plug-In . SVG Version: 6.00 Build 0)  -->
<svg version="1.1" id="Режим_изоляции"
	 xmlns="http://www.w3.org/2000/svg" xmlns:xlink="http://www.w3.org/1999/xlink" x="0px" y="0px" viewBox="0 0 410.38 109.44"
	 style="enable-background:new 0 0 410.38 109.44;" xml:space="preserve">
<style type="text/css">
	.st0{fill:#FFFFFF;}
</style>
<g>
	<path class="st0" d="M144.7,29.57c-5.11,0-10.22,0-15.33,0c-1.26-0.04-2.46,0.97-2.63,2.22c-0.24,1.4-0.44,2.81-0.67,4.22
		c-0.89-1.23-1.69-2.53-2.88-3.49c-2.96-2.49-6.84-3.53-10.61-4.04c-5.25-0.66-10.68-0.44-15.73,1.24
		c-6.27,2-11.87,5.92-16.02,11.02c-4.82,5.85-7.66,13.22-8.34,20.74c-0.42,4.78,0.15,9.7,1.95,14.17c1.26,3.12,3.12,6.02,5.57,8.35
		c2.31,2.25,5.19,3.88,8.26,4.84c3.42,1.08,7.03,1.43,10.6,1.33c7.39-0.24,14.74-3.27,19.94-8.56c-0.1,1.44-0.44,2.85-0.61,4.28
		c-0.16,1.43,1.04,2.83,2.48,2.87c4.28,0.03,8.56,0,12.85,0.01c0.93,0.01,1.9,0.05,2.78-0.31c1.46-0.57,2.57-1.97,2.76-3.54
		c2.72-17.12,5.4-34.25,8.11-51.38c0.11-0.71,0.28-1.46,0.02-2.15C146.86,30.32,145.81,29.55,144.7,29.57z M121.79,64.25
		c-1.45,3.08-3.86,5.7-6.83,7.38c-3.84,2.17-8.5,2.79-12.79,1.83c-2.83-0.62-5.49-2.27-7.06-4.73c-1.84-2.84-2.2-6.41-1.62-9.69
		c0.57-3.58,2.22-7,4.78-9.59c2.53-2.58,5.92-4.29,9.49-4.84c3.36-0.49,6.97-0.2,9.99,1.48c2.59,1.42,4.51,3.94,5.29,6.77
		C124.11,56.64,123.43,60.74,121.79,64.25z"/>
	<path class="st0" d="M227.69,30.1c-0.48-0.37-1.08-0.56-1.68-0.54c-4.99,0-9.98,0.01-14.96,0c-1.61-0.12-3.26,0.68-4.12,2.05
		c-7.02,10.35-14.06,20.7-21.08,31.05c-2.97-9.95-5.96-19.9-8.93-29.85c-0.49-1.86-2.31-3.27-4.24-3.26c-5.11,0-10.22,0-15.32,0
		c-1.23,0.02-2.32,1.03-2.5,2.23c-0.17,0.78,0.18,1.54,0.43,2.26c2.99,8.79,5.99,17.57,8.97,26.35c2.52,7.47,5.11,14.91,7.6,22.39
		c-0.85,1.11-1.62,2.27-2.44,3.4c-4.46,6.31-8.94,12.62-13.41,18.93c-0.71,0.92-0.7,2.3,0,3.23c0.32,0.47,0.85,0.71,1.29,1.05
		c5.96,0.06,11.92,0.03,17.87,0.01c-0.13-0.06-0.38-0.18-0.51-0.24c1.03-0.06,1.9-0.83,2.5-1.62
		c17.06-24.61,34.11-49.22,51.15-73.83C229.08,32.6,228.79,30.91,227.69,30.1z"/>
	<path class="st0" d="M76.2,15.06c-0.98-3.44-2.95-6.62-5.71-8.92c-2.72-2.31-6.06-3.78-9.48-4.71c-3.78-1-7.7-1.4-11.6-1.42
		C38.63,0.03,27.86-0.04,17.08,0.04c-2.1,0.05-4,1.87-4.17,3.96C8.72,30.53,4.55,57.05,0.36,83.57c-0.07,1.12-0.61,2.25-0.21,3.36
		C0.5,88,1.58,88.78,2.71,88.75c5.1,0,10.21,0,15.31,0c2.05,0.01,3.95-1.58,4.29-3.6c1.11-6.95,2.19-13.9,3.29-20.84
		c0.17-1.06,0.24-2.18,0.87-3.09c0.78-1.24,2.2-2.02,3.67-2.04c4.28-0.06,8.56,0.04,12.84-0.05c5.86-0.25,11.78-1.39,17.01-4.12
		c3.48-1.79,6.58-4.32,9.03-7.37c4.25-5.27,6.48-11.87,7.56-18.48C77.34,24.5,77.52,19.63,76.2,15.06z M52.77,30.86
		c-0.54,2.84-1.78,5.69-4.11,7.52c-2.5,2.01-5.78,2.63-8.9,2.86c-3.51,0.23-7.03,0.1-10.55,0.13c1.08-6.79,2.15-13.59,3.23-20.38
		c0.11-0.61,0.14-1.25,0.44-1.8c0.45-0.85,1.39-1.42,2.36-1.39c2.73,0.01,5.47-0.06,8.19,0.15c2.05,0.18,4.15,0.53,5.97,1.53
		c1.56,0.84,2.76,2.29,3.3,3.97C53.46,25.86,53.21,28.43,52.77,30.86z"/>
	<path class="st0" d="M372.33,29.56c-5.11,0-10.23,0-15.33,0c-1.26-0.04-2.46,0.96-2.63,2.22c-0.24,1.4-0.44,2.8-0.67,4.2
		c-0.93-1.25-1.75-2.61-3-3.58c-2.84-2.32-6.49-3.35-10.06-3.88c-4.42-0.59-8.96-0.6-13.32,0.4c-4.05,0.92-7.92,2.6-11.36,4.93
		c-7.53,5.06-12.85,13.13-14.91,21.93c-1.23,5.12-1.49,10.53-0.29,15.68c1.07,4.65,3.33,9.09,6.78,12.42
		c2.33,2.3,5.25,3.95,8.36,4.93c3.55,1.11,7.32,1.47,11.03,1.3c4.37-0.2,8.7-1.37,12.57-3.42c2.58-1.38,5.02-3.08,7.02-5.23
		c-0.21,1.16-0.38,2.34-0.58,3.51c-0.08,0.54-0.24,1.09-0.08,1.64c0.23,1.21,1.39,2.17,2.63,2.12c4.6,0,9.19,0,13.79,0
		c1.76,0.03,3.46-1.12,4.11-2.75c0.29-0.71,0.33-1.49,0.47-2.24c2.64-16.69,5.26-33.39,7.9-50.09c0.11-0.75,0.32-1.54,0.06-2.27
		C374.52,30.33,373.45,29.55,372.33,29.56z M349.47,64.14c-1.41,3.04-3.75,5.65-6.63,7.34c-3.61,2.13-7.99,2.84-12.11,2.16
		c-3.04-0.48-6-2.03-7.77-4.6c-1.93-2.75-2.41-6.29-1.91-9.55c0.49-3.7,2.14-7.27,4.76-9.95c2.54-2.63,5.96-4.38,9.57-4.94
		c3.58-0.53,7.47-0.16,10.58,1.83c2.44,1.54,4.17,4.09,4.83,6.89C351.67,56.95,351.01,60.8,349.47,64.14z"/>
	<path class="st0" d="M407.72,0.02c-4.99,0-9.98-0.02-14.97,0.01c-1.3,0.04-2.41,1.18-2.51,2.46c-4.35,27.73-8.72,55.46-13.07,83.2
		c-0.27,1.51,1.01,3.06,2.55,3.05c4.47,0.01,8.94,0.01,13.41,0c1.57-0.01,3.07-0.94,3.81-2.31c0.55-0.99,0.56-2.15,0.77-3.23
		c4.19-26.65,8.41-53.3,12.62-79.95C410.69,1.66,409.35,0,407.72,0.02z"/>
	<path class="st0" d="M303.2,13.2c-1.14-2.88-3.04-5.47-5.47-7.39c-4-3.18-9.05-4.69-14.05-5.36c-3.64-0.53-7.33-0.43-11-0.44
		c-8.12,0-16.25,0-24.38,0c-1.42,0.05-2.86-0.11-4.27,0.1c-1.4,0.32-2.63,1.32-3.17,2.65c-0.37,0.93-0.41,1.95-0.59,2.92
		c-4.19,26.6-8.38,53.21-12.59,79.81c-0.26,1.16,0.32,2.43,1.39,2.97c0.68,0.36,1.47,0.29,2.22,0.29c5.17-0.01,10.33,0,15.5-0.01
		c1.12-0.01,2.2-0.68,2.7-1.68c0.33-0.63,0.35-1.35,0.48-2.03c1.18-7.41,2.33-14.82,3.51-22.23c0.33-1.95,2.12-3.53,4.1-3.61
		c1.82-0.08,3.64-0.01,5.47-0.03c3.47-0.04,6.96,0.13,10.42-0.23c5.66-0.54,11.33-2.04,16.17-5.08c4.22-2.62,7.68-6.41,10.03-10.77
		c2.64-4.82,4.04-10.22,4.79-15.64C305.07,22.69,305,17.7,303.2,13.2z M280.81,27.25c-0.15,3.39-0.86,6.94-3.02,9.65
		c-1.83,2.32-4.71,3.52-7.56,4.01c-4.42,0.73-8.92,0.41-13.38,0.48c1.06-6.73,2.13-13.46,3.19-20.18c0.09-0.54,0.14-1.09,0.3-1.61
		c0.35-1.05,1.4-1.81,2.51-1.78c3.25,0.02,6.52-0.11,9.74,0.33c2.06,0.29,4.2,0.89,5.78,2.31C280.29,22.12,280.91,24.8,280.81,27.25
		z"/>
</g>
</svg>
