<?xml version="1.0" encoding="utf-8"?>
<!-- Generator: Adobe Illustrator 23.0.3, SVG Export Plug-In . SVG Version: 6.00 Build 0)  -->
<svg version="1.1" id="Layer_1" xmlns="http://www.w3.org/2000/svg" xmlns:xlink="http://www.w3.org/1999/xlink" x="0px" y="0px"
	 viewBox="0 0 141.08 53.35" style="enable-background:new 0 0 141.08 53.35;" xml:space="preserve">
<style type="text/css">
	.st0{fill:#FFFFFF;}
	.st1{fill:#E84E1B;}
	.st2{fill:#1D1D1B;}
</style>
<path class="st0" d="M100.64,7c0.02-0.17,0.05-0.33,0.05-0.5c0-2.49-2.01-4.5-4.5-4.5s-4.5,2.01-4.5,4.5c0,0.17,0.03,0.33,0.05,0.5
	H1.69v30h139V7H100.64z"/>
<g>
	<path class="st1" d="M137.46,53.35L0,53.35V37.19l141.08,0v12.54C141.08,51.73,139.46,53.35,137.46,53.35z"/>
	<g>
		<path class="st0" d="M92.52,49.56c-0.9,0-1.6-0.22-2.11-0.65c-0.51-0.43-0.78-1.07-0.81-1.9c-0.01-0.17-0.01-0.45-0.01-0.83
			c0-0.39,0-0.67,0.01-0.85c0.03-0.82,0.31-1.45,0.82-1.89c0.52-0.44,1.22-0.66,2.1-0.66c0.56,0,1.06,0.09,1.5,0.27
			c0.44,0.18,0.79,0.45,1.05,0.79c0.26,0.35,0.39,0.75,0.41,1.22c0,0.06-0.02,0.1-0.06,0.14c-0.04,0.04-0.09,0.06-0.15,0.06h-1.34
			c-0.09,0-0.15-0.02-0.19-0.05c-0.04-0.03-0.08-0.1-0.11-0.19c-0.09-0.31-0.22-0.52-0.4-0.65c-0.18-0.12-0.42-0.18-0.71-0.18
			c-0.71,0-1.08,0.4-1.1,1.19c-0.01,0.17-0.01,0.43-0.01,0.78s0,0.62,0.01,0.8c0.02,0.79,0.39,1.19,1.1,1.19
			c0.29,0,0.53-0.06,0.71-0.19c0.19-0.13,0.32-0.34,0.4-0.64c0.03-0.09,0.06-0.16,0.1-0.19c0.04-0.03,0.11-0.05,0.2-0.05h1.34
			c0.06,0,0.11,0.02,0.15,0.06c0.04,0.04,0.06,0.08,0.06,0.14c-0.01,0.47-0.15,0.88-0.41,1.22c-0.26,0.35-0.61,0.61-1.05,0.79
			C93.58,49.47,93.08,49.56,92.52,49.56z"/>
		<path class="st0" d="M96.92,49.21V43.7c0-0.24,0.08-0.44,0.25-0.59c0.16-0.15,0.35-0.23,0.57-0.23h3.84
			c0.07,0,0.13,0.02,0.17,0.07c0.05,0.05,0.07,0.11,0.07,0.17v0.93c0,0.07-0.02,0.12-0.07,0.16c-0.04,0.04-0.1,0.07-0.18,0.07h-3.48
			c0.15,0,0.27,0.05,0.37,0.16c0.1,0.11,0.15,0.22,0.15,0.35v0.4c0,0.07,0.02,0.13,0.07,0.2c0.05,0.06,0.12,0.09,0.21,0.09h2.05
			c0.07,0,0.13,0.02,0.17,0.07c0.05,0.05,0.07,0.11,0.07,0.17v0.85c0,0.07-0.02,0.13-0.07,0.17c-0.05,0.05-0.11,0.07-0.17,0.07
			h-2.85c0.14,0,0.27,0.05,0.37,0.15c0.1,0.1,0.15,0.21,0.15,0.34v0.44c0,0.07,0.02,0.13,0.08,0.2c0.05,0.06,0.12,0.09,0.21,0.09
			h2.75c0.16,0,0.25,0.08,0.25,0.25v0.92c0,0.08-0.02,0.13-0.07,0.17c-0.05,0.04-0.11,0.06-0.17,0.06h-4.5
			c-0.06,0-0.12-0.02-0.16-0.07C96.94,49.33,96.92,49.28,96.92,49.21z"/>
		<path class="st0" d="M103.44,49.2v-5.51c0-0.22,0.08-0.41,0.24-0.57c0.16-0.16,0.35-0.24,0.58-0.24h0.31
			c0.07,0,0.15,0.01,0.25,0.04c0.09,0.03,0.19,0.11,0.29,0.25c0.37,0.58,0.7,1.1,1,1.56c0.18,0.28,0.32,0.51,0.43,0.67
			c0.1,0.17,0.2,0.32,0.3,0.46c0.09,0.14,0.17,0.26,0.24,0.36c0.06,0.1,0.1,0.16,0.11,0.18c0,0.01,0.01,0.02,0.04,0.02
			c0.03,0,0.05-0.02,0.05-0.05v-2.68c0-0.25,0.08-0.44,0.25-0.59s0.36-0.23,0.57-0.23h0.6c0.07,0,0.13,0.02,0.17,0.07
			c0.04,0.06,0.07,0.12,0.07,0.18v6.08c0,0.06-0.02,0.11-0.07,0.17c-0.05,0.05-0.11,0.08-0.17,0.08h-1.06
			c-0.14,0-0.25-0.06-0.32-0.18c-0.38-0.58-0.72-1.1-1.02-1.55c-0.18-0.28-0.33-0.5-0.43-0.66c-0.11-0.17-0.21-0.32-0.3-0.46
			c-0.09-0.14-0.17-0.26-0.24-0.36c-0.06-0.1-0.1-0.16-0.11-0.17c-0.02-0.02-0.03-0.03-0.05-0.03c-0.03,0-0.05,0.02-0.05,0.05v3.14
			c0,0.07-0.03,0.13-0.08,0.17c-0.05,0.04-0.11,0.07-0.17,0.07h-1.2c-0.06,0-0.11-0.02-0.16-0.08
			C103.46,49.31,103.44,49.26,103.44,49.2z"/>
		<path class="st0" d="M115.6,42.87c0.07,0,0.13,0.02,0.17,0.07c0.05,0.05,0.07,0.1,0.07,0.16v1.05c0,0.07-0.02,0.13-0.07,0.17
			c-0.05,0.04-0.11,0.07-0.17,0.07h-2.19c0.14,0,0.26,0.05,0.37,0.15c0.11,0.1,0.16,0.21,0.16,0.34v4.31c0,0.07-0.03,0.12-0.08,0.16
			c-0.04,0.04-0.1,0.07-0.17,0.07h-1.31c-0.07,0-0.13-0.02-0.17-0.07c-0.05-0.04-0.08-0.09-0.08-0.16v-4.52
			c0-0.09-0.03-0.16-0.08-0.21c-0.06-0.05-0.12-0.08-0.2-0.08h-1.37c-0.06,0-0.12-0.02-0.17-0.07c-0.05-0.04-0.08-0.1-0.08-0.17
			v-0.48c0-0.12,0.02-0.23,0.07-0.33c0.05-0.1,0.11-0.19,0.19-0.26c0.08-0.07,0.17-0.13,0.26-0.16c0.1-0.04,0.2-0.06,0.3-0.06H115.6
			z"/>
		<path class="st0" d="M117.15,49.21V43.7c0-0.24,0.08-0.44,0.25-0.59s0.35-0.23,0.57-0.23h3.84c0.07,0,0.13,0.02,0.17,0.07
			c0.05,0.05,0.07,0.11,0.07,0.17v0.93c0,0.07-0.02,0.12-0.07,0.16c-0.04,0.04-0.1,0.07-0.18,0.07h-3.48c0.15,0,0.27,0.05,0.37,0.16
			c0.1,0.11,0.15,0.22,0.15,0.35v0.4c0,0.07,0.02,0.13,0.07,0.2c0.05,0.06,0.12,0.09,0.21,0.09h2.05c0.07,0,0.13,0.02,0.17,0.07
			c0.05,0.05,0.07,0.11,0.07,0.17v0.85c0,0.07-0.02,0.13-0.07,0.17c-0.05,0.05-0.11,0.07-0.17,0.07h-2.85
			c0.14,0,0.27,0.05,0.37,0.15c0.1,0.1,0.15,0.21,0.15,0.34v0.44c0,0.07,0.02,0.13,0.08,0.2c0.05,0.06,0.12,0.09,0.21,0.09h2.75
			c0.16,0,0.25,0.08,0.25,0.25v0.92c0,0.08-0.02,0.13-0.07,0.17c-0.05,0.04-0.11,0.06-0.17,0.06h-4.5c-0.06,0-0.12-0.02-0.16-0.07
			C117.17,49.33,117.15,49.28,117.15,49.21z"/>
		<path class="st0" d="M129.07,49.45h-1.33c-0.18,0-0.3-0.08-0.38-0.24l-0.96-1.88c-0.06-0.1-0.14-0.15-0.25-0.15h-1.23
			c0.16,0,0.28,0.05,0.37,0.16c0.09,0.11,0.14,0.22,0.14,0.33v1.55c0,0.07-0.02,0.12-0.07,0.16c-0.04,0.04-0.1,0.07-0.17,0.07h-1.29
			c-0.06,0-0.12-0.02-0.16-0.07c-0.05-0.05-0.07-0.1-0.07-0.16V43.7c0-0.23,0.08-0.43,0.25-0.58c0.16-0.15,0.35-0.23,0.57-0.23h2
			c0.35,0,0.69,0.04,1,0.11s0.6,0.2,0.84,0.37s0.44,0.39,0.58,0.66c0.14,0.27,0.22,0.61,0.22,1c0,0.38-0.08,0.72-0.25,1.02
			c-0.17,0.3-0.42,0.55-0.75,0.74c-0.05,0.03-0.08,0.07-0.08,0.11c0,0.04,0,0.08,0.02,0.1l1.19,2.15c0.02,0.04,0.03,0.07,0.03,0.1
			c0,0.05-0.02,0.09-0.06,0.13C129.17,49.43,129.12,49.45,129.07,49.45z M127.3,45.03c0-0.26-0.08-0.45-0.23-0.59
			c-0.15-0.13-0.35-0.2-0.6-0.2h-1.62c0.16,0,0.28,0.05,0.38,0.16c0.09,0.11,0.14,0.22,0.14,0.34v0.76c0,0.08,0.03,0.14,0.08,0.2
			c0.05,0.06,0.12,0.08,0.2,0.08h0.82c0.25,0,0.44-0.06,0.6-0.18C127.23,45.48,127.3,45.29,127.3,45.03z"/>
	</g>
	<path class="st2" d="M25.12,25.61c0,0.96-0.22,1.77-0.67,2.43c-0.45,0.66-1.02,1.2-1.71,1.61c-0.69,0.41-1.47,0.71-2.32,0.89
		s-1.68,0.27-2.48,0.27c-0.77,0-1.57-0.08-2.4-0.24s-1.59-0.42-2.28-0.79c-0.69-0.37-1.27-0.86-1.74-1.47
		c-0.47-0.61-0.72-1.36-0.77-2.26c0-0.14,0.05-0.26,0.15-0.35s0.23-0.14,0.37-0.14h3.14c0.09,0,0.18,0.01,0.25,0.02
		c0.07,0.02,0.14,0.04,0.2,0.07c0.11,0.06,0.24,0.18,0.4,0.33c0.25,0.51,0.63,0.85,1.12,1.03s1.01,0.27,1.55,0.27
		c0.24,0,0.51-0.02,0.82-0.05c0.31-0.03,0.59-0.1,0.85-0.2c0.26-0.1,0.48-0.25,0.67-0.45c0.19-0.2,0.28-0.45,0.28-0.77
		c0-0.43-0.16-0.73-0.47-0.92s-0.65-0.34-0.99-0.45c-0.27-0.1-0.59-0.19-0.96-0.27c-0.37-0.09-0.8-0.18-1.29-0.27
		c-0.73-0.14-1.43-0.33-2.1-0.56c-0.68-0.23-1.28-0.53-1.81-0.91c-0.53-0.38-0.95-0.85-1.28-1.43s-0.48-1.28-0.48-2.12
		c0-1.04,0.29-1.94,0.86-2.68c0.58-0.75,1.33-1.32,2.26-1.71c1.01-0.41,2.17-0.61,3.47-0.61c0.52,0,1.06,0.04,1.62,0.13
		c0.56,0.09,1.1,0.23,1.63,0.43c0.53,0.2,1.02,0.46,1.48,0.78c0.46,0.32,0.85,0.71,1.18,1.17c0.53,0.69,0.83,1.39,0.88,2.1
		c0,0.13-0.05,0.24-0.15,0.35c-0.1,0.11-0.22,0.17-0.34,0.17h-3.31c-0.33,0-0.59-0.14-0.78-0.43c-0.1-0.33-0.34-0.61-0.73-0.85
		c-0.43-0.22-0.91-0.33-1.47-0.33c-0.24,0-0.48,0.02-0.72,0.05c-0.24,0.03-0.47,0.1-0.67,0.21c-0.21,0.11-0.37,0.26-0.5,0.44
		c-0.13,0.18-0.19,0.41-0.19,0.7c0,0.44,0.23,0.8,0.71,1.06c0.47,0.25,1.36,0.51,2.65,0.78c0.74,0.14,1.48,0.31,2.21,0.51
		c0.73,0.2,1.38,0.48,1.95,0.84c0.57,0.36,1.03,0.83,1.38,1.41C24.94,23.97,25.12,24.71,25.12,25.61z"/>
	<path class="st2" d="M39.51,14.07c0.13,0,0.24,0.05,0.34,0.14c0.1,0.09,0.15,0.2,0.15,0.33c0,0.11-0.01,0.18-0.02,0.21l-4.78,15.08
		c-0.05,0.17-0.15,0.34-0.31,0.5c-0.14,0.13-0.36,0.19-0.66,0.19h-3.78c-0.3,0-0.52-0.06-0.66-0.19c-0.16-0.14-0.27-0.31-0.33-0.5
		l-4.75-15.08l-0.05-0.21c0-0.13,0.05-0.24,0.14-0.33c0.11-0.09,0.24-0.14,0.38-0.14h3.07c0.25,0,0.45,0.06,0.59,0.19
		c0.14,0.14,0.24,0.28,0.28,0.43l3.1,10.26c0,0.06,0.04,0.09,0.12,0.09c0.06,0,0.09-0.03,0.09-0.09l3.12-10.26
		c0.06-0.21,0.17-0.36,0.33-0.46c0.16-0.1,0.34-0.15,0.54-0.15H39.51z"/>
	<path class="st2" d="M56.82,14.16c0.17,0,0.32,0.05,0.43,0.15c0.11,0.1,0.17,0.25,0.17,0.44v15.29c0,0.17-0.05,0.31-0.17,0.4
		c-0.11,0.11-0.25,0.17-0.43,0.17h-3c-0.16,0-0.3-0.06-0.41-0.18c-0.12-0.12-0.18-0.25-0.18-0.39v-8.09c0-0.08-0.04-0.12-0.12-0.12
		c-0.05,0-0.09,0.02-0.12,0.05l-2.29,4.23c-0.21,0.36-0.48,0.54-0.83,0.54h-1.28c-0.33,0-0.61-0.18-0.83-0.54l-2.27-4.21
		c-0.03-0.05-0.07-0.07-0.12-0.07c-0.08,0-0.12,0.04-0.12,0.12v8.09c0,0.16-0.06,0.29-0.19,0.4c-0.11,0.11-0.25,0.17-0.43,0.17
		h-2.98c-0.18,0-0.32-0.06-0.43-0.17c-0.11-0.09-0.17-0.23-0.17-0.4V16.13c0-0.33,0.07-0.62,0.21-0.87
		c0.14-0.25,0.32-0.46,0.52-0.62c0.21-0.16,0.42-0.28,0.64-0.35c0.22-0.08,0.41-0.12,0.57-0.12h1.32c0.38,0,0.66,0.17,0.85,0.5
		l3.92,7.07c0.02,0.05,0.06,0.07,0.12,0.07c0.05,0,0.09-0.02,0.12-0.07l3.95-7.07c0.19-0.33,0.47-0.5,0.85-0.5H56.82z"/>
	<path class="st2" d="M63.22,29.96V16.13c0-0.36,0.07-0.67,0.2-0.92c0.13-0.25,0.3-0.47,0.51-0.64c0.2-0.17,0.43-0.3,0.67-0.38
		s0.47-0.12,0.67-0.12h5.82c0.8,0,1.56,0.08,2.27,0.23c0.71,0.15,1.33,0.41,1.87,0.77c0.53,0.36,0.96,0.85,1.28,1.45
		c0.32,0.61,0.47,1.36,0.47,2.26c0,0.68-0.17,1.29-0.51,1.85s-0.81,0.99-1.41,1.32c0.71,0.28,1.26,0.77,1.67,1.45
		c0.4,0.68,0.6,1.4,0.6,2.14c0,0.91-0.16,1.69-0.48,2.32c-0.32,0.63-0.76,1.15-1.31,1.55c-0.55,0.4-1.19,0.69-1.93,0.88
		c-0.73,0.18-1.51,0.27-2.33,0.27h-7.47c-0.16,0-0.3-0.06-0.42-0.18C63.28,30.25,63.22,30.11,63.22,29.96z M70.6,20.6
		c0.54,0,0.97-0.15,1.3-0.44c0.33-0.29,0.5-0.71,0.5-1.26s-0.17-0.97-0.51-1.24c-0.34-0.28-0.77-0.41-1.29-0.41h-4.26
		c0.36,0,0.67,0.13,0.92,0.39c0.25,0.26,0.38,0.55,0.38,0.86v1.42c0,0.14,0.06,0.29,0.19,0.45c0.13,0.16,0.3,0.24,0.52,0.24H70.6z
		 M70.81,27.36c0.57,0,1.03-0.16,1.38-0.47c0.35-0.32,0.53-0.76,0.53-1.35c0-0.57-0.18-1.02-0.54-1.36
		c-0.36-0.34-0.82-0.51-1.37-0.51h-4.47c0.36,0,0.67,0.13,0.92,0.39c0.25,0.26,0.38,0.55,0.38,0.86v1.73c0,0.16,0.06,0.32,0.18,0.47
		c0.12,0.16,0.3,0.24,0.53,0.24H70.81z"/>
	<path class="st2" d="M92.35,30.57h-3.33c-0.44,0-0.76-0.2-0.94-0.61l-2.41-4.73c-0.14-0.25-0.35-0.38-0.64-0.38h-3.1
		c0.39,0,0.7,0.14,0.93,0.42c0.23,0.28,0.34,0.55,0.34,0.84V30c0,0.18-0.05,0.31-0.17,0.4c-0.11,0.11-0.25,0.17-0.43,0.17h-3.24
		c-0.16,0-0.3-0.06-0.41-0.18c-0.12-0.12-0.18-0.25-0.18-0.39V16.15c0-0.58,0.2-1.07,0.61-1.45c0.41-0.39,0.89-0.58,1.44-0.58h5.01
		c0.88,0,1.72,0.09,2.52,0.28c0.8,0.19,1.5,0.5,2.1,0.92c0.61,0.43,1.09,0.98,1.45,1.67c0.36,0.68,0.54,1.52,0.54,2.52
		c0,0.95-0.21,1.8-0.64,2.55c-0.43,0.76-1.06,1.37-1.89,1.85c-0.13,0.08-0.19,0.17-0.2,0.28c-0.01,0.11,0.01,0.2,0.06,0.26
		l2.98,5.39c0.05,0.09,0.07,0.18,0.07,0.26c0,0.13-0.05,0.24-0.15,0.33C92.59,30.52,92.47,30.57,92.35,30.57z M87.9,19.48
		c0-0.65-0.19-1.14-0.58-1.48c-0.39-0.34-0.89-0.51-1.5-0.51h-4.07c0.39,0,0.71,0.13,0.94,0.4c0.24,0.27,0.36,0.55,0.36,0.85v1.92
		c0,0.19,0.07,0.35,0.2,0.5c0.13,0.14,0.3,0.21,0.51,0.21h2.06c0.62,0,1.12-0.15,1.5-0.46C87.71,20.61,87.9,20.13,87.9,19.48z"/>
	<path class="st2" d="M94,29.98V16.15c0-0.6,0.2-1.09,0.61-1.48c0.41-0.38,0.89-0.58,1.44-0.58h1.89c0.19,0,0.33,0.06,0.43,0.17
		c0.11,0.11,0.17,0.25,0.17,0.43v15.29c0,0.16-0.06,0.29-0.17,0.4c-0.09,0.13-0.24,0.19-0.43,0.19h-3.36c-0.16,0-0.3-0.06-0.41-0.18
		S94,30.14,94,29.98z"/>
	<path class="st2" d="M107.46,30.86c-2.25,0-4.02-0.54-5.31-1.63c-1.29-1.09-1.97-2.68-2.05-4.78c-0.02-0.43-0.02-1.12-0.02-2.08
		c0-0.98,0.01-1.69,0.02-2.13c0.08-2.05,0.77-3.63,2.07-4.74c1.3-1.11,3.06-1.67,5.28-1.67c1.4,0,2.66,0.23,3.77,0.69
		c1.11,0.46,1.99,1.12,2.64,1.99c0.65,0.87,0.99,1.89,1.02,3.07c0,0.14-0.05,0.26-0.15,0.36c-0.1,0.09-0.22,0.14-0.37,0.14H111
		c-0.22,0-0.38-0.04-0.48-0.13c-0.1-0.09-0.19-0.25-0.27-0.48c-0.22-0.77-0.56-1.31-1-1.62c-0.45-0.31-1.04-0.46-1.79-0.46
		c-1.78,0-2.7,0.99-2.77,2.98c-0.02,0.43-0.02,1.08-0.02,1.96c0,0.88,0.01,1.55,0.02,2.01c0.06,1.99,0.99,2.98,2.77,2.98
		c0.73,0,1.32-0.16,1.79-0.47c0.46-0.32,0.8-0.85,1-1.61c0.06-0.24,0.15-0.4,0.26-0.48c0.11-0.09,0.28-0.13,0.5-0.13h3.36
		c0.14,0,0.26,0.05,0.37,0.14c0.1,0.09,0.15,0.21,0.15,0.36c-0.03,1.18-0.37,2.21-1.02,3.07c-0.65,0.87-1.53,1.53-2.64,1.99
		C110.11,30.63,108.86,30.86,107.46,30.86z"/>
	<path class="st2" d="M122.96,30.86c-2.24,0-4-0.54-5.3-1.63c-1.29-1.09-1.98-2.69-2.06-4.8c-0.02-0.44-0.02-1.12-0.02-2.03
		c0-0.91,0.01-1.6,0.02-2.06c0.06-2.08,0.75-3.68,2.07-4.81c1.32-1.13,3.08-1.69,5.28-1.69c2.19,0,3.94,0.56,5.26,1.69
		c1.32,1.13,2,2.73,2.07,4.81c0.03,0.92,0.05,1.6,0.05,2.06c0,0.47-0.02,1.15-0.05,2.03c-0.08,2.11-0.76,3.71-2.05,4.8
		C126.96,30.31,125.2,30.86,122.96,30.86z M122.96,27.31c0.82,0,1.47-0.25,1.96-0.74c0.49-0.5,0.75-1.26,0.78-2.28
		c0.03-0.91,0.05-1.57,0.05-1.96s-0.02-1.03-0.05-1.92c-0.03-1.02-0.29-1.78-0.78-2.28c-0.49-0.5-1.14-0.75-1.96-0.75
		c-0.83,0-1.5,0.25-1.99,0.75c-0.49,0.5-0.75,1.26-0.78,2.28c-0.02,0.44-0.02,1.08-0.02,1.92c0,0.85,0.01,1.5,0.02,1.96
		c0.03,1.02,0.29,1.78,0.78,2.28C121.47,27.06,122.13,27.31,122.96,27.31z"/>
	<path class="st2" d="M103.29,5.72C102.76,2.48,99.93,0,96.52,0c-3.41,0-6.23,2.48-6.77,5.72H0v32.85h141.08V5.72H103.29z
		 M138.56,36.06H2.52V8.24h88.03c0.04,0,0.08-0.01,0.13-0.01c0.14,0.05,0.29,0.08,0.45,0.08c0.81,0,1.47-0.66,1.47-1.47
		c0-2.14,1.76-3.88,3.92-3.88c2.16,0,3.92,1.74,3.92,3.88c0,0.81,0.66,1.47,1.47,1.47c0.14,0,0.28-0.03,0.41-0.07h36.23V36.06z"/>
	<circle class="st1" cx="96.52" cy="7.17" r="2.15"/>
</g>
</svg>
