<?xml version="1.0" encoding="utf-8"?>
<!-- Generator: Adobe Illustrator 23.0.2, SVG Export Plug-In . SVG Version: 6.00 Build 0)  -->
<svg version="1.1" id="Слой_1" xmlns="http://www.w3.org/2000/svg" xmlns:xlink="http://www.w3.org/1999/xlink" x="0px" y="0px"
	 viewBox="0 0 230.29 74.52" style="enable-background:new 0 0 230.29 74.52;" xml:space="preserve">
<style type="text/css">
	.st0{fill:#005098;}
</style>
<g>
	<path class="st0" d="M65.49,1.32L47.24,50.54l-1.96-10C41.38,30.04,31.78,20.4,20.98,15.97l15.18,57.42l19.73-0.01L85.24,1.32
		H65.49L65.49,1.32z"/>
	<polygon class="st0" points="81.13,73.45 92.79,1.26 111.43,1.26 99.77,73.45 81.13,73.45 	"/>
	<path class="st0" d="M167.39,3.03C163.7,1.58,157.9,0,150.68,0c-18.43,0-31.4,9.8-31.52,23.83c-0.11,10.37,9.26,16.16,16.33,19.61
		c7.26,3.54,9.7,5.8,9.67,8.96c-0.05,4.84-5.8,7.05-11.16,7.05c-7.46,0-11.43-1.09-17.56-3.79l-2.4-1.15l-2.61,16.16
		c4.35,2.01,12.4,3.76,20.77,3.85c19.59,0,32.31-9.68,32.46-24.66c0.06-8.23-4.9-14.47-15.66-19.62
		c-6.51-3.35-10.51-5.56-10.46-8.96c0-3,3.38-6.21,10.68-6.21c6.1-0.1,10.51,1.31,13.95,2.77l1.67,0.83L167.39,3.03L167.39,3.03z"/>
	<path class="st0" d="M192.21,47.86c1.54-4.15,7.43-20.18,7.43-20.18c-0.11,0.19,1.53-4.18,2.47-6.89l1.26,6.23
		c0,0,3.58,17.23,4.32,20.84C204.78,47.86,195.85,47.86,192.21,47.86L192.21,47.86z M215.21,1.33h-14.4c-4.47,0-7.82,1.28-9.77,5.98
		l-27.69,66.16h19.58c0,0,3.19-8.9,3.92-10.85c2.14,0,21.15,0.04,23.87,0.04c0.55,2.52,2.27,10.82,2.27,10.82h17.3L215.21,1.33
		L215.21,1.33z"/>
	<path class="st0" d="M30.31,1.27H0.25L0,2.76c20.68,5.21,37.61,16.47,45.29,37.77L38.76,7.36C37.63,2.78,34.36,1.43,30.31,1.27
		L30.31,1.27z"/>
</g>
</svg>
