<?xml version="1.0" encoding="utf-8"?>
<!-- Generator: Adobe Illustrator 23.0.2, SVG Export Plug-In . SVG Version: 6.00 Build 0)  -->
<svg version="1.1" id="Слой_1" xmlns="http://www.w3.org/2000/svg" xmlns:xlink="http://www.w3.org/1999/xlink" x="0px" y="0px"
	 viewBox="0 0 846.29 273.86" style="enable-background:new 0 0 846.29 273.86;" xml:space="preserve">
<style type="text/css">
	.st0{fill:#FFFFFF;}
</style>
<path class="st0" d="M313.26,4.85L205.38,269.65l-72.5,0.05L77.09,58.68c39.68,16.29,74.97,51.72,89.34,90.28l7.18,36.76
	L240.67,4.85H313.26z M298.14,269.93h68.5L409.5,4.63h-68.5L298.14,269.93z M547.65,111.16c-23.94-12.31-38.63-20.45-38.46-32.91
	c0.02-11.02,12.41-22.82,39.24-22.82c22.4-0.36,38.62,4.81,51.27,10.19l6.15,3.03l9.28-57.51C601.59,5.81,580.27,0,553.75,0
	c-67.73,0-115.4,36-115.82,87.56c-0.41,38.13,34.04,59.4,60.01,72.08c26.69,13,35.66,21.31,35.55,32.92
	c-0.18,17.77-21.3,25.92-41,25.92c-27.43,0-42-4.01-64.53-13.91l-8.82-4.22l-9.58,59.38c15.98,7.39,45.58,13.8,76.33,14.14
	c71.98,0,118.75-35.57,119.3-90.62C605.43,153,587.19,130.08,547.65,111.16z M846.29,270.02h-63.58c0,0-6.31-30.5-8.34-39.75
	c-9.99,0-79.89-0.13-87.74-0.13c-2.67,7.18-14.4,39.88-14.4,39.88h-71.96L702.02,26.88C709.2,9.59,721.5,4.89,737.93,4.89h52.93
	L846.29,270.02z M763.21,175.87c-2.72-13.27-15.86-76.58-15.86-76.58l-4.62-22.88c-3.46,9.94-9.49,26.01-9.09,25.31
	c0,0-21.62,58.89-27.29,74.16C719.73,175.87,752.55,175.87,763.21,175.87z M166.44,148.96l-24-121.91
	c-4.14-16.82-16.17-21.8-31.06-22.38H0.92L0,10.16C76,29.29,138.23,70.68,166.44,148.96z"/>
</svg>
