<?xml version="1.0" encoding="utf-8"?>
<!-- Generator: Adobe Illustrator 23.0.3, SVG Export Plug-In . SVG Version: 6.00 Build 0)  -->
<svg version="1.1" id="Layer_1" xmlns="http://www.w3.org/2000/svg" xmlns:xlink="http://www.w3.org/1999/xlink" x="0px" y="0px"
	 viewBox="0 0 376.4 59.7" style="enable-background:new 0 0 376.4 59.7;" xml:space="preserve">
<style type="text/css">
	.st0{fill:#FFFFFF;}
</style>
<title>Varlık 2</title>
<g id="katman_2">
	<g>
		<circle class="st0" cx="19.4" cy="29" r="5.3"/>
		<circle class="st0" cx="40.3" cy="29" r="5.3"/>
		<path class="st0" d="M59.7,29.9C59.7,13.4,46.3,0,29.9,0v6.2c13,0,23.6,10.5,23.7,23.5c0,11.9-8.8,21.9-20.5,23.5V49
			c0-1.7-1.4-3.1-3.1-3.1v7.5l0,0v-7.5c-1.7,0-3.1,1.4-3.1,3.1c0,0,0,0,0,0v7.5c0,1.7,1.4,3.1,3.1,3.1l0,0
			C46.3,59.7,59.7,46.3,59.7,29.9z"/>
		<path class="st0" d="M86.9,36.7c0,3.5-1,6.1-2.9,7.9s-4.8,2.7-8.5,2.7c-1.8,0-3.5-0.2-5.3-0.6V39c1.9,0.1,3,0.1,3.3,0.1
			c1.2,0.1,2.4-0.2,3.5-0.8c0.7-0.7,1.1-1.7,1-2.7V12.3h8.9L86.9,36.7z"/>
		<path class="st0" d="M111.9,23.9c2.7,2.5,4.2,6,4.2,9.7c0.1,3.7-1.4,7.2-4.2,9.7c-5.7,5.2-14.4,5.2-20.1,0c-2.7-2.5-4.2-6-4.1-9.7
			c-0.1-3.7,1.4-7.2,4.1-9.7C97.5,18.7,106.3,18.7,111.9,23.9z M98.3,29.7c-1,1.1-1.5,2.5-1.4,3.9c-0.1,1.4,0.4,2.9,1.4,3.9
			c2,2,5.2,2,7.2,0c0,0,0,0,0,0c1-1.1,1.5-2.5,1.5-3.9c0-1.4-0.5-2.8-1.4-3.9c-1.9-2-5.1-2-7.1-0.1C98.5,29.7,98.4,29.7,98.3,29.7
			L98.3,29.7z"/>
		<path class="st0" d="M139.6,23.9c2.7,2.5,4.2,6,4.2,9.7c0.1,3.7-1.4,7.2-4.2,9.7c-5.7,5.2-14.4,5.2-20.1,0c-2.7-2.5-4.2-6-4.1-9.7
			c-0.1-3.7,1.4-7.2,4.1-9.7C125.2,18.7,133.9,18.7,139.6,23.9z M126,29.7c-1,1.1-1.5,2.5-1.4,3.9c-0.1,1.4,0.4,2.9,1.4,3.9
			c0.9,1,2.3,1.5,3.6,1.5c1.3,0,2.6-0.5,3.6-1.5c1-1.1,1.5-2.5,1.4-3.9c0.1-1.4-0.5-2.8-1.4-3.9c-0.9-1-2.2-1.6-3.6-1.5
			C128.2,28.2,126.9,28.7,126,29.7z"/>
		<path class="st0" d="M163.6,23.8l-4.2,5.5c-1.5-1.4-3.5-2.2-5.5-2.3c-1.2,0-1.8,0.3-1.8,1c0,0.2,0.1,0.4,0.2,0.6
			c0.1,0.2,0.3,0.3,0.5,0.4c0.2,0.1,0.6,0.2,1,0.4l2.6,1c2.1,0.7,4.1,1.9,5.8,3.3c1.3,1.3,2,3.1,1.9,4.9c0.1,2.5-1,4.8-3,6.3
			c-2.3,1.6-5,2.4-7.8,2.3c-4.9,0-8.7-1.7-11.2-5l4.1-5.2c1.9,2,4.4,3.2,7.2,3.2c1.5,0,2.3-0.4,2.3-1.2c0-0.5-0.5-0.9-1.5-1.3
			l-2.9-1.2c-2.1-0.8-4-1.9-5.7-3.4c-1.3-1.3-1.9-3.1-1.9-5c-0.1-2.3,0.9-4.6,2.8-6c2.1-1.6,4.7-2.3,7.3-2.2
			C157.4,19.8,161,21.2,163.6,23.8z"/>
		<path class="st0" d="M188.6,36.8H172c1,2,2.9,3,5.8,3c2.4,0,4.8-0.7,6.8-2l3.2,6.1c-3,2.3-6.6,3.5-10.4,3.5
			c-3.9,0.1-7.7-1.3-10.5-3.9c-2.7-2.5-4.2-6.1-4.1-9.8c-0.1-3.6,1.4-7.2,4-9.7c2.6-2.6,6.2-4,9.9-3.9c3.4-0.1,6.6,1.2,9,3.6
			c2.3,2.3,3.5,5.5,3.4,8.7C189.2,33.8,189,35.3,188.6,36.8z M173.5,28c-0.9,0.7-1.5,1.8-1.8,2.9h9c0-1.1-0.5-2.1-1.3-2.8
			c-0.8-0.7-1.9-1.1-3-1.1C175.3,27,174.3,27.3,173.5,28z"/>
		<path class="st0" d="M212.6,22.9c1.9,2.1,2.8,4.9,2.7,7.7v16h-8.9V31.9c0-1-0.3-2-1.1-2.8c-0.7-0.7-1.7-1.1-2.7-1.1
			c-1,0-2,0.4-2.7,1.1c-0.7,0.8-1.1,1.8-1,2.8v14.7h-8.9v-26h8.1v2.1c2-1.9,4.6-2.9,7.3-2.8C208,19.9,210.7,20.9,212.6,22.9z"/>
		<path class="st0" d="M249.1,36.8h-16.6c1,2,2.9,3,5.8,3c2.4,0,4.8-0.7,6.8-2l3.2,6.1c-3,2.3-6.6,3.5-10.3,3.4
			c-3.9,0.1-7.7-1.2-10.5-3.9c-2.7-2.5-4.2-6.1-4.1-9.8c-0.1-3.6,1.4-7.2,4-9.7c2.6-2.6,6.2-4,9.8-3.9c3.4-0.1,6.6,1.2,9,3.6
			c2.3,2.3,3.5,5.5,3.4,8.7C249.7,33.8,249.5,35.3,249.1,36.8z M233.9,28c-0.9,0.7-1.5,1.8-1.8,2.9h9.1c0-1.1-0.5-2.1-1.3-2.8
			c-0.8-0.7-1.9-1.1-3-1.1C235.8,27,234.8,27.3,233.9,28z"/>
		<path class="st0" d="M259.2,46.6h-9v-39h9V46.6z"/>
		<path class="st0" d="M285.6,36.8H269c1,2,2.9,3,5.8,3c2.4,0,4.8-0.7,6.8-2l3.2,6.1c-3,2.3-6.6,3.5-10.4,3.5
			c-3.9,0.1-7.7-1.3-10.5-4c-2.7-2.5-4.2-6.1-4.1-9.8c-0.1-3.6,1.4-7.2,4-9.7c2.6-2.6,6.2-4,9.8-3.9c3.4-0.1,6.6,1.2,9,3.6
			c2.3,2.3,3.5,5.5,3.4,8.7C286.2,33.8,286,35.3,285.6,36.8z M270.4,28c-0.9,0.7-1.5,1.8-1.8,2.9h9c0-1.1-0.5-2.1-1.3-2.8
			c-0.8-0.7-1.9-1.1-3-1.1C272.3,27,271.3,27.3,270.4,28z"/>
		<path class="st0" d="M305,46.6l-9.3-13.7v13.7h-8.9v-39h8.9v23.5l8.1-10.5h10.4l-8.9,11.6l9.6,14.4L305,46.6z"/>
		<path class="st0" d="M315.4,20.6v-6.2h8.9v6.2h7v7.5h-7v7.7c-0.1,1,0.3,2,1,2.7c1,0.6,2.3,0.9,3.5,0.8c0.3,0,1.4,0,3.3-0.1v7.5
			c-1.7,0.4-3.5,0.6-5.2,0.6c-3.7,0-6.5-0.9-8.5-2.7s-3-4.4-3-7.9v-8.6h-5.7"/>
		<path class="st0" d="M350,20.6v7.9h-2.1c-1.7-0.1-3.3,0.4-4.6,1.5c-1,1-1.6,2.6-1.6,4.8v11.9h-9v-26h8.2v2.8
			c1.5-2.1,4-3.2,6.5-3.2C348.3,20.2,349.2,20.3,350,20.6z"/>
		<path class="st0" d="M372.3,23.9c2.7,2.5,4.2,6,4.2,9.7c0.1,3.7-1.4,7.2-4.2,9.7c-5.7,5.2-14.4,5.2-20.1,0c-2.7-2.5-4.2-6-4.1-9.7
			c-0.1-3.7,1.4-7.2,4.1-9.7C357.9,18.7,366.6,18.7,372.3,23.9z M358.6,29.7c-1,1.1-1.5,2.5-1.4,3.9c-0.1,1.4,0.4,2.9,1.4,3.9
			c0.9,1,2.3,1.5,3.6,1.4c1.3,0,2.6-0.5,3.6-1.5c1-1.1,1.5-2.5,1.4-3.9c0-1.4-0.5-2.8-1.4-3.9c-0.9-1-2.2-1.6-3.6-1.5
			C360.9,28.1,359.6,28.7,358.6,29.7z"/>
		<path class="st0" d="M29.9,13.8c-1,0-1.9-0.8-1.9-1.9v-10c0.1-1,1-1.8,2-1.7c0.9,0.1,1.7,0.8,1.7,1.7v10
			C31.8,13,30.9,13.8,29.9,13.8C29.9,13.8,29.9,13.8,29.9,13.8z"/>
		<path class="st0" d="M29.9,6.2V0C13.4,0,0,13.4,0,29.9c0,14.7,10.8,27.2,25.3,29.5V53c-12.8-2.6-21-15-18.5-27.8
			C9.1,14.2,18.7,6.3,29.9,6.2z"/>
	</g>
</g>
</svg>
