<?xml version="1.0" encoding="utf-8"?>
<!-- Generator: Adobe Illustrator 23.0.2, SVG Export Plug-In . SVG Version: 6.00 Build 0)  -->
<svg version="1.1" id="Режим_изоляции"
	 xmlns="http://www.w3.org/2000/svg" xmlns:xlink="http://www.w3.org/1999/xlink" x="0px" y="0px" viewBox="0 0 171.35 45.69"
	 style="enable-background:new 0 0 171.35 45.69;" xml:space="preserve">
<style type="text/css">
	.st0{fill:#012E83;}
	.st1{fill:#019CDE;}
</style>
<g>
	<path class="st0" d="M64.66,13.28c0.08-0.5,0.53-0.92,1.04-0.93c2.13,0,4.27,0,6.4,0c0.81-0.01,1.56,0.58,1.77,1.36
		c1.24,4.15,2.49,8.31,3.73,12.46c2.93-4.32,5.87-8.64,8.8-12.97c0.36-0.57,1.05-0.91,1.72-0.86c2.08,0,4.17,0,6.25,0
		c0.25-0.01,0.5,0.07,0.7,0.22c0.46,0.34,0.58,1.04,0.26,1.51c-7.12,10.28-14.24,20.55-21.36,30.83c-0.25,0.33-0.61,0.65-1.04,0.68
		c0.05,0.03,0.16,0.07,0.21,0.1c-2.49,0.01-4.98,0.02-7.46,0c-0.18-0.14-0.41-0.24-0.54-0.44c-0.29-0.39-0.3-0.96,0-1.35
		c1.87-2.63,3.73-5.27,5.6-7.9c0.34-0.47,0.66-0.96,1.02-1.42c-1.04-3.12-2.12-6.23-3.17-9.35c-1.25-3.67-2.5-7.33-3.75-11
		C64.73,13.92,64.59,13.6,64.66,13.28L64.66,13.28z M44.99,18.63c-1.49,0.23-2.9,0.94-3.96,2.02c-1.07,1.08-1.76,2.51-2,4
		c-0.24,1.37-0.09,2.86,0.68,4.05c0.66,1.03,1.77,1.72,2.95,1.98c1.79,0.4,3.74,0.14,5.34-0.76c1.24-0.7,2.24-1.8,2.85-3.08
		c0.69-1.47,0.97-3.18,0.52-4.76c-0.33-1.18-1.13-2.24-2.21-2.83C47.9,18.54,46.39,18.42,44.99,18.63L44.99,18.63z M40.44,12.4
		c2.11-0.7,4.38-0.79,6.57-0.52c1.57,0.21,3.19,0.65,4.43,1.69c0.5,0.4,0.83,0.95,1.2,1.46c0.09-0.59,0.18-1.17,0.28-1.76
		c0.07-0.52,0.57-0.94,1.1-0.93c2.13,0,4.27,0,6.4,0c0.46-0.01,0.9,0.31,1.05,0.75c0.11,0.29,0.04,0.6-0.01,0.9
		c-1.13,7.15-2.25,14.3-3.39,21.45c-0.08,0.65-0.54,1.24-1.15,1.48c-0.37,0.15-0.77,0.13-1.16,0.13c-1.79,0-3.58,0.01-5.36,0
		c-0.6-0.02-1.1-0.6-1.04-1.2c0.07-0.6,0.21-1.18,0.26-1.79c-2.17,2.21-5.24,3.47-8.33,3.58c-1.49,0.04-3-0.1-4.43-0.56
		c-1.28-0.4-2.48-1.08-3.45-2.02c-1.02-0.97-1.8-2.18-2.32-3.49c-0.75-1.87-0.99-3.92-0.81-5.92c0.28-3.14,1.47-6.22,3.48-8.66
		C35.48,14.87,37.82,13.24,40.44,12.4L40.44,12.4z M13.73,8.02c-0.13,0.23-0.14,0.5-0.18,0.75c-0.45,2.84-0.9,5.67-1.35,8.51
		c1.47-0.01,2.94,0.04,4.4-0.06c1.3-0.1,2.67-0.36,3.72-1.2c0.97-0.76,1.49-1.95,1.72-3.14c0.19-1.02,0.29-2.09-0.03-3.09
		c-0.22-0.7-0.73-1.31-1.38-1.66c-0.76-0.42-1.64-0.56-2.49-0.64c-1.14-0.09-2.28-0.06-3.42-0.06C14.31,7.42,13.91,7.66,13.73,8.02
		L13.73,8.02z M7.13,0.02c4.5-0.03,9,0,13.5-0.01c1.63,0.01,3.27,0.18,4.84,0.59c1.43,0.39,2.82,1,3.96,1.97
		c1.15,0.96,1.97,2.29,2.38,3.73c0.55,1.91,0.48,3.94,0.16,5.88c-0.45,2.76-1.38,5.52-3.16,7.72c-1.02,1.27-2.32,2.33-3.77,3.08
		c-2.19,1.14-4.66,1.61-7.1,1.72c-1.79,0.04-3.57,0-5.36,0.02c-0.61,0.01-1.2,0.33-1.53,0.85c-0.26,0.38-0.29,0.85-0.36,1.29
		c-0.46,2.9-0.91,5.8-1.38,8.7c-0.14,0.84-0.94,1.51-1.79,1.5c-2.13,0-4.26,0-6.39,0c-0.47,0.02-0.92-0.31-1.07-0.76
		c-0.17-0.46,0.06-0.94,0.09-1.4C1.9,23.82,3.64,12.75,5.39,1.67C5.46,0.8,6.26,0.04,7.13,0.02L7.13,0.02z"/>
	<path class="st1" d="M140.03,18.63c-1.51,0.23-2.94,0.96-4,2.06c-1.09,1.12-1.78,2.61-1.99,4.15c-0.21,1.36-0.01,2.84,0.8,3.99
		c0.74,1.07,1.98,1.72,3.25,1.92c1.72,0.28,3.55-0.01,5.05-0.9c1.21-0.71,2.18-1.8,2.77-3.07c0.64-1.4,0.92-3.01,0.55-4.51
		c-0.28-1.17-1-2.23-2.02-2.88C143.15,18.56,141.53,18.41,140.03,18.63L140.03,18.63z M136.67,12.08c1.82-0.42,3.72-0.41,5.56-0.17
		c1.49,0.22,3.01,0.65,4.2,1.62c0.52,0.41,0.86,0.97,1.25,1.5c0.09-0.58,0.18-1.17,0.28-1.75c0.07-0.52,0.57-0.94,1.1-0.93
		c2.13,0,4.27,0,6.4,0c0.47-0.01,0.91,0.32,1.05,0.76c0.11,0.31,0.02,0.64-0.02,0.95c-1.1,6.97-2.2,13.94-3.3,20.91
		c-0.06,0.31-0.08,0.64-0.2,0.94c-0.27,0.68-0.98,1.16-1.72,1.15c-1.92,0-3.84,0-5.76,0c-0.52,0.02-1-0.38-1.1-0.89
		c-0.07-0.23,0-0.46,0.03-0.68c0.08-0.49,0.15-0.98,0.24-1.46c-0.83,0.9-1.86,1.61-2.93,2.18c-1.61,0.86-3.42,1.34-5.25,1.43
		c-1.55,0.07-3.12-0.08-4.61-0.54c-1.3-0.41-2.52-1.1-3.49-2.06c-1.44-1.39-2.39-3.24-2.83-5.18c-0.5-2.15-0.39-4.41,0.12-6.55
		c0.86-3.68,3.08-7.05,6.22-9.16C133.36,13.16,134.98,12.46,136.67,12.08L136.67,12.08z M163.99,0.01c2.08-0.02,4.17,0,6.25-0.01
		c0.68,0,1.24,0.69,1.09,1.35c-1.76,11.13-3.52,22.25-5.27,33.38c-0.09,0.45-0.09,0.94-0.32,1.35c-0.31,0.57-0.94,0.96-1.59,0.97
		c-1.87,0-3.73,0-5.6,0c-0.64,0-1.18-0.65-1.06-1.27c1.82-11.58,3.64-23.16,5.46-34.74C162.98,0.5,163.44,0.03,163.99,0.01
		L163.99,0.01z M108.7,8.18c-0.07,0.22-0.09,0.45-0.13,0.67c-0.44,2.81-0.89,5.62-1.33,8.43c1.86-0.03,3.74,0.1,5.59-0.2
		c1.19-0.2,2.39-0.7,3.16-1.67c0.9-1.13,1.2-2.61,1.26-4.03c0.04-1.02-0.21-2.14-1.01-2.84c-0.66-0.6-1.55-0.84-2.41-0.97
		c-1.35-0.18-2.71-0.13-4.07-0.14C109.29,7.42,108.84,7.74,108.7,8.18L108.7,8.18z M101.89,0.05c0.59-0.09,1.19-0.02,1.78-0.04
		c3.39,0,6.79,0,10.18,0c1.53,0.01,3.07-0.04,4.59,0.19c2.09,0.28,4.2,0.91,5.87,2.24c1.02,0.8,1.81,1.88,2.28,3.09
		c0.75,1.88,0.78,3.96,0.53,5.94c-0.31,2.26-0.9,4.52-2,6.53c-0.98,1.82-2.43,3.4-4.19,4.5c-2.02,1.27-4.39,1.9-6.75,2.12
		c-1.45,0.15-2.9,0.08-4.35,0.1c-0.76,0.01-1.52-0.02-2.28,0.01c-0.83,0.03-1.58,0.69-1.71,1.51c-0.49,3.09-0.98,6.19-1.47,9.28
		c-0.05,0.28-0.06,0.59-0.2,0.85c-0.21,0.42-0.66,0.7-1.13,0.7c-2.16,0-4.31,0-6.47,0c-0.31,0-0.64,0.03-0.93-0.12
		c-0.44-0.22-0.69-0.76-0.58-1.24c1.76-11.11,3.51-22.21,5.26-33.32c0.08-0.41,0.09-0.83,0.25-1.22
		C100.79,0.6,101.31,0.18,101.89,0.05L101.89,0.05z"/>
</g>
</svg>
